<svg width="20" height="20" viewBox="0 0 20 20" fill="none" xmlns="http://www.w3.org/2000/svg">
<path d="M12.5054 8.69644L10.0004 10.9984L7.49439 8.69644C7.39863 8.60226 7.2697 8.54949 7.13539 8.54949C7.00108 8.54949 6.87215 8.60226 6.77639 8.69644C6.72953 8.74292 6.69233 8.79822 6.66694 8.85915C6.64156 8.92008 6.62849 8.98543 6.62849 9.05144C6.62849 9.11744 6.64156 9.1828 6.66694 9.24373C6.69233 9.30466 6.72953 9.35996 6.77639 9.40644L9.64039 12.2134C9.73586 12.3078 9.86467 12.3607 9.99889 12.3607C10.1331 12.3607 10.2619 12.3078 10.3574 12.2134L13.2214 9.40644C13.2685 9.36009 13.3059 9.30484 13.3314 9.24389C13.357 9.18294 13.3701 9.11752 13.3701 9.05144C13.3701 8.98536 13.357 8.91994 13.3314 8.85899C13.3059 8.79804 13.2685 8.74278 13.2214 8.69644C13.126 8.60239 12.9974 8.54967 12.8634 8.54967C12.7294 8.54967 12.6008 8.60239 12.5054 8.69644ZM10.0004 0.398438C7.45431 0.398438 5.01251 1.40986 3.21217 3.21021C1.41182 5.01056 0.400391 7.45236 0.400391 9.99844C0.400391 15.3014 4.69839 19.5984 10.0004 19.5984C15.3024 19.5984 19.6004 15.3014 19.6004 9.99844C19.6004 8.73775 19.3521 7.4894 18.8696 6.32468C18.3872 5.15995 17.6801 4.10165 16.7886 3.21021C15.8972 2.31877 14.8389 1.61164 13.6742 1.12919C12.5094 0.646749 11.2611 0.398438 10.0004 0.398438ZM10.0004 18.3524C8.90329 18.3526 7.81691 18.1366 6.8033 17.7168C5.78968 17.297 4.86869 16.6817 4.09293 15.9059C3.31716 15.1301 2.70181 14.2091 2.28203 13.1955C1.86225 12.1819 1.64626 11.0955 1.64639 9.99844C1.64639 8.34617 2.13634 6.73101 3.05429 5.3572C3.97224 3.9834 5.27696 2.91264 6.80345 2.28035C8.32995 1.64805 10.0097 1.48262 11.6302 1.80496C13.2507 2.1273 14.7392 2.92294 15.9076 4.09127C17.0759 5.2596 17.8715 6.74814 18.1939 8.36865C18.5162 9.98917 18.3508 11.6689 17.7185 13.1954C17.0862 14.7219 16.0154 16.0266 14.6416 16.9445C13.2678 17.8625 11.6527 18.3524 10.0004 18.3524Z" fill="#5C3AE2"/>
</svg>
