<svg width="24" height="24" viewBox="0 0 24 24" fill="none" xmlns="http://www.w3.org/2000/svg">
<path d="M13.7834 13.0009L8.34805 7.05351C8.12508 6.82721 8 6.52161 8 6.20315C8 5.88468 8.12508 5.57908 8.34805 5.35278C8.45754 5.24105 8.58806 5.15232 8.73199 5.09175C8.87593 5.03119 9.03041 5 9.18646 5C9.3425 5 9.49699 5.03119 9.64092 5.09175C9.78486 5.15232 9.91537 5.24105 10.0249 5.35278L16.6525 12.1488C16.8752 12.3756 17 12.6814 17 13C17 13.3186 16.8752 13.6244 16.6525 13.8512L10.0249 20.6472C9.91537 20.759 9.78486 20.8477 9.64092 20.9082C9.49699 20.9688 9.3425 21 9.18646 21C9.03041 21 8.87593 20.9688 8.73199 20.9082C8.58806 20.8477 8.45754 20.759 8.34805 20.6472C8.12508 20.4209 8 20.1153 8 19.7969C8 19.4784 8.12508 19.1728 8.34805 18.9465L13.7834 13.0009Z" fill="white"/>
</svg>
