<svg width="162" height="48" viewBox="0 0 162 48" fill="none" xmlns="http://www.w3.org/2000/svg">
<path d="M156.236 48H5.6748C2.5464 48 0 45.4464 0 42.3204V5.6712C0 2.544 2.5464 0 5.6748 0H156.236C159.364 0 162 2.544 162 5.6712V42.3204C162 45.4464 159.364 48 156.236 48Z" fill="black"/>
<path d="M160.839 42.32C160.839 44.8592 158.782 46.916 156.238 46.916H5.67516C3.13236 46.916 1.06836 44.8592 1.06836 42.32V5.66841C1.06836 3.13041 3.13236 1.06641 5.67516 1.06641H156.237C158.782 1.06641 160.838 3.13041 160.838 5.66841L160.839 42.32Z" fill="black"/>
<path d="M36.1529 23.7395C36.1181 19.8719 39.3197 17.9903 39.4661 17.9027C37.6529 15.2591 34.8425 14.8979 33.8549 14.8691C31.4945 14.6207 29.2049 16.2815 28.0025 16.2815C26.7761 16.2815 24.9245 14.8931 22.9289 14.9339C20.3609 14.9735 17.9585 16.4603 16.6409 18.7691C13.9217 23.4767 15.9497 30.3947 18.5549 34.1999C19.8581 36.0635 21.3809 38.1443 23.3741 38.0711C25.3241 37.9907 26.0525 36.8279 28.4057 36.8279C30.7373 36.8279 31.4213 38.0711 33.4541 38.0243C35.5469 37.9907 36.8645 36.1523 38.1221 34.2719C39.6281 32.1359 40.2329 30.0323 40.2569 29.9243C40.2077 29.9075 36.1925 28.3751 36.1529 23.7395Z" fill="white"/>
<path d="M32.3125 12.3677C33.3613 11.0561 34.0789 9.27174 33.8797 7.46094C32.3617 7.52814 30.4633 8.51094 29.3701 9.79374C28.4029 10.9241 27.5389 12.7769 27.7621 14.5193C29.4673 14.6465 31.2181 13.6589 32.3125 12.3677Z" fill="white"/>
<path d="M64.3746 37.8055H61.6494L60.1566 33.1147H54.9678L53.5458 37.8055H50.8926L56.0334 21.8359H59.2086L64.3746 37.8055ZM59.7066 31.1467L58.3566 26.9767C58.2138 26.5507 57.9462 25.5475 57.5514 23.9683H57.5034C57.3462 24.6475 57.093 25.6507 56.745 26.9767L55.419 31.1467H59.7066Z" fill="white"/>
<path d="M77.5951 31.9071C77.5951 33.8655 77.0659 35.4135 76.0075 36.5499C75.0595 37.5615 73.8823 38.0667 72.4771 38.0667C70.9603 38.0667 69.8707 37.5219 69.2071 36.4323H69.1591V42.4983H66.6007V30.0819C66.6007 28.8507 66.5683 27.5871 66.5059 26.2911H68.7559L68.8987 28.1163H68.9467C69.7999 26.7411 71.0947 26.0547 72.8323 26.0547C74.1907 26.0547 75.3247 26.5911 76.2319 27.6651C77.1415 28.7403 77.5951 30.1539 77.5951 31.9071ZM74.9887 32.0007C74.9887 30.8799 74.7367 29.9559 74.2303 29.2287C73.6771 28.4703 72.9343 28.0911 72.0031 28.0911C71.3719 28.0911 70.7983 28.3023 70.2859 28.7187C69.7723 29.1387 69.4363 29.6871 69.2791 30.3663C69.1999 30.6831 69.1603 30.9423 69.1603 31.1463V33.0663C69.1603 33.9039 69.4171 34.6107 69.9307 35.1879C70.4443 35.7651 71.1115 36.0531 71.9323 36.0531C72.8959 36.0531 73.6459 35.6811 74.1823 34.9395C74.7199 34.1967 74.9887 33.2175 74.9887 32.0007Z" fill="white"/>
<path d="M90.84 31.9071C90.84 33.8655 90.3108 35.4135 89.2512 36.5499C88.3044 37.5615 87.1272 38.0667 85.722 38.0667C84.2052 38.0667 83.1156 37.5219 82.4532 36.4323H82.4052V42.4983H79.8468V30.0819C79.8468 28.8507 79.8144 27.5871 79.752 26.2911H82.002L82.1448 28.1163H82.1927C83.0447 26.7411 84.3396 26.0547 86.0784 26.0547C87.4356 26.0547 88.5696 26.5911 89.4792 27.6651C90.3852 28.7403 90.84 30.1539 90.84 31.9071ZM88.2336 32.0007C88.2336 30.8799 87.9804 29.9559 87.474 29.2287C86.9208 28.4703 86.1804 28.0911 85.248 28.0911C84.6156 28.0911 84.0432 28.3023 83.5296 28.7187C83.016 29.1387 82.6812 29.6871 82.524 30.3663C82.446 30.6831 82.4052 30.9423 82.4052 31.1463V33.0663C82.4052 33.9039 82.662 34.6107 83.1732 35.1879C83.6868 35.7639 84.354 36.0531 85.1772 36.0531C86.1408 36.0531 86.8908 35.6811 87.4272 34.9395C87.9648 34.1967 88.2336 33.2175 88.2336 32.0007Z" fill="white"/>
<path d="M105.647 33.3268C105.647 34.6852 105.176 35.7904 104.229 36.6436C103.189 37.576 101.74 38.0416 99.879 38.0416C98.1606 38.0416 96.783 37.7104 95.7402 37.0468L96.333 34.9144C97.4562 35.5936 98.6886 35.9344 100.031 35.9344C100.995 35.9344 101.745 35.716 102.284 35.2816C102.82 34.8472 103.088 34.264 103.088 33.5368C103.088 32.8888 102.867 32.3428 102.424 31.9C101.984 31.4572 101.248 31.0456 100.221 30.6652C97.425 29.6224 96.0282 28.0948 96.0282 26.086C96.0282 24.7732 96.5178 23.6968 97.4982 22.8592C98.475 22.0204 99.7782 21.6016 101.408 21.6016C102.861 21.6016 104.068 21.8548 105.032 22.36L104.392 24.4456C103.492 23.956 102.475 23.7112 101.336 23.7112C100.436 23.7112 99.7326 23.9332 99.2286 24.3748C98.8026 24.7696 98.589 25.2508 98.589 25.8208C98.589 26.452 98.8326 26.974 99.3222 27.3844C99.7482 27.7636 100.522 28.174 101.645 28.6168C103.019 29.17 104.029 29.8168 104.678 30.5584C105.325 31.2976 105.647 32.2228 105.647 33.3268Z" fill="white"/>
<path d="M114.107 28.2111H111.287V33.8019C111.287 35.2239 111.783 35.9343 112.779 35.9343C113.237 35.9343 113.616 35.8947 113.916 35.8155L113.987 37.7583C113.483 37.9467 112.819 38.0415 111.997 38.0415C110.987 38.0415 110.197 37.7331 109.627 37.1175C109.059 36.5007 108.774 35.4663 108.774 34.0131V28.2087H107.094V26.2887H108.774V24.1803L111.287 23.4219V26.2887H114.107V28.2111Z" fill="white"/>
<path d="M126.83 31.9527C126.83 33.7227 126.323 35.1759 125.313 36.3123C124.253 37.4823 122.847 38.0655 121.094 38.0655C119.404 38.0655 118.059 37.5051 117.056 36.3843C116.052 35.2635 115.551 33.8487 115.551 32.1435C115.551 30.3591 116.067 28.8975 117.102 27.7611C118.136 26.6235 119.53 26.0547 121.283 26.0547C122.973 26.0547 124.332 26.6151 125.358 27.7371C126.34 28.8255 126.83 30.2307 126.83 31.9527ZM124.175 32.0355C124.175 30.9735 123.948 30.0627 123.489 29.3031C122.952 28.3839 122.186 27.9255 121.192 27.9255C120.164 27.9255 119.382 28.3851 118.846 29.3031C118.386 30.0639 118.16 30.9891 118.16 32.0835C118.16 33.1455 118.386 34.0563 118.846 34.8147C119.399 35.7339 120.172 36.1923 121.169 36.1923C122.146 36.1923 122.913 35.7243 123.466 34.7907C123.938 34.0167 124.175 33.0963 124.175 32.0355Z" fill="white"/>
<path d="M135.145 28.5411C134.892 28.4943 134.622 28.4703 134.339 28.4703C133.439 28.4703 132.743 28.8099 132.253 29.4903C131.827 30.0903 131.614 30.8487 131.614 31.7643V37.8063H129.056L129.08 29.9175C129.08 28.5903 129.048 27.3819 128.984 26.2923H131.213L131.306 28.4955H131.377C131.647 27.7383 132.073 27.1287 132.656 26.6715C133.226 26.2599 133.842 26.0547 134.506 26.0547C134.742 26.0547 134.956 26.0715 135.145 26.1015V28.5411Z" fill="white"/>
<path d="M146.587 31.5021C146.587 31.9605 146.557 32.3468 146.494 32.6624H138.818C138.848 33.8 139.219 34.67 139.932 35.2701C140.579 35.8064 141.415 36.0752 142.442 36.0752C143.579 36.0752 144.616 35.894 145.548 35.5304L145.949 37.3064C144.859 37.7817 143.573 38.018 142.088 38.018C140.303 38.018 138.901 37.4924 137.881 36.4424C136.864 35.3924 136.354 33.9824 136.354 32.2136C136.354 30.4772 136.828 29.0312 137.777 27.878C138.77 26.6468 140.113 26.0312 141.803 26.0312C143.462 26.0312 144.719 26.6468 145.572 27.878C146.248 28.856 146.587 30.0656 146.587 31.5021ZM144.148 30.8384C144.164 30.08 143.998 29.4248 143.651 28.8716C143.208 28.16 142.528 27.8048 141.612 27.8048C140.776 27.8048 140.095 28.1517 139.576 28.8477C139.15 29.4009 138.896 30.0644 138.818 30.8372H144.148V30.8384Z" fill="white"/>
<path d="M51.4064 14.8008H54.0906C56.3582 14.8008 57.6924 13.3875 57.6924 10.9828V10.9723C57.6924 8.57812 56.3477 7.19121 54.0906 7.19121H51.4064V14.8008ZM52.5877 13.7777V8.20898H53.9799C55.583 8.20898 56.4848 9.19512 56.4848 10.9828V10.9934C56.4848 12.7916 55.5936 13.7777 53.9799 13.7777H52.5877ZM60.2008 8.39883C60.5752 8.39883 60.8652 8.10352 60.8652 7.74492C60.8652 7.38105 60.5752 7.08574 60.2008 7.08574C59.8316 7.08574 59.5363 7.38105 59.5363 7.74492C59.5363 8.10352 59.8316 8.39883 60.2008 8.39883ZM59.6313 14.8008H60.7703V9.25312H59.6313V14.8008ZM64.924 14.9115C66.2318 14.9115 67.1811 14.2154 67.1811 13.2029V13.1977C67.1811 12.4014 66.7486 11.9531 65.6148 11.6895L64.7131 11.4838C64.1172 11.3414 63.8904 11.1094 63.8904 10.7666V10.7613C63.8904 10.3184 64.2754 10.0283 64.8871 10.0283C65.5305 10.0283 65.9102 10.3658 65.9787 10.851L65.984 10.8879H67.0545L67.0492 10.8246C66.9912 9.88066 66.2002 9.14766 64.8871 9.14766C63.6109 9.14766 62.7461 9.82793 62.7461 10.8193V10.8246C62.7461 11.6314 63.2682 12.1377 64.3229 12.3803L65.2299 12.5859C65.8258 12.7283 66.0262 12.934 66.0262 13.2926V13.2979C66.0262 13.7461 65.6148 14.0309 64.9293 14.0309C64.2279 14.0309 63.8482 13.7303 63.7428 13.2187L63.7322 13.166H62.6037L62.609 13.2135C62.725 14.226 63.5371 14.9115 64.924 14.9115ZM68.967 16.6465H70.1061V13.8674H70.1324C70.4594 14.5107 71.0975 14.9115 71.8832 14.9115C73.2754 14.9115 74.1877 13.7988 74.1877 12.0322V12.027C74.1877 10.2551 73.2807 9.14766 71.8674 9.14766C71.0764 9.14766 70.4646 9.54844 70.1324 10.2076H70.1061V9.25312H68.967V16.6465ZM71.5721 13.9307C70.7125 13.9307 70.1008 13.1818 70.1008 12.0322V12.027C70.1008 10.8721 70.7072 10.1232 71.5721 10.1232C72.4633 10.1232 73.0275 10.8457 73.0275 12.027V12.0322C73.0275 13.2029 72.4686 13.9307 71.5721 13.9307ZM78.3572 14.9115C79.9445 14.9115 80.9887 13.8146 80.9887 12.027V12.0164C80.9887 10.2393 79.934 9.14766 78.352 9.14766C76.7752 9.14766 75.7258 10.2445 75.7258 12.0164V12.027C75.7258 13.8094 76.7646 14.9115 78.3572 14.9115ZM78.3625 13.957C77.4713 13.957 76.8912 13.2557 76.8912 12.027V12.0164C76.8912 10.8035 77.4766 10.1021 78.352 10.1021C79.2432 10.1021 79.8232 10.8035 79.8232 12.0164V12.027C79.8232 13.2504 79.2537 13.957 78.3625 13.957ZM82.7693 14.8008H83.9084V11.5682C83.9084 10.7033 84.4252 10.1232 85.2268 10.1232C86.0178 10.1232 86.408 10.5926 86.408 11.4258V14.8008H87.5523V11.2096C87.5523 9.9334 86.851 9.14766 85.6328 9.14766C84.7943 9.14766 84.2248 9.52734 83.9348 10.0916H83.9084V9.25312H82.7693V14.8008ZM90.1715 8.39883C90.5459 8.39883 90.8359 8.10352 90.8359 7.74492C90.8359 7.38105 90.5459 7.08574 90.1715 7.08574C89.8023 7.08574 89.507 7.38105 89.507 7.74492C89.507 8.10352 89.8023 8.39883 90.1715 8.39883ZM89.602 14.8008H90.741V9.25312H89.602V14.8008ZM95.7648 14.9115C97.1729 14.9115 98.0852 13.7936 98.0852 12.027V12.0217C98.0852 10.2551 97.1676 9.14766 95.7754 9.14766C94.9896 9.14766 94.3568 9.54316 94.0246 10.1971H93.9982V7.19121H92.8592V14.8008H93.9982V13.8621H94.0246C94.3516 14.5107 94.9686 14.9115 95.7648 14.9115ZM95.4643 13.9307C94.5994 13.9307 93.993 13.1818 93.993 12.027V12.0217C93.993 10.8721 94.6047 10.1232 95.4643 10.1232C96.3607 10.1232 96.9197 10.851 96.9197 12.0217V12.027C96.9197 13.2082 96.3607 13.9307 95.4643 13.9307ZM99.908 14.8008H101.047V7.19121H99.908V14.8008ZM105.486 14.9115C106.83 14.9115 107.685 14.11 107.864 13.2293L107.874 13.1713H106.793L106.778 13.2135C106.635 13.6301 106.187 13.9781 105.512 13.9781C104.605 13.9781 104.03 13.3664 104.009 12.317H107.938V11.932C107.938 10.2656 106.983 9.14766 105.428 9.14766C103.872 9.14766 102.87 10.3078 102.87 12.0428V12.048C102.87 13.7988 103.856 14.9115 105.486 14.9115ZM105.433 10.0811C106.176 10.0811 106.714 10.5504 106.809 11.5102H104.025C104.125 10.582 104.695 10.0811 105.433 10.0811ZM115.185 14.9115C116.53 14.9115 117.384 14.11 117.563 13.2293L117.574 13.1713H116.493L116.477 13.2135C116.335 13.6301 115.887 13.9781 115.212 13.9781C114.304 13.9781 113.73 13.3664 113.709 12.317H117.637V11.932C117.637 10.2656 116.683 9.14766 115.127 9.14766C113.571 9.14766 112.57 10.3078 112.57 12.0428V12.048C112.57 13.7988 113.556 14.9115 115.185 14.9115ZM115.132 10.0811C115.876 10.0811 116.414 10.5504 116.509 11.5102H113.724C113.825 10.582 114.394 10.0811 115.132 10.0811ZM119.423 14.8008H120.562V11.5682C120.562 10.7033 121.079 10.1232 121.881 10.1232C122.672 10.1232 123.062 10.5926 123.062 11.4258V14.8008H124.206V11.2096C124.206 9.9334 123.505 9.14766 122.287 9.14766C121.448 9.14766 120.879 9.52734 120.589 10.0916H120.562V9.25312H119.423V14.8008ZM131.67 14.9115C133.015 14.9115 133.869 14.11 134.048 13.2293L134.059 13.1713H132.978L132.962 13.2135C132.82 13.6301 132.371 13.9781 131.696 13.9781C130.789 13.9781 130.214 13.3664 130.193 12.317H134.122V11.932C134.122 10.2656 133.168 9.14766 131.612 9.14766C130.056 9.14766 129.054 10.3078 129.054 12.0428V12.048C129.054 13.7988 130.04 14.9115 131.67 14.9115ZM131.617 10.0811C132.361 10.0811 132.899 10.5504 132.994 11.5102H130.209C130.309 10.582 130.879 10.0811 131.617 10.0811ZM135.95 14.8008H137.089V7.19121H135.95V14.8008Z" fill="white"/>
</svg>
