<svg width="78" height="78" viewBox="0 0 78 78" fill="none" xmlns="http://www.w3.org/2000/svg">
<g filter="url(#filter0_d_1237_4396)">
<rect x="15" y="11" width="48" height="48" rx="4" fill="black"/>
<rect width="48" height="48" transform="translate(15 11)" fill="white"/>
<path d="M30.2832 38.4844C30.2832 38.4844 32.7107 46.4131 38.9208 49.3834L44.3211 45.3991L46.6157 42.8463L44.6015 40.3905L39.8768 43.3049L38.3241 45.0323H37.0275L35.7388 44.0686L36.4231 41.4361L30.2832 38.4844Z" fill="#5C3AE2"/>
<path d="M36.1321 41.1211C36.1321 41.1211 27.6603 38.7632 28.4572 30.358C30.3207 19.0452 39.8864 20.4763 39.8864 20.4763L43.806 21.2787L46.9114 23.047L48.2002 25.0142L49.7574 28.8249L50.0391 32.2664L49.5555 35.0294L48.4675 36.2915L48.0649 38.5394L47.5813 41.6715L46.5743 42.3932L44.6001 40.3862L39.6446 44.503L38.3248 45.0268C38.3248 45.0268 37.1469 45.0114 37.026 45.0268C36.9051 45.0423 35.3746 44.503 35.3746 44.503L36.4216 41.4306L36.1321 41.1211Z" fill="#FFC800"/>
<path d="M40.1153 39.251C39.8683 39.1089 39.5762 38.9907 39.3143 39.1029C39.1949 39.154 39.1344 39.2911 39.2008 39.4028C39.4613 39.8411 39.9873 40.131 40.5268 40.1176C41.0823 40.1044 41.5733 39.7718 41.788 39.3855C41.8491 39.2757 41.7859 39.1464 41.67 39.098C41.4004 38.9853 41.1005 39.1127 40.8454 39.2552C40.6165 39.383 40.3526 39.3875 40.1153 39.251Z" fill="#1D1D1D"/>
<path d="M50.5344 29.4701C50.1928 26.8176 49.0504 24.5432 47.1028 22.7052C44.3589 20.1147 41.0793 19.0902 37.3428 19.6196C34.8301 19.9603 32.5145 21.1609 30.7924 23.0158C28.1772 25.7732 27.1003 29.0656 27.7446 32.8033C27.7979 33.1138 27.8622 33.4178 27.9343 33.7151C28.3631 35.7846 28.9946 37.8072 29.8198 39.7538C32.3807 45.8102 35.8976 48.8837 38.3986 50.3956L38.4913 50.4516C38.6267 50.5334 38.7965 50.5341 38.9326 50.4534L39.0264 50.3978C39.1961 50.2972 43.0324 47.9973 46.6314 43.6252L46.6448 43.6407C46.8488 43.4108 47.0396 43.2053 47.2182 42.9909C48.6112 41.3235 49.1657 39.413 48.8818 37.2594C48.8589 37.1145 48.8901 36.9663 48.9694 36.8427C50.3292 34.6387 50.882 32.0339 50.5344 29.4701ZM38.7147 49.1522C34.6676 46.5683 32.2675 42.3918 30.9588 39.3051C30.9122 39.1946 30.8667 39.084 30.8224 38.9735C32.0424 40.1815 33.5763 41.1176 35.4196 41.7873C35.5305 41.8293 35.6503 41.8669 35.7701 41.9078C35.7568 41.9531 35.7501 41.984 35.7379 42.0183C35.4961 42.6273 35.2566 43.234 35.0092 43.8452C34.7619 44.4563 34.9493 45.0609 35.4673 45.3294C36.9368 46.0843 38.8911 45.8489 40.1432 44.7625C40.7909 44.1988 41.4342 43.6285 42.0797 43.0616L44.4266 41.0048C44.8968 41.5574 45.3637 42.1155 45.834 42.6726C43.7975 45.1732 41.398 47.3571 38.7147 49.1522ZM48.3328 35.3098C47.8101 34.1548 46.9965 33.1553 45.9724 32.4077C45.8942 32.3506 45.7844 32.3699 45.7287 32.4489C45.3787 32.945 45.5001 33.6201 45.9306 34.0493C46.9801 35.0956 47.5769 36.3903 47.6762 37.949C47.7616 39.2863 47.4 40.5141 46.6403 41.6503L46.4507 41.4292C42.0826 36.3192 46.5543 41.5496 42.1688 36.4201C42.103 36.3431 41.7903 36.52 41.7184 36.5914C41.2863 37.0204 41.448 37.5485 41.8472 38.0078C42.9163 39.2377 41.4446 37.5446 43.4705 39.8753C43.5082 39.9196 43.5437 39.966 43.5936 40.0279C43.5104 40.103 43.4306 40.176 43.3496 40.2489C42.0143 41.4226 40.6789 42.5952 39.3436 43.7667C38.4951 44.5105 37.152 44.7282 36.2192 44.2651C36.3623 43.9004 36.5021 43.5335 36.6507 43.1688C36.9989 42.309 37.355 41.4524 37.6999 40.5904C37.8993 40.1255 37.985 39.62 37.9499 39.1156C37.9148 38.6112 37.7599 38.1223 37.498 37.6893C37.4652 37.6433 37.4476 37.5882 37.4476 37.5318C37.4476 37.4754 37.4652 37.4203 37.498 37.3743C38.3055 35.9796 39.104 34.5793 39.9125 33.1857C40.0652 32.9066 40.2914 32.6745 40.5668 32.5142C40.8422 32.3539 41.1564 32.2716 41.4753 32.2761C42.0487 32.2618 42.6232 32.2761 43.1966 32.2761C44.7804 32.2761 46.1157 31.0085 46.2255 29.4026C46.271 28.6428 46.0315 27.8931 45.5536 27.2993C45.0756 26.7054 43.9217 26.1893 43.6461 26.1085C43.5024 26.0664 43.3944 26.0233 43.2764 25.9977C43.2066 25.9825 43.1365 26.0196 43.1173 26.088C43.0775 26.2292 43.069 26.4211 43.0752 26.6142C43.0905 27.0862 43.485 27.4154 43.9194 27.6079C44.189 27.7274 44.4283 27.9019 44.6222 28.1727C44.8725 28.5222 44.9888 28.9496 44.9501 29.3772C44.9109 29.7952 44.7247 30.1859 44.4243 30.4802C44.1239 30.7745 43.7287 30.9534 43.3086 30.9853C42.743 31.0195 42.174 31.014 41.6072 31.0029C40.9364 30.98 40.2758 31.1712 39.7218 31.5489C39.6907 31.5699 39.6563 31.5854 39.6053 31.613C39.4001 29.7475 38.5539 28.2676 37.0211 27.1923C36.3523 26.7248 35.5077 26.3838 34.7173 26.2329C34.1228 26.1193 33.6473 26.6206 33.6473 27.2215C33.6473 27.299 33.7023 27.3659 33.779 27.3802C34.2244 27.4628 34.6691 27.5162 35.0891 27.652C37.9616 28.5859 39.1927 31.8274 37.6977 34.4732C37.2304 35.2984 36.7575 36.1207 36.2791 36.94C36.0229 37.3821 36.0385 37.791 36.3268 38.2165C36.7072 38.7779 36.8115 39.3824 36.5265 40.0257C36.4289 40.2467 36.3479 40.4677 36.2536 40.7053C33.0528 39.8765 29.7066 37.0118 28.9857 32.6176C28.1894 27.7692 30.8812 23.4313 34.9338 21.6255C36.9587 20.7349 39.2178 20.5189 41.3757 21.0094C43.5336 21.5 45.4752 22.6711 46.912 24.3486C49.8689 27.83 49.8567 32.3413 48.3328 35.3098Z" fill="#1D1D1D"/>
</g>
<defs>
<filter id="filter0_d_1237_4396" x="0" y="0" width="78" height="78" filterUnits="userSpaceOnUse" color-interpolation-filters="sRGB">
<feFlood flood-opacity="0" result="BackgroundImageFix"/>
<feColorMatrix in="SourceAlpha" type="matrix" values="0 0 0 0 0 0 0 0 0 0 0 0 0 0 0 0 0 0 127 0" result="hardAlpha"/>
<feMorphology radius="5" operator="erode" in="SourceAlpha" result="effect1_dropShadow_1237_4396"/>
<feOffset dy="4"/>
<feGaussianBlur stdDeviation="10"/>
<feComposite in2="hardAlpha" operator="out"/>
<feColorMatrix type="matrix" values="0 0 0 0 0 0 0 0 0 0 0 0 0 0 0 0 0 0 0.12 0"/>
<feBlend mode="normal" in2="BackgroundImageFix" result="effect1_dropShadow_1237_4396"/>
<feBlend mode="normal" in="SourceGraphic" in2="effect1_dropShadow_1237_4396" result="shape"/>
</filter>
</defs>
</svg>
