<svg width="209" height="231" viewBox="0 0 209 231" fill="none" xmlns="http://www.w3.org/2000/svg">
<g clip-path="url(#clip0_1237_4434)">
<path d="M137.116 117.658C147.619 105.309 151.235 90.713 150.922 74.8007C150.421 56.7032 146.1 39.4131 139.908 22.5576C138.092 17.432 136.074 12.4015 134.32 7.1973C133.873 5.82604 133.657 4.00026 134.148 2.73182C134.47 1.83938 136.279 1.48324 137.353 0.92917C137.655 1.67672 138.019 2.34576 138.242 3.03139C138.974 5.00977 139.487 6.94281 140.422 8.82607C143.337 14.8187 146.455 20.7162 149.308 26.7873C151.21 30.8347 152.989 35.0392 154.486 39.2768C155.442 41.9409 155.65 44.9068 156.403 47.6659C157.636 52.0772 159.555 56.265 160.367 60.7261C161.679 67.62 162.93 74.5925 163.12 81.6191C163.445 97.0316 158.73 110.761 148.301 122.531C143.388 127.953 138.851 133.545 132.379 137.229C131.648 137.671 131.174 139.08 131.212 140.001C131.262 149.465 128.432 158.059 123.003 165.749C118.983 171.493 115.057 177.439 109.92 182.176C105.684 186.094 100.096 188.819 94.6939 191.309C89.8989 193.513 84.7235 194.907 79.61 196.224C72.266 197.946 64.8755 197.466 57.7072 195.251C56.6743 194.946 55.6159 193.22 55.4047 192.034C55.0983 190.646 56.3745 189.997 57.7126 189.269C62.0696 186.975 66.6225 188.146 70.9354 188.491C79.2637 189.073 86.632 186.351 93.0658 181.746C104.083 173.752 110.877 162.554 115.147 149.874C117.395 142.986 117.238 142.862 110.294 143.754C101.244 144.894 92.9066 143.031 85.914 136.879C77.8056 129.72 77.4282 118.088 84.7444 110.103C87.0069 107.557 90.0801 107.052 93.0913 106.625C99.9565 105.671 106.48 107.25 112.439 110.676C118.633 114.288 124.253 118.466 127.408 125.284C128.169 126.903 129.214 126.709 130.345 125.436C132.575 122.609 134.916 120.125 137.116 117.658ZM106.853 118.243C104.126 116.856 101.461 115.391 98.7337 114.004C96.9941 113.142 95.9369 113.836 95.0744 115.576C92.4415 121.013 93.7997 127.688 98.3582 131.92C103.326 136.602 109.101 136.063 114.978 134.585C115.462 134.457 115.936 133.048 115.853 132.345C114.797 126.418 111.3 122.132 106.853 118.243ZM149.77 102.421C149.989 102.466 150.208 102.512 150.427 102.557C151.631 98.2849 152.695 94.0295 153.899 89.7575C153.602 89.6502 153.242 89.6215 152.945 89.5142C151.819 93.8481 150.755 98.1036 149.77 102.421ZM118.386 150.772C118.683 150.88 118.902 150.925 119.2 151.032C119.665 148.343 120.114 145.513 120.58 142.823C120.22 142.795 119.923 142.687 119.642 142.721C119.16 145.27 118.773 148.021 118.386 150.772Z" fill="white"/>
<path d="M45.3043 208.395C40.8243 204.225 36.216 199.572 31.1577 195.328C29.4137 193.825 27.2528 193.012 27.8587 190.306C27.9328 189.728 28.1141 188.852 28.5189 188.662C35.1186 185.461 39.7177 179.791 45.4825 175.55C49.2733 172.681 53.5851 170.606 58.5217 170.806C59.5214 170.83 60.4802 171.713 61.4511 172.097C60.9889 173.006 60.7788 174.241 60.0025 174.903C54.6469 179.594 49.2128 184.223 43.6836 188.65C41.9287 190.068 42.3876 190.939 43.7556 192.273C46.8389 195.469 49.7363 198.9 52.7577 202.175C54.0637 203.587 55.6175 204.685 57.1093 205.862C57.2664 205.985 57.4687 205.89 57.6258 206.014C58.5393 207.117 60.5188 208.805 60.2258 209.338C59.4705 210.78 57.9179 212.103 56.4228 212.707C51.6731 214.692 49.0068 210.806 45.3043 208.395Z" fill="white"/>
</g>
<defs>
<clipPath id="clip0_1237_4434">
<rect width="219.9" height="92.7" fill="white" transform="translate(0 172.664) rotate(-51.7376)"/>
</clipPath>
</defs>
</svg>
