<svg width="252" height="382" viewBox="0 0 252 382" fill="none" xmlns="http://www.w3.org/2000/svg">
<g clip-path="url(#clip0_1237_4527)">
<path d="M81.178 247.949C90.8409 254.901 101.428 257.258 112.521 255.84C133.852 253.031 150.584 242.705 161.484 223.963C166.624 215.152 167.985 205.298 165.5 195.292C163.437 186.842 157.869 180.912 150.111 177.286C142.354 173.66 134.136 172.601 126.007 175.18C119.025 177.397 112.445 180.854 107.033 186.102C102.687 190.263 98.4722 194.479 94.6321 199.082C92.3172 201.87 90.638 205.153 88.8284 208.382C84.6423 215.829 80.4942 223.368 75.8456 231.005C75.6413 228.927 75.1595 226.963 75.1782 224.901C75.2676 218.271 77.3307 212.236 80.2312 206.397C87.0141 192.372 97.1231 180.656 107.569 169.235C116.691 159.33 125.683 149.37 132.86 137.886C147.034 115.53 151.925 91.364 147.457 65.2012C144.659 49.1629 138.029 34.5888 131.916 19.6943C129.638 14.1435 127.785 8.31045 125.692 2.68377C125.578 2.40625 125.333 2.07417 124.975 1.46454C124.593 2.3779 124.413 2.99234 124.359 3.12282C123.369 2.55598 122.418 2.08163 121.429 1.51479C120.9 2.59658 119.98 3.51475 119.897 4.6297C119.781 6.19064 120.056 7.91522 120.478 9.47136C121.779 13.6938 123.357 17.8023 124.657 22.0247C126.186 26.8021 127.621 31.6176 129.242 36.3571C129.605 37.5052 130.376 38.594 130.74 39.7421C132.387 45.3356 134.219 50.8532 135.55 56.4681C136.654 61.5279 136.979 66.799 138.121 71.9513C138.954 75.8251 139.026 79.6871 139.005 83.587C138.755 92.9858 137.982 102.166 134.665 111.203C130.135 123.871 123.236 135.242 115.402 145.915C110.667 152.29 104.662 157.673 99.4221 163.607C94.0735 169.802 88.8008 176.181 83.6206 182.523C81.0495 185.74 78.2554 188.94 76.2442 192.468C73.5736 197.023 71.4629 201.889 69.4447 206.716C68.1356 209.848 66.772 213.11 66.2078 216.476C64.8281 224.177 66.397 231.423 71.2632 237.75C72.784 239.612 73.1519 241.298 72.3931 243.663C66.3294 261.285 63.1861 279.438 62.6475 298.143C62.319 309.195 61.9361 320.378 62.6847 331.42C63.5546 345.656 66.5026 359.687 72.5249 372.781C73.4907 374.871 74.8644 376.902 76.2548 378.709C76.874 379.428 78.3424 379.582 79.3483 379.926C79.5996 378.958 80.1285 377.876 79.8793 377.005C79.4948 375.542 78.6099 374.176 77.9099 372.733C77.3997 371.754 76.7425 370.942 76.4174 369.887C72.9977 359.184 71.0796 348.189 70.2931 337.054C68.2874 307.935 71.0785 279.442 80.0587 251.543C80.2341 250.39 80.6705 249.346 81.178 247.949ZM146.171 77.0791C144.815 68.7717 143.498 60.5569 142.142 52.2495C143.739 58.512 144.966 64.9263 146.063 71.2861C146.415 73.1957 146.135 75.1481 146.171 77.0791C147.613 80.5946 146.641 84.0202 145.93 87.5549C146.103 84.025 146.183 80.5331 146.171 77.0791ZM129.637 182.446C130.562 182.066 131.449 181.594 132.412 181.307C147.691 176.658 156.551 187.182 157.902 199.167C158.327 203.1 157.692 206.82 156.741 210.561C155.916 213.818 154.905 217.151 153.335 220.173C149.334 227.544 143.35 233.243 136.371 237.837C126.66 244.2 116.396 248.953 104.495 249.189C97.5323 249.344 91.0393 248.009 85.2079 243.809C83.5069 242.561 83.3668 241.43 84.0759 239.734C89.1604 226.838 95.1416 214.546 103.846 203.624C110.841 194.592 118.944 186.943 129.637 182.446ZM86.0412 228.982C88.785 222.236 91.0069 215.27 96.4197 210.022C92.9475 216.312 89.5133 222.693 86.0412 228.982ZM139.975 44.5993C139.883 44.6373 139.752 44.5827 139.66 44.6207C137.723 39.9026 135.749 35.0919 133.813 30.3738C133.905 30.3358 133.998 30.2979 134.09 30.2599C136.065 35.0706 138.001 39.7887 139.975 44.5993Z" fill="#41576C"/>
</g>
<defs>
<clipPath id="clip0_1237_4527">
<rect width="334.1" height="189.8" fill="white" transform="matrix(-0.379668 -0.925123 -0.925123 0.379668 251.438 309.086)"/>
</clipPath>
</defs>
</svg>
