<svg width="135" height="260" viewBox="0 0 135 260" fill="none" xmlns="http://www.w3.org/2000/svg">
<g clip-path="url(#clip0_1237_4525)">
<path d="M1.6 259.299C2.2 258.899 2.7 258.499 3.3 258.099C2.3 257.199 1.3 258.699 0 257.499C12.2 249.999 22.6 240.499 32.6 230.699C42.7 220.799 52.9 210.899 60.3 198.699C59.8 197.699 59.1 198.099 58.5 198.099C51.3 198.799 44.5 197.399 38.1 194.499C31 191.299 24 187.699 17.3 183.699C8.6 178.399 6.3 172.699 8.3 162.699C11 149.299 21.8 139.599 35.5 138.199C47.9 136.899 58.5 140.699 67 149.799C71.3 154.399 73.2 160.199 74.4 166.199C75.5 171.599 76 177.199 75.8 182.699C75.7 185.799 75.7 185.899 78.6 184.499C86.1 180.899 92.9 176.199 98.6 170.099C105.1 163.199 109.7 155.099 113.6 146.599C120.1 132.699 122.3 117.699 124.5 102.699C126.2 91.2994 127.6 79.7994 128.1 68.2994C128.7 55.3994 127.8 42.5994 126 29.7994C125.1 23.3994 123.6 16.9994 122.6 10.5994C122.1 7.69936 120.6 4.89936 120 1.89936C119.9 1.29936 119.5 0.599356 120.1 0.199356C120.8 -0.300644 121.2 0.399356 121.7 0.899356C122.3 1.49936 123.2 1.79936 123.3 2.69936C123.9 7.99936 127.2 12.2994 128.2 17.3994C129.2 22.6994 130.6 27.9994 131.7 33.2994C132.8 38.5994 133.3 44.0994 133.8 49.4994C135 63.6994 134.6 77.8994 133 92.0994C131.9 101.999 130.8 111.899 128.9 121.699C127.2 130.499 125.2 139.299 121.5 147.699C118.6 154.299 115.5 160.599 111.6 166.599C108.6 171.299 105.2 175.699 100.8 179.299C97.7 181.799 94.7 184.399 91.4 186.599C87.1 189.399 82.8 192.199 77.9 193.499C73.9 194.599 72 197.399 70.8 200.699C68.9 205.599 66.2 209.899 63.1 213.899C54.1 225.699 43.4 236.099 32.2 245.899C26.9 250.499 21.2 254.599 14.7 257.399C10.6 259.099 6.4 260.299 1.6 259.299ZM66.8 175.599C66.9 171.099 66.5 166.699 65.6 162.299C64 154.199 60.4 147.799 51.8 145.499C41.6 142.799 26.2 145.399 19.7 158.299C17.2 163.199 16.1 168.099 16.6 173.499C16.8 175.899 17.9 177.799 20.1 178.999C24.4 181.399 28.8 183.599 32.9 186.199C42.4 192.199 52.5 192.599 63 189.999C64.6 189.599 65.3 188.799 65.7 187.399C66.7 183.499 66.9 179.599 66.8 175.599ZM45.7 221.699C45.8 221.799 45.9 221.899 46.1 222.099C43.2 224.699 40.3 227.399 37.5 229.999C40.2 227.199 43 224.499 45.7 221.699Z" fill="#41576C"/>
</g>
<defs>
<clipPath id="clip0_1237_4525">
<rect width="134.4" height="259.6" fill="white"/>
</clipPath>
</defs>
</svg>
