<svg width="500" height="500" viewBox="0 0 500 500" fill="none" xmlns="http://www.w3.org/2000/svg">
<path d="M85.5902 386.9C175.96 435.33 322.48 435.33 412.85 386.9C503.22 338.47 503.21 259.96 412.85 211.53C322.49 163.1 175.96 163.1 85.5902 211.53C-4.77985 259.96 -4.76984 338.48 85.5902 386.9Z" fill="#F5F5F5"/>
<path d="M115 73.539L108 77.539C108 77.229 108.06 76.919 108.06 76.619V74.619C108.06 71.039 105.54 69.619 102.44 71.379C101.103 72.1956 99.9593 73.2945 99.0905 74.599C98.5805 70.089 95.0905 68.409 90.7505 70.889C86.1105 73.569 82.3405 80.089 82.3405 85.459V88.459C82.3262 89.6832 82.593 90.8943 83.1205 91.999L77.3505 95.329C76.443 95.921 75.6876 96.7183 75.1456 97.6564C74.6035 98.5946 74.29 99.6472 74.2305 100.729C74.2305 102.729 75.6305 103.529 77.3505 102.529L115 80.739C115.909 80.1477 116.664 79.3505 117.206 78.4123C117.749 77.474 118.062 76.4211 118.12 75.339C118.14 73.359 116.74 72.549 115 73.539Z" fill="#EBEBEB"/>
<path d="M144.771 93.8L139.521 96.8C139.536 96.5669 139.536 96.3331 139.521 96.1V94.61C139.521 91.91 137.621 90.81 135.281 92.16C134.275 92.781 133.412 93.6094 132.751 94.59C132.371 91.19 129.701 89.93 126.461 91.8C124.611 93.0031 123.071 94.6267 121.967 96.5384C120.864 98.4501 120.228 100.596 120.111 102.8V105.07C120.092 105.979 120.276 106.881 120.651 107.71L116.291 110.22C115.607 110.668 115.037 111.271 114.629 111.979C114.221 112.688 113.985 113.483 113.941 114.3C113.941 115.8 114.991 116.41 116.291 115.66L144.721 99.24C145.406 98.7943 145.975 98.1934 146.383 97.4862C146.792 96.779 147.028 95.9854 147.071 95.17C147.121 93.66 146.071 93.05 144.771 93.8Z" fill="#EBEBEB"/>
<path d="M425.75 121.07L420.5 124.07C420.515 123.837 420.515 123.603 420.5 123.37V121.85C420.5 119.15 418.6 118.05 416.26 119.41C415.249 120.025 414.385 120.855 413.73 121.84C413.35 118.44 410.73 117.17 407.44 119.04C405.591 120.244 404.053 121.868 402.951 123.78C401.849 125.691 401.215 127.836 401.1 130.04V132.31C401.074 133.219 401.256 134.121 401.63 134.95L397.28 137.46C396.594 137.907 396.023 138.51 395.613 139.218C395.203 139.927 394.966 140.722 394.92 141.54C394.92 143.04 395.98 143.65 397.28 142.9L425.71 126.48C426.394 126.034 426.964 125.433 427.372 124.726C427.78 124.019 428.016 123.225 428.06 122.41C428.1 120.93 427.05 120.32 425.75 121.07Z" fill="#EBEBEB"/>
<path d="M112.349 218.441L34.3594 263.471V267.221L105.849 308.491L183.839 263.471V259.721L112.349 218.441Z" fill="#9691D4"/>
<path opacity="0.15" d="M34.3594 263.473L105.849 304.743V308.493L34.3594 267.223V263.473Z" fill="black"/>
<path opacity="0.1" d="M105.85 304.743L183.84 259.723V263.473L105.85 308.493V304.743Z" fill="black"/>
<path d="M176.9 246.181L173.818 252.254L174.318 252.507L177.4 246.435L176.9 246.181Z" fill="#455A64"/>
<path d="M171.203 245.705L170.727 246L173.732 250.855L174.208 250.56L171.203 245.705Z" fill="#455A64"/>
<path d="M174.539 245.141V259.781C174.537 259.821 174.524 259.86 174.501 259.894C174.478 259.928 174.446 259.954 174.409 259.971C174.308 260.025 174.195 260.053 174.079 260.053C173.964 260.053 173.851 260.025 173.749 259.971C173.71 259.956 173.677 259.93 173.652 259.896C173.627 259.862 173.612 259.822 173.609 259.781V245.141H174.539Z" fill="#455A64"/>
<path d="M185.61 240.593C185.61 241.938 185.211 243.253 184.464 244.371C183.717 245.489 182.655 246.361 181.412 246.875C180.169 247.39 178.802 247.525 177.483 247.262C176.164 247 174.952 246.352 174.001 245.401C173.05 244.45 172.403 243.239 172.14 241.92C171.878 240.601 172.013 239.233 172.527 237.991C173.042 236.748 173.914 235.686 175.032 234.939C176.15 234.192 177.465 233.793 178.81 233.793C180.612 233.796 182.34 234.513 183.615 235.788C184.89 237.062 185.607 238.79 185.61 240.593Z" fill="#9691D4"/>
<path opacity="0.2" d="M180.938 238.851C181.818 236.091 182.748 235.011 182.158 234.671C181.032 234.032 179.747 233.728 178.454 233.794C177.161 233.86 175.914 234.294 174.859 235.045C173.804 235.796 172.985 236.832 172.499 238.032C172.013 239.232 171.88 240.546 172.115 241.819C172.35 243.093 172.944 244.272 173.826 245.22C174.708 246.167 175.843 246.843 177.096 247.168C178.35 247.493 179.67 247.453 180.901 247.053C182.133 246.653 183.225 245.91 184.048 244.911C181.998 245.501 179.798 242.431 180.938 238.851Z" fill="black"/>
<path d="M172.878 242.51C172.878 243.456 172.598 244.38 172.073 245.166C171.548 245.952 170.801 246.565 169.928 246.927C169.054 247.288 168.093 247.383 167.166 247.199C166.239 247.014 165.387 246.559 164.718 245.89C164.05 245.222 163.595 244.37 163.41 243.443C163.226 242.516 163.32 241.555 163.682 240.681C164.044 239.808 164.657 239.061 165.443 238.536C166.229 238.011 167.153 237.73 168.098 237.73C169.366 237.73 170.582 238.234 171.478 239.131C172.375 240.027 172.878 241.243 172.878 242.51Z" fill="#9691D4"/>
<path opacity="0.2" d="M168.099 237.73C167.096 237.73 166.119 238.049 165.309 238.64C165.179 241.55 167.659 244.4 166.959 245.36C166.259 246.32 164.569 245.73 163.959 244.91C164.38 245.636 164.985 246.238 165.712 246.655C166.439 247.073 167.264 247.292 168.102 247.29C168.941 247.289 169.765 247.066 170.49 246.646C171.216 246.225 171.818 245.621 172.236 244.894C172.654 244.167 172.874 243.342 172.873 242.504C172.872 241.665 172.65 240.841 172.23 240.115C171.809 239.39 171.205 238.787 170.479 238.368C169.752 237.95 168.928 237.73 168.089 237.73H168.099Z" fill="black"/>
<path d="M174.079 246.134C178.922 246.134 182.849 242.207 182.849 237.364C182.849 232.52 178.922 228.594 174.079 228.594C169.235 228.594 165.309 232.52 165.309 237.364C165.309 242.207 169.235 246.134 174.079 246.134Z" fill="#9691D4"/>
<path opacity="0.1" d="M182.61 239.36C182.279 240.78 181.599 242.095 180.631 243.187C179.664 244.278 178.44 245.11 177.07 245.609C175.7 246.108 174.227 246.258 172.785 246.044C171.343 245.831 169.976 245.261 168.809 244.387C167.643 243.512 166.712 242.361 166.103 241.036C165.493 239.712 165.223 238.256 165.317 236.801C165.412 235.346 165.867 233.938 166.643 232.703C167.419 231.469 168.49 230.447 169.76 229.73C169.019 230.168 168.345 230.71 167.76 231.34C167.324 233.215 167.517 235.181 168.311 236.935C169.104 238.688 170.452 240.132 172.148 241.043C173.844 241.953 175.792 242.28 177.692 241.972C179.592 241.664 181.338 240.74 182.66 239.34L182.61 239.36Z" fill="black"/>
<path d="M46.963 249.92L43.8809 255.992L44.3802 256.246L47.4624 250.173L46.963 249.92Z" fill="#455A64"/>
<path d="M41.2418 249.436L40.7656 249.73L43.7711 254.585L44.2473 254.291L41.2418 249.436Z" fill="#455A64"/>
<path d="M44.5882 248.871V263.511C44.5842 263.552 44.5691 263.592 44.5444 263.625C44.5198 263.659 44.4865 263.685 44.4482 263.701C44.3453 263.751 44.2325 263.776 44.1182 263.776C44.0039 263.776 43.8911 263.751 43.7882 263.701C43.7511 263.685 43.7193 263.658 43.6964 263.624C43.6734 263.591 43.6602 263.552 43.6582 263.511V248.871H44.5882Z" fill="#455A64"/>
<path d="M55.6586 244.312C55.6586 245.657 55.2598 246.971 54.5126 248.09C53.7654 249.208 52.7034 250.079 51.4608 250.594C50.2183 251.109 48.8511 251.243 47.532 250.981C46.2129 250.719 45.0013 250.071 44.0503 249.12C43.0993 248.169 42.4516 246.957 42.1893 245.638C41.9269 244.319 42.0615 242.952 42.5762 241.709C43.0909 240.467 43.9625 239.405 45.0807 238.658C46.199 237.911 47.5137 237.512 48.8586 237.512C50.6621 237.512 52.3917 238.228 53.6669 239.503C54.9422 240.779 55.6586 242.508 55.6586 244.312Z" fill="#9691D4"/>
<path opacity="0.2" d="M50.9996 242.572C51.8796 239.812 52.8096 238.732 52.2196 238.402C51.2007 237.815 50.0451 237.508 48.8696 237.512C47.7238 237.511 46.5965 237.8 45.5923 238.352C44.5881 238.904 43.7396 239.7 43.1255 240.667C42.5114 241.635 42.1517 242.741 42.0798 243.885C42.0079 245.028 42.2261 246.172 42.7141 247.208C43.2022 248.245 43.9443 249.141 44.8714 249.814C45.7986 250.488 46.8809 250.916 48.0177 251.059C49.1545 251.202 50.309 251.055 51.374 250.633C52.439 250.21 53.38 249.525 54.1096 248.642C52.0896 249.232 49.8496 246.152 50.9996 242.572Z" fill="black"/>
<path d="M42.9291 246.241C42.9291 247.186 42.6488 248.111 42.1236 248.897C41.5983 249.683 40.8518 250.295 39.9784 250.657C39.1049 251.019 38.1438 251.114 37.2166 250.929C36.2894 250.745 35.4377 250.289 34.7692 249.621C34.1007 248.952 33.6454 248.101 33.461 247.173C33.2766 246.246 33.3712 245.285 33.733 244.412C34.0948 243.538 34.7074 242.792 35.4935 242.267C36.2796 241.741 37.2038 241.461 38.1491 241.461C38.7772 241.46 39.3994 241.582 39.9799 241.822C40.5605 242.062 41.0879 242.414 41.5321 242.858C41.9762 243.302 42.3282 243.83 42.568 244.41C42.8077 244.991 42.9305 245.613 42.9291 246.241Z" fill="#9691D4"/>
<path opacity="0.2" d="M38.1498 241.461C37.1478 241.457 36.1707 241.772 35.3598 242.361C35.2298 245.281 37.6998 248.131 37.0098 249.081C36.3198 250.031 34.6098 249.451 34.0098 248.641C34.4309 249.366 35.0355 249.968 35.7628 250.386C36.49 250.804 37.3145 251.023 38.1532 251.021C38.9919 251.019 39.8155 250.797 40.5411 250.376C41.2667 249.956 41.8688 249.351 42.287 248.624C42.7052 247.897 42.9248 247.073 42.9236 246.234C42.9224 245.396 42.7005 244.572 42.2803 243.846C41.8601 243.12 41.2562 242.518 40.5294 242.099C39.8027 241.68 38.9785 241.46 38.1398 241.461H38.1498Z" fill="black"/>
<path d="M44.1196 249.853C48.9631 249.853 52.8896 245.926 52.8896 241.083C52.8896 236.239 48.9631 232.312 44.1196 232.312C39.2761 232.312 35.3496 236.239 35.3496 241.083C35.3496 245.926 39.2761 249.853 44.1196 249.853Z" fill="#9691D4"/>
<path opacity="0.1" d="M52.65 243.093C52.3151 244.509 51.6329 245.819 50.6651 246.905C49.6973 247.991 48.4743 248.819 47.1064 249.314C45.7386 249.809 44.269 249.955 42.8303 249.74C41.3916 249.525 40.0291 248.955 38.8657 248.082C37.7024 247.209 36.7749 246.059 36.167 244.738C35.559 243.416 35.2897 241.964 35.3834 240.512C35.4771 239.061 35.9309 237.655 36.7037 236.423C37.4765 235.19 38.544 234.17 39.81 233.453C39.0534 233.889 38.3631 234.432 37.76 235.063C37.3277 236.936 37.5233 238.898 38.3165 240.649C39.1097 242.399 40.4566 243.84 42.1495 244.75C43.8425 245.66 45.7875 245.987 47.685 245.682C49.5825 245.378 51.3271 244.457 52.65 243.063V243.093Z" fill="black"/>
<path d="M130.049 279.51L140.939 273.23L150.709 278.87L139.829 285.14L130.049 279.51Z" fill="#F0F0F0"/>
<path d="M53.8694 263.473L53.8594 229.703L105.859 259.713V293.493L53.8694 263.473Z" fill="#F0F0F0"/>
<path d="M53.8594 243.103L105.859 273.133V259.713L53.8594 229.703V243.103Z" fill="#E0E0E0"/>
<path d="M164.339 259.711V226.881L144.839 222.191V218.441L105.859 259.711V293.491L164.339 259.711Z" fill="#FAFAFA"/>
<path d="M144.84 218.441V222.191L167.59 227.821V224.071L144.84 218.441Z" fill="#263238"/>
<path d="M115.61 194.052L167.59 224.072L144.84 218.442L92.8496 188.422L115.61 194.052Z" fill="#37474F"/>
<path d="M102.6 265.361L144.85 218.441V214.691L99.3496 267.221L102.6 265.361Z" fill="#37474F"/>
<path d="M92.8594 184.672L144.849 214.692L99.4294 267.272L47.3594 237.202L92.8594 184.672Z" fill="#455A64"/>
<path d="M76.5488 233.312L83.0988 237.092V246.583L76.5488 242.833V233.312Z" fill="#263238"/>
<path d="M83.0996 237.092L89.6396 233.312V239.083L83.0996 246.583V237.092Z" fill="#37474F"/>
<path d="M83.0991 226.883L75.8691 231.053V232.943L83.0991 237.093L90.3191 232.943V231.053L83.0991 226.883Z" fill="#F5F5F5"/>
<path d="M75.8691 232.941L83.0991 237.091V235.201L75.8691 231.051V232.941Z" fill="#E0E0E0"/>
<path d="M90.3196 232.941L83.0996 237.091V235.201L90.3196 231.051V232.941Z" fill="#EBEBEB"/>
<path d="M78.2988 231.051L83.0988 228.281L87.8988 231.051L83.0988 233.811L78.2988 231.051Z" fill="#9691D4"/>
<path d="M83.0988 228.281V233.811L78.2988 231.051L83.0988 228.281Z" fill="#37474F"/>
<path d="M83.0996 228.281L87.8996 231.051L83.0996 233.811V228.281Z" fill="#263238"/>
<path d="M110.068 268.542L124.698 260.102V271.362L110.068 279.802V268.542Z" fill="#455A64"/>
<path d="M124.048 270.98V260.48L110.068 268.54V279.05L124.048 270.98Z" fill="#E0E0E0"/>
<path d="M124.698 271.36L124.048 270.98L110.068 279.05V279.8L124.698 271.36Z" fill="#37474F"/>
<path d="M110.068 274.173L124.698 265.733V264.973L110.068 273.413V274.173Z" fill="#455A64"/>
<path d="M145.818 247.893L160.438 239.453V250.713L145.818 259.153V247.893Z" fill="#455A64"/>
<path d="M159.788 250.332V239.832L145.818 247.892V258.402L159.788 250.332Z" fill="#E0E0E0"/>
<path d="M160.438 250.712L159.788 250.332L145.818 258.402V259.152L160.438 250.712Z" fill="#37474F"/>
<path d="M145.818 253.52L160.438 245.08V244.32L145.818 252.77V253.52Z" fill="#455A64"/>
<path d="M130.049 279.513V257.003L140.939 250.723V273.233L130.049 279.513Z" fill="#37474F"/>
<path d="M140.559 272.941V250.941L130.049 257.001V279.001L140.559 272.941Z" fill="#455A64"/>
<path d="M140.939 250.723L140.559 250.943V272.943L140.939 273.233V250.723Z" fill="#263238"/>
<path d="M93.9896 264.133L86.3496 259.723V270.973L93.9896 275.383V264.133Z" fill="#455A64"/>
<path d="M87 270.594V260.094L93.99 264.134V274.634L87 270.594Z" fill="#FAFAFA"/>
<path d="M86.3496 270.974L86.9996 270.594L93.9896 274.634V275.384L86.3496 270.974Z" fill="#37474F"/>
<path d="M93.9896 269.722L86.3496 265.342V264.582L93.9896 268.962V269.722Z" fill="#455A64"/>
<path d="M87 260.094L93.99 264.134V266.304L87 262.294V260.094Z" fill="#F5F5F5"/>
<path d="M71.2396 250.992L63.5996 246.582V257.842L71.2396 262.252V250.992Z" fill="#455A64"/>
<path d="M64.2598 257.461V246.961L71.2398 250.991V261.491L64.2598 257.461Z" fill="#FAFAFA"/>
<path d="M63.5996 257.841L64.2596 257.461L71.2396 261.491V262.251L63.5996 257.841Z" fill="#37474F"/>
<path d="M71.2396 256.581L63.5996 252.201V251.441L71.2396 255.821V256.581Z" fill="#455A64"/>
<path d="M64.2598 246.961L71.2398 250.991V253.071L64.2598 249.071V246.961Z" fill="#F5F5F5"/>
<path d="M382.859 215.164L304.869 260.194V263.944L382.859 308.974L460.859 263.944V260.194L382.859 215.164Z" fill="#9691D4"/>
<path opacity="0.15" d="M304.869 260.191L382.869 305.221L382.859 308.971L304.869 263.941V260.191Z" fill="black"/>
<path opacity="0.1" d="M382.869 305.221L460.859 260.191V263.941L382.859 308.971L382.869 305.221Z" fill="black"/>
<path d="M454.135 246.775L451.053 252.848L451.552 253.101L454.634 247.029L454.135 246.775Z" fill="#455A64"/>
<path d="M449.222 244.59L448.746 244.887L451.772 249.74L452.248 249.443L449.222 244.59Z" fill="#455A64"/>
<path d="M451.789 245.742V260.382C451.787 260.423 451.774 260.462 451.751 260.496C451.728 260.529 451.696 260.556 451.659 260.572C451.558 260.626 451.445 260.655 451.329 260.655C451.214 260.655 451.101 260.626 450.999 260.572C450.961 260.556 450.928 260.53 450.903 260.497C450.879 260.463 450.863 260.424 450.859 260.382V245.742H451.789Z" fill="#455A64"/>
<path d="M462.86 241.191C462.86 242.536 462.461 243.85 461.714 244.969C460.967 246.087 459.905 246.958 458.662 247.473C457.419 247.988 456.052 248.122 454.733 247.86C453.414 247.598 452.202 246.95 451.251 245.999C450.3 245.048 449.653 243.836 449.39 242.517C449.128 241.198 449.263 239.831 449.777 238.588C450.292 237.346 451.164 236.284 452.282 235.537C453.4 234.789 454.715 234.391 456.06 234.391C457.863 234.391 459.593 235.107 460.868 236.382C462.143 237.658 462.86 239.387 462.86 241.191Z" fill="#9691D4"/>
<path opacity="0.2" d="M458.189 239.453C459.069 236.693 460.009 235.613 459.409 235.273C458.283 234.635 456.997 234.332 455.705 234.4C454.412 234.468 453.165 234.903 452.111 235.655C451.057 236.406 450.24 237.444 449.755 238.644C449.27 239.844 449.138 241.158 449.374 242.431C449.61 243.704 450.205 244.883 451.088 245.83C451.971 246.776 453.106 247.451 454.36 247.775C455.613 248.098 456.933 248.057 458.164 247.657C459.395 247.256 460.486 246.512 461.309 245.513C459.289 246.103 457.059 243.003 458.189 239.453Z" fill="black"/>
<path d="M450.128 243.112C450.128 244.057 449.848 244.982 449.323 245.768C448.798 246.554 448.051 247.166 447.178 247.528C446.304 247.89 445.343 247.985 444.416 247.8C443.489 247.616 442.637 247.16 441.968 246.492C441.3 245.824 440.845 244.972 440.66 244.045C440.476 243.117 440.57 242.156 440.932 241.283C441.294 240.409 441.907 239.663 442.693 239.138C443.479 238.612 444.403 238.332 445.348 238.332C446.616 238.332 447.832 238.836 448.728 239.732C449.625 240.628 450.128 241.844 450.128 243.112Z" fill="#9691D4"/>
<path opacity="0.2" d="M445.349 238.332C444.346 238.333 443.369 238.652 442.559 239.242C442.429 242.152 444.909 245.002 444.219 245.962C443.529 246.922 441.819 246.332 441.219 245.512C441.64 246.237 442.244 246.839 442.972 247.257C443.699 247.675 444.523 247.894 445.362 247.892C446.201 247.89 447.024 247.668 447.75 247.247C448.476 246.827 449.078 246.222 449.496 245.495C449.914 244.768 450.134 243.944 450.133 243.105C450.131 242.267 449.91 241.443 449.489 240.717C449.069 239.991 448.465 239.389 447.738 238.97C447.012 238.551 446.187 238.331 445.349 238.332Z" fill="black"/>
<path d="M451.329 246.731C456.172 246.731 460.099 242.805 460.099 237.961C460.099 233.118 456.172 229.191 451.329 229.191C446.485 229.191 442.559 233.118 442.559 237.961C442.559 242.805 446.485 246.731 451.329 246.731Z" fill="#9691D4"/>
<path opacity="0.1" d="M459.859 240.002C459.52 241.417 458.834 242.725 457.864 243.808C456.893 244.892 455.669 245.717 454.3 246.21C452.931 246.702 451.461 246.847 450.023 246.63C448.584 246.413 447.222 245.841 446.06 244.967C444.897 244.093 443.97 242.943 443.363 241.621C442.755 240.3 442.485 238.848 442.579 237.396C442.672 235.944 443.124 234.539 443.896 233.305C444.668 232.072 445.734 231.051 446.999 230.332C446.235 230.762 445.541 231.305 444.939 231.942C444.503 233.817 444.697 235.783 445.49 237.536C446.283 239.29 447.632 240.734 449.327 241.644C451.023 242.555 452.972 242.881 454.871 242.574C456.771 242.266 458.517 241.341 459.839 239.942L459.859 240.002Z" fill="black"/>
<path d="M317.447 246.455L314.365 252.527L314.865 252.781L317.947 246.708L317.447 246.455Z" fill="#455A64"/>
<path d="M312.57 244.758L312.094 245.055L315.12 249.908L315.596 249.611L312.57 244.758Z" fill="#455A64"/>
<path d="M315.098 245.422V260.062C315.093 260.103 315.077 260.142 315.053 260.175C315.028 260.209 314.996 260.235 314.958 260.252C314.855 260.301 314.742 260.327 314.628 260.327C314.514 260.327 314.401 260.301 314.298 260.252C314.263 260.233 314.232 260.206 314.21 260.173C314.187 260.14 314.173 260.102 314.168 260.062V245.422H315.098Z" fill="#455A64"/>
<path d="M326.168 240.863C326.168 242.207 325.77 243.522 325.022 244.64C324.275 245.759 323.213 246.63 321.971 247.145C320.728 247.66 319.361 247.794 318.042 247.532C316.723 247.269 315.511 246.622 314.56 245.671C313.609 244.72 312.961 243.508 312.699 242.189C312.437 240.87 312.571 239.503 313.086 238.26C313.601 237.018 314.472 235.956 315.591 235.209C316.709 234.461 318.023 234.062 319.368 234.062C321.171 234.065 322.899 234.782 324.174 236.057C325.448 237.332 326.166 239.06 326.168 240.863Z" fill="#9691D4"/>
<path opacity="0.2" d="M321.499 239.121C322.379 236.361 323.309 235.281 322.719 234.941C321.593 234.304 320.308 234.001 319.016 234.068C317.724 234.135 316.477 234.569 315.423 235.32C314.369 236.071 313.551 237.107 313.066 238.306C312.58 239.506 312.446 240.819 312.681 242.092C312.916 243.364 313.509 244.544 314.39 245.491C315.272 246.438 316.406 247.114 317.658 247.44C318.911 247.765 320.23 247.727 321.461 247.329C322.693 246.93 323.785 246.189 324.609 245.191C322.599 245.771 320.359 242.701 321.499 239.121Z" fill="black"/>
<path d="M313.439 242.782C313.441 243.728 313.162 244.653 312.638 245.44C312.114 246.227 311.368 246.842 310.495 247.205C309.622 247.568 308.66 247.664 307.733 247.481C306.805 247.298 305.952 246.843 305.282 246.175C304.613 245.507 304.157 244.655 303.971 243.728C303.786 242.8 303.88 241.839 304.242 240.965C304.603 240.091 305.216 239.344 306.002 238.818C306.789 238.292 307.713 238.012 308.659 238.012C309.925 238.012 311.139 238.514 312.035 239.408C312.931 240.302 313.436 241.516 313.439 242.782Z" fill="#9691D4"/>
<path opacity="0.2" d="M308.66 238.004C307.658 238 306.68 238.315 305.87 238.904C305.74 241.824 308.22 244.664 307.52 245.624C306.82 246.584 305.12 245.994 304.52 245.184C304.941 245.909 305.545 246.511 306.273 246.929C307 247.347 307.824 247.566 308.663 247.564C309.502 247.562 310.325 247.34 311.051 246.919C311.776 246.499 312.379 245.894 312.797 245.167C313.215 244.44 313.435 243.616 313.433 242.777C313.432 241.938 313.21 241.115 312.79 240.389C312.37 239.663 311.766 239.061 311.039 238.642C310.312 238.223 309.488 238.003 308.65 238.004H308.66Z" fill="black"/>
<path d="M314.629 246.403C319.473 246.403 323.399 242.477 323.399 237.633C323.399 232.79 319.473 228.863 314.629 228.863C309.786 228.863 305.859 232.79 305.859 237.633C305.859 242.477 309.786 246.403 314.629 246.403Z" fill="#9691D4"/>
<path opacity="0.1" d="M323.17 239.644C322.837 241.063 322.155 242.376 321.187 243.466C320.219 244.555 318.995 245.386 317.625 245.884C316.255 246.381 314.783 246.53 313.341 246.315C311.9 246.101 310.534 245.531 309.368 244.656C308.203 243.781 307.273 242.63 306.664 241.306C306.055 239.982 305.785 238.527 305.88 237.073C305.974 235.618 306.43 234.21 307.205 232.976C307.98 231.742 309.05 230.72 310.32 230.004C309.561 230.437 308.87 230.979 308.269 231.614C307.842 233.486 308.042 235.447 308.837 237.196C309.632 238.944 310.979 240.383 312.671 241.291C314.363 242.2 316.307 242.528 318.204 242.225C320.1 241.922 321.845 241.004 323.17 239.614V239.644Z" fill="black"/>
<path d="M398.568 195.582L405.108 199.362V206.922L398.568 203.142V195.582Z" fill="#E0E0E0"/>
<path d="M405.109 199.362L411.659 195.582V210.692L405.109 206.922V199.362Z" fill="#F0F0F0"/>
<path d="M405.109 189.152L397.889 193.312V195.202L405.109 199.362L412.339 195.202V193.312L405.109 189.152Z" fill="#455A64"/>
<path d="M397.889 195.202L405.109 199.363V197.473L397.889 193.312V195.202Z" fill="#37474F"/>
<path d="M412.339 195.202L405.109 199.363V197.473L412.339 193.312V195.202Z" fill="#263238"/>
<path d="M400.309 193.311L405.109 190.551L409.919 193.311L405.109 196.081L400.309 193.311Z" fill="#9691D4"/>
<path d="M405.109 190.551V196.081L400.309 193.311L405.109 190.551Z" fill="#37474F"/>
<path d="M405.109 190.551L409.919 193.311L405.109 196.081V190.551Z" fill="#263238"/>
<path d="M382.869 271.454L382.859 237.684L402.329 248.934V282.704L382.869 271.454Z" fill="#F0F0F0"/>
<path d="M382.859 237.684L402.329 248.934V262.384L382.859 251.154V237.684Z" fill="#E0E0E0"/>
<path d="M441.358 260.194V226.424L421.818 215.164L402.328 248.934V282.704L441.358 260.194Z" fill="#FAFAFA"/>
<path d="M399.109 254.564L421.819 215.164V211.414L395.859 256.444L399.109 254.564Z" fill="#37474F"/>
<path d="M382.859 188.902L421.819 211.412L395.859 256.442L382.869 248.932L382.859 188.902Z" fill="#455A64"/>
<path d="M421.818 215.164L444.608 228.294L447.858 226.424L421.818 211.414V215.164Z" fill="#263238"/>
<path d="M429.969 244.954L437.609 240.574V251.834L429.969 256.214V244.954Z" fill="#455A64"/>
<path d="M436.959 251.453V240.953L429.969 244.953V255.453L436.959 251.453Z" fill="#E0E0E0"/>
<path d="M437.609 251.833L436.959 251.453L429.969 255.453V256.213L437.609 251.833Z" fill="#37474F"/>
<path d="M429.969 250.581L437.609 246.201V245.441L429.969 249.821V250.581Z" fill="#455A64"/>
<path d="M405.988 258.782L413.628 254.402V265.652L405.988 270.042V258.782Z" fill="#455A64"/>
<path d="M412.978 265.283V254.773L405.988 258.783V269.283L412.978 265.283Z" fill="#E0E0E0"/>
<path d="M413.628 265.651L412.978 265.281L405.988 269.281V270.041L413.628 265.651Z" fill="#37474F"/>
<path d="M405.988 264.413L413.628 260.033V259.273L405.988 263.653V264.413Z" fill="#455A64"/>
<path d="M416.949 232.052L426.699 226.422V234.862L416.949 240.492V232.052Z" fill="#455A64"/>
<path d="M426.049 234.483V226.793L416.949 232.053V239.743L426.049 234.483Z" fill="#E0E0E0"/>
<path d="M426.699 234.86L426.049 234.48L416.949 239.74V240.49L426.699 234.86Z" fill="#37474F"/>
<path d="M444.609 228.292H441.359V226.422L444.609 228.292Z" fill="black"/>
<path d="M416.379 274.583V252.073L427.269 245.793V268.303L416.379 274.583Z" fill="#37474F"/>
<path d="M426.889 268.012V246.012L416.379 252.072V274.072L426.889 268.012Z" fill="#455A64"/>
<path d="M427.269 245.793L426.889 246.013V268.013L427.269 268.303V245.793Z" fill="#263238"/>
<path d="M382.858 271.454V237.684L363.398 248.934V282.704L382.858 271.454Z" fill="#FAFAFA"/>
<path d="M382.858 237.684L363.398 248.934V262.384L382.868 251.154L382.858 237.684Z" fill="#F5F5F5"/>
<path d="M324.369 260.194V226.424L343.899 215.164L363.399 248.934V282.704L324.369 260.194Z" fill="#EBEBEB"/>
<path d="M366.618 254.564L343.898 215.164V211.414L369.868 256.444L366.618 254.564Z" fill="#455A64"/>
<path d="M382.858 188.902L343.898 211.412L369.868 256.442L382.858 248.932V188.902Z" fill="#37474F"/>
<path d="M343.899 215.164L321.119 228.294L317.869 226.424L343.899 211.414V215.164Z" fill="#263238"/>
<path d="M338.509 245.814L330.869 241.434V252.694L338.509 257.064V245.814Z" fill="#455A64"/>
<path d="M331.52 252.311V241.801L338.51 245.811V256.311L331.52 252.311Z" fill="#FAFAFA"/>
<path d="M331.52 241.801L338.51 245.841V247.231L331.52 243.221V241.801Z" fill="#F5F5F5"/>
<path d="M349.879 252.402L356.869 256.442V257.832L349.879 253.822V252.402Z" fill="#F5F5F5"/>
<path d="M330.869 252.693L331.519 252.312L338.509 256.312V257.062L330.869 252.693Z" fill="#37474F"/>
<path d="M338.509 251.441L330.869 247.061V246.301L338.509 250.681V251.441Z" fill="#455A64"/>
<path d="M348.779 232.052L339.029 226.422V234.862L348.779 240.492V232.052Z" fill="#455A64"/>
<path d="M339.68 234.483V226.793L348.78 232.053V239.743L339.68 234.483Z" fill="#FAFAFA"/>
<path d="M339.68 226.793L348.78 232.053V233.443L339.68 228.223V226.793Z" fill="#F5F5F5"/>
<path d="M339.029 234.86L339.679 234.48L348.779 239.74V240.49L339.029 234.86Z" fill="#37474F"/>
<path d="M321.119 228.292H324.369V226.422L321.119 228.292Z" fill="black"/>
<path d="M356.868 256.441L349.229 252.031V263.281L356.868 267.691V256.441Z" fill="#455A64"/>
<path d="M349.879 262.902V252.402L356.869 256.442V266.942L349.879 262.902Z" fill="#FAFAFA"/>
<path d="M349.229 263.282L349.879 262.902L356.868 266.942V267.692L349.229 263.282Z" fill="#37474F"/>
<path d="M356.868 262.031L349.229 257.651V256.891L356.868 261.271V262.031Z" fill="#455A64"/>
<path d="M349.879 252.402L356.869 256.442V257.832L349.879 253.822V252.402Z" fill="#F5F5F5"/>
<path d="M395.86 256.441L386.1 250.801V261.181L395.86 266.811V256.441Z" fill="#263238"/>
<path d="M386.699 260.832V251.152L395.859 256.442V266.122L386.699 260.832Z" fill="#FAFAFA"/>
<path d="M386.699 251.152V253.402L395.859 258.702V256.442L386.699 251.152Z" fill="#F0F0F0"/>
<path d="M386.1 261.182L386.7 260.832L395.86 266.122V266.812L386.1 261.182Z" fill="#37474F"/>
<path d="M386.1 255.991L386.7 255.641L395.86 260.931V261.631L386.1 255.991Z" fill="#37474F"/>
<path d="M390.779 263.884L391.379 264.224V253.854L390.779 253.504V263.884Z" fill="#37474F"/>
<path d="M376.189 279.004L377.919 278.004C378.395 275.192 378.466 272.326 378.129 269.494C377.259 263.974 373.489 262.064 372.129 262.614C370.769 263.164 370.449 264.804 372.919 267.994C375.152 271.223 376.297 275.08 376.189 279.004Z" fill="#9691D4"/>
<g opacity="0.2">
<path opacity="0.2" d="M376.189 279.004L377.919 278.004C378.395 275.192 378.466 272.326 378.129 269.494C377.259 263.974 373.489 262.064 372.129 262.614C370.769 263.164 370.449 264.804 372.919 267.994C375.152 271.223 376.297 275.08 376.189 279.004Z" fill="black"/>
</g>
<path d="M376.82 276.842C376.803 276.841 376.787 276.837 376.772 276.829C376.757 276.821 376.744 276.81 376.734 276.797C376.723 276.784 376.716 276.768 376.712 276.752C376.708 276.736 376.707 276.719 376.71 276.702C377.43 271.532 375.35 265.862 373.01 263.572C372.987 263.55 372.975 263.519 372.975 263.487C372.975 263.455 372.987 263.425 373.01 263.402C373.032 263.38 373.063 263.367 373.095 263.367C373.127 263.367 373.157 263.38 373.18 263.402C375.56 265.722 377.68 271.482 376.96 276.742C376.957 276.758 376.952 276.773 376.943 276.787C376.935 276.801 376.924 276.813 376.911 276.822C376.898 276.831 376.883 276.838 376.867 276.841C376.852 276.845 376.836 276.845 376.82 276.842Z" fill="white"/>
<path d="M371.389 281.814C371.109 281.974 370.549 281.634 370.329 281.484C369.961 281.231 369.665 280.886 369.469 280.484C369.247 280.032 369.17 279.522 369.249 279.024C369.292 278.761 369.353 278.5 369.429 278.244C369.509 277.984 369.579 277.734 369.649 277.484C369.74 277.238 369.777 276.976 369.759 276.714C369.691 276.463 369.572 276.228 369.411 276.023C369.249 275.819 369.048 275.649 368.819 275.524C368.562 275.376 368.343 275.169 368.18 274.921C368.017 274.672 367.914 274.389 367.879 274.094C367.912 273.609 368.105 273.148 368.429 272.784C368.729 272.404 369.079 272.074 369.349 271.674C369.533 271.459 369.643 271.189 369.661 270.906C369.679 270.623 369.604 270.342 369.449 270.104C369.196 269.716 368.975 269.308 368.789 268.884C368.698 268.672 368.669 268.437 368.707 268.209C368.744 267.981 368.845 267.767 368.999 267.594C369.15 267.481 369.323 267.398 369.507 267.352C369.69 267.306 369.882 267.296 370.069 267.324C370.424 267.365 370.766 267.485 371.069 267.674C372.069 268.224 372.629 269.404 373.679 269.824C374.095 269.957 374.519 270.061 374.949 270.134C375.165 270.173 375.371 270.257 375.552 270.381C375.733 270.505 375.885 270.666 375.999 270.854C376.389 271.624 375.669 272.574 375.939 273.394C376.209 274.214 376.889 274.394 377.279 275.054C377.446 275.337 377.513 275.669 377.469 275.994C377.434 276.551 377.298 277.096 377.069 277.604C376.808 278.103 376.514 278.584 376.189 279.044L371.389 281.814Z" fill="#9691D4"/>
<g opacity="0.1">
<path opacity="0.1" d="M371.389 281.814C371.109 281.974 370.549 281.634 370.329 281.484C369.961 281.231 369.665 280.886 369.469 280.484C369.247 280.032 369.17 279.522 369.249 279.024C369.292 278.761 369.353 278.5 369.429 278.244C369.509 277.984 369.579 277.734 369.649 277.484C369.74 277.238 369.777 276.976 369.759 276.714C369.691 276.463 369.572 276.228 369.411 276.023C369.249 275.819 369.048 275.649 368.819 275.524C368.562 275.376 368.343 275.169 368.18 274.921C368.017 274.672 367.914 274.389 367.879 274.094C367.912 273.609 368.105 273.148 368.429 272.784C368.729 272.404 369.079 272.074 369.349 271.674C369.533 271.459 369.643 271.189 369.661 270.906C369.679 270.623 369.604 270.342 369.449 270.104C369.196 269.716 368.975 269.308 368.789 268.884C368.698 268.672 368.669 268.437 368.707 268.209C368.744 267.981 368.845 267.767 368.999 267.594C369.15 267.481 369.323 267.398 369.507 267.352C369.69 267.306 369.882 267.296 370.069 267.324C370.424 267.365 370.766 267.485 371.069 267.674C372.069 268.224 372.629 269.404 373.679 269.824C374.095 269.957 374.519 270.061 374.949 270.134C375.165 270.173 375.371 270.257 375.552 270.381C375.733 270.505 375.885 270.666 375.999 270.854C376.389 271.624 375.669 272.574 375.939 273.394C376.209 274.214 376.889 274.394 377.279 275.054C377.446 275.337 377.513 275.669 377.469 275.994C377.434 276.551 377.298 277.096 377.069 277.604C376.808 278.103 376.514 278.584 376.189 279.044L371.389 281.814Z" fill="black"/>
</g>
<path d="M374.199 280.325C374.167 280.321 374.137 280.305 374.115 280.282C374.094 280.258 374.081 280.228 374.079 280.195C374.289 275.295 371.979 269.885 370.299 268.315C370.287 268.304 370.277 268.291 370.271 268.276C370.264 268.261 370.26 268.245 370.26 268.229C370.259 268.213 370.262 268.196 370.268 268.181C370.274 268.166 370.282 268.152 370.294 268.14C370.305 268.129 370.318 268.119 370.333 268.112C370.348 268.106 370.364 268.102 370.38 268.102C370.396 268.101 370.412 268.104 370.428 268.11C370.443 268.115 370.457 268.124 370.469 268.135C372.179 269.735 374.539 275.235 374.329 280.205C374.326 280.238 374.311 280.269 374.287 280.291C374.263 280.313 374.231 280.325 374.199 280.325Z" fill="white"/>
<path d="M373.46 274.535C372.297 274.219 371.103 274.028 369.9 273.965C369.883 273.965 369.867 273.962 369.851 273.955C369.836 273.948 369.822 273.938 369.811 273.926C369.8 273.914 369.791 273.9 369.786 273.884C369.78 273.868 369.778 273.851 369.78 273.835C369.782 273.802 369.797 273.772 369.821 273.749C369.845 273.727 369.877 273.715 369.91 273.715C371.134 273.779 372.348 273.976 373.53 274.305C373.545 274.309 373.559 274.317 373.571 274.327C373.583 274.337 373.593 274.349 373.601 274.363C373.608 274.377 373.613 274.392 373.614 274.408C373.616 274.424 373.614 274.44 373.61 274.455C373.598 274.484 373.577 274.508 373.55 274.523C373.522 274.537 373.49 274.542 373.46 274.535Z" fill="white"/>
<path d="M416.379 274.581L427.269 268.301L437.039 273.941L426.149 280.211L416.379 274.581Z" fill="#F0F0F0"/>
<path d="M240.279 290.902L145.219 345.782V350.002L243.929 406.992L338.979 352.112V347.892L240.279 290.902Z" fill="#9691D4"/>
<path d="M284.148 366.894L295.048 373.264L313.358 362.694L302.428 356.344L284.148 366.894Z" fill="#F0F0F0"/>
<path opacity="0.15" d="M145.219 345.781L243.929 402.771V406.991L145.219 350.001V345.781Z" fill="black"/>
<path opacity="0.1" d="M243.93 402.771L338.98 347.891V352.111L243.93 406.991V402.771Z" fill="black"/>
<path d="M328.299 329.204L324.062 337.551L324.749 337.899L328.985 329.553L328.299 329.204Z" fill="#263238"/>
<path d="M320.427 328.494L319.781 328.895L323.913 335.569L324.559 335.169L320.427 328.494Z" fill="#263238"/>
<path d="M324.999 327.723V347.833C324.993 347.889 324.972 347.943 324.939 347.988C324.905 348.034 324.861 348.07 324.809 348.093C324.668 348.165 324.512 348.202 324.354 348.202C324.196 348.202 324.04 348.165 323.899 348.093C323.848 348.069 323.805 348.033 323.773 347.987C323.741 347.942 323.723 347.888 323.719 347.833V327.723H324.999Z" fill="#263238"/>
<path d="M330.889 330.801C336.047 330.801 340.229 326.619 340.229 321.461C340.229 316.303 336.047 312.121 330.889 312.121C325.731 312.121 321.549 316.303 321.549 321.461C321.549 326.619 325.731 330.801 330.889 330.801Z" fill="#455A64"/>
<path d="M333.82 319.083C335.02 315.283 336.309 313.803 335.489 313.343C333.943 312.466 332.178 312.049 330.402 312.141C328.626 312.233 326.914 312.83 325.466 313.862C324.018 314.893 322.894 316.317 322.227 317.965C321.56 319.613 321.377 321.418 321.7 323.166C322.024 324.915 322.839 326.534 324.051 327.835C325.263 329.136 326.821 330.064 328.542 330.51C330.263 330.956 332.076 330.902 333.767 330.353C335.458 329.804 336.958 328.784 338.089 327.413C335.329 328.213 332.26 324.003 333.82 319.083Z" fill="#37474F"/>
<path d="M316.179 330.671C319.802 330.671 322.739 327.734 322.739 324.111C322.739 320.488 319.802 317.551 316.179 317.551C312.556 317.551 309.619 320.488 309.619 324.111C309.619 327.734 312.556 330.671 316.179 330.671Z" fill="#455A64"/>
<path d="M316.18 317.543C314.801 317.541 313.457 317.975 312.34 318.783C312.17 322.783 315.57 326.703 314.62 328.023C313.67 329.343 311.32 328.523 310.51 327.413C311.09 328.406 311.921 329.228 312.919 329.799C313.917 330.369 315.048 330.667 316.198 330.663C317.348 330.659 318.476 330.352 319.47 329.774C320.464 329.197 321.289 328.368 321.862 327.371C322.434 326.374 322.735 325.244 322.733 324.094C322.732 322.944 322.428 321.815 321.853 320.82C321.277 319.824 320.45 318.997 319.454 318.422C318.459 317.847 317.33 317.544 316.18 317.543Z" fill="#37474F"/>
<path d="M336.094 319.778C337.622 313.307 333.614 306.822 327.142 305.294C320.67 303.767 314.186 307.775 312.658 314.247C311.131 320.718 315.139 327.203 321.611 328.731C328.082 330.258 334.567 326.25 336.094 319.778Z" fill="#455A64"/>
<path d="M336.108 319.781C335.64 321.711 334.7 323.494 333.372 324.971C332.045 326.448 330.371 327.573 328.502 328.244C326.633 328.915 324.627 329.111 322.663 328.816C320.699 328.521 318.839 327.743 317.25 326.552C315.661 325.36 314.392 323.793 313.558 321.991C312.723 320.189 312.349 318.208 312.469 316.226C312.589 314.243 313.199 312.322 314.244 310.633C315.289 308.945 316.738 307.542 318.458 306.551C317.416 307.146 316.466 307.89 315.639 308.761C315.429 309.663 315.322 310.585 315.319 311.511C315.298 313.93 316.01 316.299 317.359 318.307C318.709 320.315 320.635 321.868 322.883 322.762C325.131 323.657 327.597 323.85 329.957 323.318C332.317 322.786 334.461 321.553 336.108 319.781Z" fill="#37474F"/>
<path d="M163.887 326.818L159.65 335.164L160.337 335.513L164.573 327.166L163.887 326.818Z" fill="#263238"/>
<path d="M156.037 326.155L155.391 326.555L159.523 333.229L160.169 332.829L156.037 326.155Z" fill="#263238"/>
<path d="M160.63 325.371V345.481C160.626 345.537 160.607 345.59 160.575 345.636C160.544 345.682 160.5 345.718 160.45 345.741C160.309 345.813 160.153 345.851 159.995 345.851C159.836 345.851 159.68 345.813 159.54 345.741C159.488 345.718 159.443 345.682 159.41 345.637C159.376 345.591 159.355 345.537 159.35 345.481V325.371H160.63Z" fill="#263238"/>
<path d="M166.498 328.461C171.657 328.461 175.838 324.28 175.838 319.121C175.838 313.963 171.657 309.781 166.498 309.781C161.34 309.781 157.158 313.963 157.158 319.121C157.158 324.28 161.34 328.461 166.498 328.461Z" fill="#455A64"/>
<path d="M169.429 316.731C170.629 312.931 171.909 311.451 171.099 310.991C169.552 310.115 167.787 309.698 166.011 309.79C164.236 309.882 162.523 310.479 161.075 311.51C159.627 312.542 158.503 313.965 157.836 315.614C157.169 317.262 156.987 319.066 157.31 320.815C157.633 322.563 158.448 324.183 159.66 325.484C160.872 326.785 162.43 327.713 164.152 328.159C165.873 328.605 167.685 328.55 169.377 328.001C171.068 327.453 172.567 326.433 173.699 325.061C170.939 325.871 167.859 321.651 169.429 316.731Z" fill="#37474F"/>
<path d="M151.789 328.323C155.412 328.323 158.349 325.386 158.349 321.763C158.349 318.14 155.412 315.203 151.789 315.203C148.166 315.203 145.229 318.14 145.229 321.763C145.229 325.386 148.166 328.323 151.789 328.323Z" fill="#455A64"/>
<path d="M151.789 315.203C150.412 315.201 149.069 315.631 147.949 316.433C147.769 320.433 151.179 324.353 150.229 325.673C149.279 326.993 146.929 326.173 146.109 325.063C146.688 326.057 147.518 326.882 148.515 327.454C149.513 328.026 150.644 328.326 151.794 328.323C152.944 328.321 154.073 328.016 155.068 327.439C156.063 326.862 156.889 326.034 157.463 325.038C158.037 324.041 158.339 322.911 158.339 321.761C158.339 320.611 158.036 319.481 157.461 318.485C156.886 317.489 156.06 316.661 155.064 316.085C154.069 315.509 152.939 315.205 151.789 315.203Z" fill="#37474F"/>
<path d="M168.506 323.197C173.207 318.495 173.207 310.872 168.506 306.17C163.804 301.468 156.18 301.468 151.478 306.17C146.777 310.872 146.776 318.495 151.478 323.197C156.18 327.899 163.804 327.899 168.506 323.197Z" fill="#455A64"/>
<path d="M171.71 317.433C171.242 319.364 170.302 321.149 168.975 322.627C167.647 324.105 165.973 325.23 164.103 325.902C162.234 326.574 160.226 326.771 158.262 326.475C156.297 326.179 154.436 325.401 152.847 324.209C151.257 323.017 149.989 321.448 149.155 319.645C148.321 317.842 147.948 315.86 148.069 313.876C148.19 311.893 148.802 309.971 149.849 308.283C150.897 306.595 152.347 305.193 154.07 304.203C153.023 304.793 152.073 305.538 151.25 306.413C151.041 307.315 150.933 308.237 150.93 309.163C150.912 311.58 151.624 313.947 152.973 315.952C154.323 317.958 156.246 319.509 158.492 320.403C160.738 321.297 163.202 321.492 165.56 320.962C167.919 320.432 170.062 319.202 171.71 317.433Z" fill="#37474F"/>
<path d="M189.09 333.122L265.87 377.442V309.902L189.09 265.582V333.122Z" fill="#F0F0F0"/>
<path d="M243.928 352.113V390.113L167.158 345.783V307.793L243.928 352.113Z" fill="#F0F0F0"/>
<path d="M167.158 320.453L243.928 364.783V352.113L167.158 307.793V320.453Z" fill="#E0E0E0"/>
<path d="M189.09 278.24L265.87 322.56V309.9L189.09 265.57V278.24Z" fill="#E0E0E0"/>
<path d="M265.869 309.902L317.049 280.352V347.892L265.869 377.442V309.902Z" fill="#FAFAFA"/>
<path d="M243.93 352.112L265.87 331.012V377.442L243.93 390.112V352.112Z" fill="#FAFAFA"/>
<path d="M291.459 265.57L265.869 309.9L317.049 280.35L291.459 265.57Z" fill="#FAFAFA"/>
<path d="M262.209 316.23L291.459 265.57V262.41L262.209 313.07V316.23Z" fill="#9691D4"/>
<path opacity="0.1" d="M262.209 316.23L291.459 265.57V262.41L262.209 313.07V316.23Z" fill="black"/>
<path d="M214.683 218.092L185.438 268.746L262.211 313.071L291.456 262.417L214.683 218.092Z" fill="#9691D4"/>
<path d="M185.439 268.742L262.209 313.072V316.232L185.439 271.912V268.742Z" fill="#9691D4"/>
<path opacity="0.15" d="M185.439 268.742L262.209 313.072V316.232L185.439 271.912V268.742Z" fill="black"/>
<path d="M291.459 262.41L323.449 280.88L320.699 282.46L291.459 265.57V262.41Z" fill="#9691D4"/>
<path opacity="0.15" d="M291.459 262.41L323.449 280.88L320.699 282.46L291.459 265.57V262.41Z" fill="black"/>
<path d="M320.699 282.462H317.049V280.352L320.699 282.462Z" fill="#9691D4"/>
<path opacity="0.3" d="M320.699 282.462H317.049V280.352L320.699 282.462Z" fill="black"/>
<path d="M200.869 268.141V252.941L209.619 247.891L218.339 262.991V278.241L200.869 268.141Z" fill="#F0F0F0"/>
<path opacity="0.2" d="M209.619 247.893L198.819 254.123L197.439 253.323L209.619 246.293V247.893Z" fill="black"/>
<path d="M218.34 278.243L227.07 263.103L231.53 255.363L218.34 262.993V278.243Z" fill="#FAFAFA"/>
<path opacity="0.4" d="M198.818 254.121H200.868V252.941L198.818 254.121Z" fill="black"/>
<path d="M220.419 266.593L209.619 247.893V246.293L221.769 267.373L220.419 266.593Z" fill="#9691D4"/>
<path opacity="0.1" d="M220.419 266.593L209.619 247.893V246.293L221.769 267.373L220.419 266.593Z" fill="black"/>
<path d="M221.769 267.371L209.619 246.291L222.189 239.031L234.339 260.111L221.769 267.371Z" fill="#9691D4"/>
<path opacity="0.3" d="M221.769 267.371L209.619 246.291L222.189 239.031L234.339 260.111L221.769 267.371Z" fill="white"/>
<path d="M213.978 260.55L205.238 255.5V265.58L213.978 270.63V260.55Z" fill="#455A64"/>
<path d="M206.129 265.062V256.012L213.979 260.552V269.592L206.129 265.062Z" fill="#E0E0E0"/>
<path d="M205.238 265.582L206.128 265.062L213.978 269.592V270.633L205.238 265.582Z" fill="#37474F"/>
<path d="M237.42 289.25V274.05L246.18 269L254.9 284.1V299.35L237.42 289.25Z" fill="#F0F0F0"/>
<path opacity="0.2" d="M246.178 269.002L235.378 275.232L233.988 274.432L246.178 267.402V269.002Z" fill="black"/>
<path d="M254.898 299.353L263.618 284.213L268.078 276.473L254.898 284.103V299.353Z" fill="#FAFAFA"/>
<path opacity="0.4" d="M235.379 275.231H237.419V274.051L235.379 275.231Z" fill="black"/>
<path d="M256.98 287.702L246.18 269.002V267.402L258.32 288.482L256.98 287.702Z" fill="#9691D4"/>
<path opacity="0.1" d="M256.98 287.702L246.18 269.002V267.402L258.32 288.482L256.98 287.702Z" fill="black"/>
<path d="M258.32 288.483L246.18 267.403L258.74 260.133L270.89 281.213L258.32 288.483Z" fill="#9691D4"/>
<path opacity="0.3" d="M258.32 288.483L246.18 267.403L258.74 260.133L270.89 281.213L258.32 288.483Z" fill="white"/>
<path d="M250.529 281.653L241.789 276.613V286.693L250.529 291.743V281.653Z" fill="#455A64"/>
<path d="M242.689 286.171V277.121L250.529 281.651V290.701L242.689 286.171Z" fill="#E0E0E0"/>
<path d="M241.789 286.692L242.689 286.172L250.529 290.702V291.742L241.789 286.692Z" fill="#37474F"/>
<path d="M189.09 283.832L265.87 328.152V331.012L240.28 358.452L163.5 314.122V311.272L189.09 283.832Z" fill="#9691D4"/>
<path d="M189.09 283.832L265.87 328.152L240.28 355.592L163.5 311.272L189.09 283.832Z" fill="#9691D4"/>
<path opacity="0.1" d="M240.279 355.592V358.452L265.869 331.012V328.152L240.279 355.592Z" fill="black"/>
<path opacity="0.15" d="M240.28 358.453L163.5 314.123V311.273L240.28 355.593V358.453Z" fill="black"/>
<path d="M196.409 333.112L178.129 322.562V341.983L196.409 352.533V333.112Z" fill="#263238"/>
<path d="M179.25 341.331V323.211L196.41 333.121V351.231L179.25 341.331Z" fill="#FAFAFA"/>
<path d="M179.25 323.211V327.441L196.41 337.341V333.111L179.25 323.211Z" fill="#F0F0F0"/>
<path d="M178.129 341.982L179.249 341.332L196.409 351.232V352.532L178.129 341.982Z" fill="#37474F"/>
<path d="M178.129 332.271L179.249 331.621L196.409 341.521V342.821L178.129 332.271Z" fill="#37474F"/>
<path d="M186.889 347.041L188.009 347.691V328.271L186.889 327.621V347.041Z" fill="#37474F"/>
<path d="M229.309 352.112L211.029 341.562V360.983L229.309 371.533V352.112Z" fill="#263238"/>
<path d="M212.148 360.331V342.211L229.308 352.111V370.231L212.148 360.331Z" fill="#FAFAFA"/>
<path d="M212.148 342.211V346.431L229.308 356.341V352.111L212.148 342.211Z" fill="#F0F0F0"/>
<path d="M211.029 360.982L212.149 360.332L229.309 370.232V371.532L211.029 360.982Z" fill="#37474F"/>
<path d="M211.029 351.271L212.149 350.621L229.309 360.521V361.821L211.029 351.271Z" fill="#37474F"/>
<path d="M219.789 366.041L220.909 366.691V347.271L219.789 346.621V366.041Z" fill="#37474F"/>
<path d="M254.898 354.232L273.178 343.672V363.092L254.898 373.642V354.232Z" fill="#263238"/>
<path d="M272.058 362.44V344.32L254.898 354.23V372.34L272.058 362.44Z" fill="#E6E6E6"/>
<path d="M272.058 344.32V346.18L254.898 356.08V354.23L272.058 344.32Z" fill="#E0E0E0"/>
<path d="M273.178 363.091L272.058 362.441L254.898 372.341V373.641L273.178 363.091Z" fill="#37474F"/>
<path d="M273.178 353.38L272.058 352.73L254.898 362.63V363.93L273.178 353.38Z" fill="#37474F"/>
<path d="M264.419 368.15L263.299 368.8V349.38L264.419 348.73V368.15Z" fill="#37474F"/>
<path d="M283.809 291.382L302.089 280.832V300.252L283.809 310.802V291.382Z" fill="#263238"/>
<path d="M300.969 299.6V281.48L283.809 291.38V309.5L300.969 299.6Z" fill="#E6E6E6"/>
<path d="M300.969 281.48V283.34L283.809 293.24V291.38L300.969 281.48Z" fill="#E0E0E0"/>
<path d="M302.089 300.252L300.969 299.602L283.809 309.502V310.802L302.089 300.252Z" fill="#37474F"/>
<path d="M302.089 290.541L300.969 289.891L283.809 299.801V301.101L302.089 290.541Z" fill="#37474F"/>
<path d="M293.329 305.311L292.209 305.961V286.541L293.329 285.891V305.311Z" fill="#37474F"/>
<path d="M284.148 366.893V333.122L302.428 322.562V356.342L284.148 366.893Z" fill="#37474F"/>
<path d="M301.758 355.833V322.953L284.148 333.123V366.003L301.758 355.833Z" fill="#455A64"/>
<path d="M302.43 322.562L301.76 322.953V355.832L302.43 356.342V322.562Z" fill="#263238"/>
<path d="M388.44 86.451C388.384 83.8027 387.705 81.2049 386.457 78.8681C385.21 76.5313 383.429 74.5213 381.26 73.001C379.26 71.731 377.34 71.541 375.94 72.261C367.49 76.501 308.11 114.571 304.32 116.451H304.27C303.87 116.716 303.549 117.083 303.338 117.513C303.127 117.944 303.034 118.423 303.07 118.901C303.093 120.236 303.433 121.546 304.06 122.725C304.688 123.903 305.585 124.916 306.68 125.681C307.059 125.977 307.51 126.166 307.986 126.229C308.462 126.293 308.947 126.228 309.39 126.041H309.45C315.45 122.731 374.06 97.751 386.04 91.331C387.45 90.551 388.36 88.871 388.44 86.451Z" fill="#9691D4"/>
<path opacity="0.1" d="M386.112 78.2395C384.937 76.1307 383.274 74.3339 381.262 72.9995C379.262 71.7295 377.362 71.5395 375.962 72.2495L375.782 72.3495C368.072 76.2895 323.882 104.479 309.012 113.649L308.912 113.709L308.312 114.079L308.132 114.189L307.792 114.399L307.392 114.639C305.822 115.639 304.762 116.219 304.392 116.429H304.342C304.215 116.505 304.097 116.596 303.992 116.699C303.711 116.987 303.491 117.329 303.345 117.703C303.199 118.078 303.13 118.478 303.142 118.879C303.122 119.162 303.122 119.446 303.142 119.729C303.142 119.839 303.142 119.949 303.192 120.059C303.242 120.169 303.252 120.399 303.292 120.579C303.332 120.759 303.362 120.859 303.402 120.989C303.442 121.119 303.502 121.319 303.562 121.479C303.622 121.639 303.652 121.719 303.692 121.839V121.899L386.112 78.2395Z" fill="black"/>
<path d="M306.671 125.688C305.581 124.926 304.687 123.917 304.06 122.744C303.432 121.572 303.09 120.268 303.061 118.938C303.151 116.498 304.891 115.558 306.961 116.848C308.051 117.612 308.947 118.622 309.574 119.797C310.201 120.971 310.543 122.277 310.571 123.608C310.491 126.048 308.741 126.998 306.671 125.688Z" fill="#9691D4"/>
<path d="M288.922 127.331C288.945 128.353 289.208 129.354 289.689 130.256C290.17 131.157 290.856 131.933 291.692 132.521C291.982 132.745 292.327 132.889 292.69 132.936C293.054 132.984 293.424 132.933 293.762 132.791L308.122 125.141C308.427 124.939 308.673 124.659 308.834 124.33C308.996 124.002 309.068 123.636 309.042 123.271C309.02 122.249 308.758 121.247 308.277 120.345C307.795 119.444 307.109 118.668 306.272 118.081C305.983 117.854 305.639 117.708 305.275 117.659C304.911 117.61 304.54 117.659 304.202 117.801L289.842 125.451C289.535 125.654 289.288 125.936 289.127 126.266C288.965 126.597 288.894 126.964 288.922 127.331Z" fill="#37474F"/>
<path d="M289.861 125.451C289.551 125.652 289.3 125.932 289.135 126.263C288.969 126.593 288.895 126.962 288.921 127.331C288.916 128.09 289.065 128.842 289.361 129.541L307.881 119.661C307.461 119.034 306.921 118.497 306.291 118.081C306.002 117.854 305.658 117.708 305.294 117.659C304.93 117.61 304.56 117.659 304.221 117.801L289.861 125.451Z" fill="#263238"/>
<path d="M307.351 140.071C307.351 130.871 301.271 121.671 289.101 114.651C264.781 100.601 225.341 100.601 201.011 114.651C188.851 121.651 182.771 130.871 182.771 140.071V157.071C182.771 166.271 188.851 175.471 201.021 182.501C225.341 196.501 264.781 196.501 289.101 182.501C301.271 175.501 307.351 166.271 307.351 157.071V140.071ZM204.001 119.861C214.861 113.591 229.431 110.141 245.001 110.141C260.571 110.141 275.171 113.591 286.001 119.861C295.821 125.531 301.231 132.711 301.231 140.081C301.231 147.451 295.821 154.621 286.001 160.291C275.141 166.561 260.571 170.011 245.001 170.011C229.431 170.011 214.831 166.561 204.001 160.291C194.171 154.621 188.771 147.441 188.771 140.081C188.771 132.721 194.201 125.531 204.001 119.861Z" fill="#9691D4"/>
<path opacity="0.3" d="M201.002 165.501C225.332 179.551 264.762 179.551 289.092 165.501C313.422 151.451 313.422 128.691 289.092 114.651C264.762 100.611 225.332 100.601 201.002 114.651C176.672 128.701 176.692 151.461 201.002 165.501ZM188.782 140.081C188.782 132.711 194.192 125.531 204.012 119.861C214.882 113.591 229.452 110.141 245.012 110.141C260.572 110.141 275.182 113.591 286.012 119.861C295.832 125.531 301.242 132.711 301.242 140.081C301.242 147.451 295.832 154.621 286.012 160.291C275.142 166.561 260.572 170.011 245.012 170.011C229.452 170.011 214.842 166.561 204.012 160.291C194.202 154.621 188.792 147.441 188.792 140.081H188.782Z" fill="white"/>
<path d="M188.791 140.071C188.826 143.067 189.666 145.999 191.221 148.561C193.691 144.281 198.041 140.271 204.031 136.821C214.881 130.541 229.461 127.091 245.031 127.091C260.601 127.091 275.201 130.541 286.031 136.821C292.031 140.271 296.371 144.281 298.851 148.561C300.399 145.996 301.234 143.066 301.271 140.071C301.271 132.711 295.861 125.531 286.031 119.861C275.181 113.591 260.601 110.141 245.031 110.141C229.461 110.141 214.851 113.591 204.031 119.861C194.201 125.531 188.791 132.711 188.791 140.071Z" fill="#9691D4"/>
<path opacity="0.1" d="M188.791 140.071C188.826 143.067 189.666 145.999 191.221 148.561C193.691 144.281 198.041 140.271 204.031 136.821C214.881 130.541 229.461 127.091 245.031 127.091C260.601 127.091 275.201 130.541 286.031 136.821C292.031 140.271 296.371 144.281 298.851 148.561C300.399 145.996 301.234 143.066 301.271 140.071C301.271 132.711 295.861 125.531 286.031 119.861C275.181 113.591 260.601 110.141 245.031 110.141C229.461 110.141 214.851 113.591 204.031 119.861C194.201 125.531 188.791 132.711 188.791 140.071Z" fill="black"/>
<path opacity="0.4" d="M204.001 127.539C214.871 121.269 229.441 117.809 245.001 117.809C260.561 117.809 275.171 121.269 286.001 127.539C294.101 132.219 299.191 137.919 300.731 143.909C299.191 149.909 294.101 155.609 286.001 160.289C275.131 166.559 260.561 170.009 245.001 170.009C229.441 170.009 214.831 166.559 204.001 160.289C195.901 155.609 190.811 149.899 189.271 143.909C190.831 137.919 195.921 132.219 204.001 127.539Z" fill="white"/>
<path opacity="0.1" d="M230.381 174.998V191.998C219.621 190.498 209.381 187.328 201.021 182.478C188.851 175.478 182.771 166.248 182.771 157.038V140.038C182.775 138.164 183.024 136.298 183.511 134.488C180.511 145.438 186.391 157.028 201.001 165.488C209.421 170.358 219.621 173.528 230.381 174.998Z" fill="black"/>
</svg>
