<svg width="32" height="32" viewBox="0 0 32 32" fill="none" xmlns="http://www.w3.org/2000/svg">
<path d="M27.4105 7.36719C27.1759 6.73164 26.8018 6.15637 26.3156 5.68418C25.8434 5.19798 25.2685 4.82381 24.6326 4.58927C24.1168 4.38896 23.342 4.15053 21.9149 4.08557C20.3712 4.01517 19.9083 4 16.0001 4C12.0915 4 11.6286 4.01478 10.0852 4.08518C8.65814 4.15053 7.88295 4.38896 7.36758 4.58927C6.73164 4.82381 6.15637 5.19798 5.68457 5.68418C5.19837 6.15637 4.8242 6.73125 4.58927 7.36719C4.38896 7.88295 4.15053 8.65814 4.08557 10.0852C4.01517 11.6286 4 12.0915 4 16.0001C4 19.9083 4.01517 20.3712 4.08557 21.9149C4.15053 23.342 4.38896 24.1168 4.58927 24.6326C4.8242 25.2685 5.19798 25.8434 5.68418 26.3156C6.15637 26.8018 6.73125 27.1759 7.36719 27.4105C7.88295 27.6112 8.65814 27.8496 10.0852 27.9146C11.6286 27.985 12.0911 27.9998 15.9997 27.9998C19.9087 27.9998 20.3715 27.985 21.9145 27.9146C23.3416 27.8496 24.1168 27.6112 24.6326 27.4105C25.9091 26.9181 26.9181 25.9091 27.4105 24.6326C27.6108 24.1168 27.8492 23.342 27.9146 21.9149C27.985 20.3712 27.9998 19.9083 27.9998 16.0001C27.9998 12.0915 27.985 11.6286 27.9146 10.0852C27.8496 8.65814 27.6112 7.88295 27.4105 7.36719ZM16.0001 23.5159C11.8487 23.5159 8.4835 20.151 8.4835 15.9997C8.4835 11.8484 11.8487 8.4835 16.0001 8.4835C20.151 8.4835 23.5163 11.8484 23.5163 15.9997C23.5163 20.151 20.151 23.5159 16.0001 23.5159ZM23.8134 9.94286C22.8434 9.94286 22.0569 9.15639 22.0569 8.18633C22.0569 7.21628 22.8434 6.42981 23.8134 6.42981C24.7835 6.42981 25.5699 7.21628 25.5699 8.18633C25.5696 9.15639 24.7835 9.94286 23.8134 9.94286Z" fill="white"/>
<path d="M20.8792 16.0002C20.8792 18.6948 18.6948 20.8792 16.0002 20.8792C13.3055 20.8792 11.1211 18.6948 11.1211 16.0002C11.1211 13.3055 13.3055 11.1211 16.0002 11.1211C18.6948 11.1211 20.8792 13.3055 20.8792 16.0002Z" fill="white"/>
</svg>
