<svg width="101" height="34" viewBox="0 0 101 34" fill="none" xmlns="http://www.w3.org/2000/svg">
<path d="M2.92773 20.5859C2.92773 20.5859 5.53863 29.1772 12.2178 32.3957L18.0261 28.0785L20.4941 25.3123L18.3278 22.6514L13.2461 25.8093L11.5761 27.681H10.1816L8.79544 26.6368L9.53145 23.7842L2.92773 20.5859Z" fill="#5C3AE2"/>
<path d="M9.2178 23.4448C9.2178 23.4448 0.106034 20.8899 0.963137 11.7823C2.96746 -0.475764 13.2558 1.07494 13.2558 1.07494L17.4714 1.94435L20.8115 3.8604L22.1976 5.992L23.8724 10.1211L24.1754 13.8502L23.6553 16.844L22.4851 18.2116L22.0521 20.6474L21.532 24.0412L20.4489 24.8232L18.3255 22.6485L12.9957 27.1093L11.5762 27.6769C11.5762 27.6769 10.3093 27.6601 10.1793 27.6769C10.0493 27.6937 8.4031 27.1093 8.4031 27.1093L9.52919 23.7801L9.2178 23.4448Z" fill="#FFC800"/>
<path d="M13.4107 21.3577C13.2143 21.2113 12.9615 21.1172 12.7366 21.2143L12.591 21.2772C12.4894 21.321 12.438 21.4374 12.4905 21.5348C12.7604 22.036 13.344 22.3714 13.943 22.3563C14.5629 22.3415 15.108 21.9541 15.3242 21.5156C15.371 21.4208 15.3179 21.3124 15.2204 21.2713L15.0669 21.2065C14.8383 21.1102 14.5824 21.2103 14.3831 21.3582C14.0887 21.5767 13.7211 21.5891 13.4107 21.3577Z" fill="#1D1D1D"/>
<path d="M24.7073 10.8201C24.3399 7.94602 23.1112 5.4815 21.0165 3.49001C18.0653 0.682995 14.538 -0.427116 10.5191 0.146501C7.81663 0.515688 5.32607 1.81662 3.47395 3.82651C0.661126 6.81435 -0.497166 10.3818 0.1959 14.4318C0.253159 14.7683 0.322346 15.0977 0.399883 15.4198C0.861051 17.6622 1.54027 19.8538 2.42779 21.9631C5.18216 28.5256 8.9648 31.8559 11.6548 33.4941L11.7544 33.5548C11.9 33.6434 12.0827 33.6442 12.229 33.5568L12.3299 33.4965C12.5124 33.3876 16.6386 30.8955 20.5095 26.1581L20.5238 26.1748C20.7433 25.9257 20.9485 25.703 21.1406 25.4707C22.6388 23.664 23.2353 21.5939 22.9299 19.2603C22.9053 19.1033 22.9388 18.9427 23.0241 18.8088C24.4866 16.4207 25.0813 13.5982 24.7073 10.8201ZM11.9947 32.1469C7.64189 29.3471 5.06048 24.8216 3.65288 21.4769C3.60278 21.3572 3.55387 21.2374 3.50615 21.1177C4.81833 22.4266 6.46809 23.4409 8.45066 24.1666C8.56995 24.2121 8.69878 24.2528 8.82761 24.2971C8.8133 24.3462 8.80614 24.3797 8.79302 24.4169C8.53297 25.0767 8.27531 25.7341 8.0093 26.3964C7.74328 27.0586 7.94488 27.7137 8.50196 28.0047C10.0825 28.8226 12.1844 28.5675 13.5312 27.3903C14.2278 26.7796 14.9197 26.1617 15.6139 25.5473L18.1381 23.3187C18.6439 23.9175 19.1461 24.5222 19.6519 25.1258C17.4615 27.8354 14.8807 30.2018 11.9947 32.1469ZM22.3394 17.1478C21.7772 15.8963 20.9022 14.8133 19.8007 14.0032C19.7166 13.9413 19.5985 13.9623 19.5386 14.0478C19.1622 14.5854 19.2927 15.3169 19.7557 15.782C20.8845 16.9157 21.5264 18.3186 21.6332 20.0075C21.7251 21.4566 21.3362 22.787 20.5191 24.0181L20.3151 23.7786C15.617 18.2416 20.4265 23.909 15.7097 18.3508C15.6389 18.2674 15.3027 18.4591 15.2253 18.5365C14.7605 19.0014 14.9345 19.5736 15.3639 20.0713C16.5137 21.4039 14.9308 19.5694 17.1098 22.0948C17.1504 22.1427 17.1885 22.193 17.2422 22.2601C17.1528 22.3415 17.0669 22.4206 16.9798 22.4996C15.5436 23.7714 14.1073 25.042 12.6711 26.3113C11.7585 27.1173 10.3139 27.3532 9.31073 26.8514C9.46461 26.4562 9.61492 26.0587 9.77477 25.6635C10.1493 24.7318 10.5322 23.8037 10.9032 22.8696C11.1177 22.3659 11.2099 21.8182 11.1722 21.2716C11.1344 20.7251 10.9678 20.1954 10.6861 19.7261C10.6508 19.6763 10.6319 19.6166 10.6319 19.5555C10.6319 19.4943 10.6508 19.4347 10.6861 19.3848C11.5545 17.8735 12.4134 16.3563 13.283 14.8462C13.4472 14.5438 13.6906 14.2922 13.9868 14.1186C14.283 13.9449 14.6208 13.8557 14.9638 13.8606C15.5805 13.8451 16.1984 13.8606 16.8152 13.8606C18.5186 13.8606 19.9548 12.4871 20.0729 10.747C20.1218 9.92366 19.8642 9.11141 19.3502 8.46792C18.8362 7.82443 17.5951 7.26519 17.2986 7.17766C17.1441 7.13205 17.028 7.08528 16.901 7.05756C16.8259 7.04115 16.7505 7.08133 16.7299 7.15541C16.6871 7.30847 16.6779 7.51635 16.6846 7.72564C16.7011 8.23707 17.1254 8.59371 17.5926 8.80232C17.8825 8.93177 18.14 9.1209 18.3485 9.41432C18.6177 9.79308 18.7428 10.2561 18.7011 10.7195C18.6591 11.1724 18.4587 11.5958 18.1356 11.9147C17.8125 12.2335 17.3874 12.4274 16.9356 12.4619C16.3273 12.499 15.7153 12.493 15.1058 12.4811C14.3843 12.4561 13.6737 12.6634 13.0779 13.0726C13.0445 13.0954 13.0075 13.1122 12.9526 13.1421C12.7319 11.1207 11.8218 9.51718 10.1732 8.35198C9.45383 7.84542 8.54541 7.47599 7.69534 7.31239C7.05595 7.18934 6.54443 7.7325 6.54443 8.38362C6.54443 8.46763 6.6036 8.54013 6.68618 8.55557C7.16514 8.64514 7.6435 8.703 8.09518 8.85015C11.1848 9.86207 12.5089 13.3744 10.9008 16.2413C10.3982 17.1355 9.88968 18.0264 9.37515 18.9142C9.09959 19.3932 9.11629 19.8363 9.42644 20.2973C9.8356 20.9057 9.94773 21.5607 9.64116 22.2577C9.53619 22.4972 9.44911 22.7367 9.34771 22.9942C5.90505 22.096 2.30611 18.992 1.53074 14.2307C0.674247 8.97709 3.56938 4.27678 7.92818 2.32002C10.106 1.35502 12.5358 1.12093 14.8568 1.6525C17.1777 2.18408 19.2659 3.45297 20.8113 5.27073C23.9916 9.04296 23.9784 13.9313 22.3394 17.1478Z" fill="#1D1D1D"/>
<path d="M50.8017 25.3958C49.8012 25.3958 48.9902 24.5848 48.9902 23.5844V13.9565C48.9902 13.7564 49.1524 13.5942 49.3524 13.5942C49.7071 13.5942 50.1226 13.5942 50.511 13.5942C51.2403 13.5942 51.8314 14.1854 51.8314 14.9147C52.0691 14.6693 52.1343 14.5757 52.395 14.3764C52.6634 14.177 52.9433 14.0045 53.2347 13.8588C53.5337 13.7131 53.852 13.6019 54.1894 13.5252C54.5268 13.4485 54.8949 13.4102 55.2936 13.4102C55.9378 13.4102 56.5091 13.5213 57.0075 13.7437C57.506 13.9584 57.92 14.2652 58.2498 14.6639C58.5872 15.055 58.8403 15.5266 59.009 16.0787C59.1853 16.6232 59.2735 17.2252 59.2735 17.8846V25.0335C59.2735 25.2336 59.1113 25.3958 58.9112 25.3958H58.2438C57.2434 25.3958 56.4324 24.5848 56.4324 23.5844V17.8846C56.4324 17.1638 56.2637 16.6079 55.9263 16.2168C55.5965 15.818 55.0981 15.6186 54.4309 15.6186C53.9402 15.6186 53.4801 15.7298 53.0506 15.9522C52.6212 16.1746 52.2148 16.4775 51.8314 16.8609V25.0335C51.8314 25.2336 51.6692 25.3958 51.4691 25.3958H50.8017Z" fill="#1D1D1D"/>
<path d="M62.3447 13.5955C63.3452 13.5955 64.1562 14.4065 64.1562 15.407V25.0349C64.1562 25.235 63.994 25.3972 63.7939 25.3972H63.1265C62.126 25.3972 61.315 24.5862 61.315 23.5857V13.9578C61.315 13.7577 61.4772 13.5955 61.6773 13.5955H62.3447ZM64.5821 10.5401C64.5821 10.7854 64.5322 11.0155 64.4325 11.2302C64.3329 11.4449 64.1987 11.6328 64.03 11.7938C63.8689 11.9549 63.6772 12.0852 63.4548 12.1849C63.2324 12.2769 62.9947 12.323 62.7417 12.323C62.4963 12.323 62.2624 12.2769 62.04 12.1849C61.8253 12.0852 61.6374 11.9549 61.4764 11.7938C61.3153 11.6328 61.185 11.4449 61.0853 11.2302C60.9933 11.0155 60.9473 10.7854 60.9473 10.5401C60.9473 10.287 60.9933 10.0493 61.0853 9.8269C61.185 9.60452 61.3153 9.41281 61.4764 9.25177C61.6374 9.09074 61.8253 8.96421 62.04 8.87219C62.2624 8.7725 62.4963 8.72266 62.7417 8.72266C62.9947 8.72266 63.2324 8.7725 63.4548 8.87219C63.6772 8.96421 63.8689 9.09074 64.03 9.25177C64.1987 9.41281 64.3329 9.60452 64.4325 9.8269C64.5322 10.0493 64.5821 10.287 64.5821 10.5401Z" fill="#1D1D1D"/>
<path d="M75.8729 25.4008C74.9581 25.4008 74.2165 24.6592 74.2165 23.7444C73.9323 24.158 73.8638 24.2697 73.5954 24.4921C73.327 24.7145 73.0356 24.9062 72.7212 25.0672C72.4144 25.2283 72.0809 25.351 71.7204 25.4353C71.3677 25.5273 70.9843 25.5733 70.5702 25.5733C69.926 25.5733 69.3356 25.4391 68.7988 25.1707C68.262 24.9024 67.7981 24.5151 67.407 24.009C67.0236 23.4952 66.7245 22.8626 66.5098 22.1111C66.3027 21.3596 66.1992 20.5007 66.1992 19.5345C66.1992 18.6603 66.3181 17.8475 66.5558 17.096C66.7935 16.3445 67.1348 15.6926 67.5795 15.1405C68.0243 14.5884 68.5572 14.159 69.1784 13.8522C69.7995 13.5378 70.4973 13.3806 71.2718 13.3806C71.9313 13.3806 72.4949 13.488 72.9627 13.7027C73.4305 13.9097 73.8484 14.1896 74.2165 14.5424V9.08885C74.2165 8.88876 74.3787 8.72656 74.5788 8.72656H75.2462C76.2466 8.72656 77.0576 9.53757 77.0576 10.538V25.0385C77.0576 25.2386 76.8954 25.4008 76.6953 25.4008H75.8729ZM71.5364 23.3188C72.1269 23.3188 72.6291 23.1961 73.0432 22.9508C73.4573 22.7054 73.8484 22.3565 74.2165 21.904V16.6128C73.8944 16.2218 73.5417 15.9457 73.1583 15.7847C72.7825 15.6236 72.3761 15.5431 71.939 15.5431C71.5096 15.5431 71.1185 15.6236 70.7657 15.7847C70.4207 15.9457 70.1254 16.1911 69.88 16.5208C69.6423 16.8429 69.4583 17.257 69.3279 17.7631C69.1975 18.2615 69.1324 18.852 69.1324 19.5345C69.1324 20.2246 69.186 20.8113 69.2934 21.2944C69.4084 21.7698 69.5695 22.1609 69.7765 22.4676C69.9836 22.7667 70.2366 22.9853 70.5357 23.1233C70.8347 23.2537 71.1683 23.3188 71.5364 23.3188Z" fill="#1D1D1D"/>
<path d="M84.5423 13.4141C85.4242 13.4141 86.2217 13.5559 86.9348 13.8397C87.6557 14.1234 88.2691 14.526 88.7752 15.0474C89.2813 15.5689 89.6724 16.2053 89.9485 16.9568C90.2246 17.7083 90.3626 18.548 90.3626 19.4759C90.3626 20.4114 90.2246 21.255 89.9485 22.0065C89.6724 22.758 89.2813 23.3983 88.7752 23.9274C88.2691 24.4565 87.6557 24.8629 86.9348 25.1467C86.2217 25.4304 85.4242 25.5723 84.5423 25.5723C83.6604 25.5723 82.8591 25.4304 82.1383 25.1467C81.4174 24.8629 80.8001 24.4565 80.2864 23.9274C79.7802 23.3983 79.3853 22.758 79.1016 22.0065C78.8255 21.255 78.6875 20.4114 78.6875 19.4759C78.6875 18.548 78.8255 17.7083 79.1016 16.9568C79.3853 16.2053 79.7802 15.5689 80.2864 15.0474C80.8001 14.526 81.4174 14.1234 82.1383 13.8397C82.8591 13.5559 83.6604 13.4141 84.5423 13.4141ZM84.5423 23.3868C85.5239 23.3868 86.2485 23.057 86.7163 22.3976C87.1917 21.7381 87.4294 20.7719 87.4294 19.4989C87.4294 18.226 87.1917 17.2559 86.7163 16.5888C86.2485 15.9216 85.5239 15.588 84.5423 15.588C83.5454 15.588 82.8092 15.9255 82.3338 16.6003C81.8584 17.2674 81.6207 18.2336 81.6207 19.4989C81.6207 20.7642 81.8584 21.7304 82.3338 22.3976C82.8092 23.057 83.5454 23.3868 84.5423 23.3868Z" fill="#1D1D1D"/>
<path d="M40.1205 22.8921C40.7186 22.8921 41.2516 22.7924 41.7194 22.593C42.1948 22.3937 42.5935 22.1138 42.9156 21.7533C43.2454 21.3929 43.4946 20.9558 43.6633 20.4421C43.8397 19.9283 43.9278 19.3531 43.9278 18.7167V9.08885C43.9278 8.88876 44.09 8.72656 44.2901 8.72656H45.2106C46.211 8.72656 47.022 9.53757 47.022 10.538V18.7167C47.022 19.7059 46.861 20.6223 46.5389 21.4658C46.2245 22.3016 45.7683 23.0263 45.1701 23.6398C44.572 24.2456 43.8473 24.721 42.9961 25.0661C42.1449 25.4035 41.1864 25.5722 40.1205 25.5722C39.0546 25.5722 38.096 25.4035 37.2449 25.0661C36.3937 24.721 35.669 24.2456 35.0709 23.6398C34.4804 23.0263 34.0241 22.3016 33.7021 21.4658C33.3877 20.6223 33.2305 19.7059 33.2305 18.7167V9.08885C33.2305 8.88876 33.3927 8.72656 33.5928 8.72656H34.5132C35.5137 8.72656 36.3247 9.53757 36.3247 10.538V18.7052C36.3247 19.3416 36.409 19.9168 36.5777 20.4306C36.7541 20.9443 37.0033 21.3853 37.3254 21.7533C37.6474 22.1138 38.0424 22.3937 38.5101 22.593C38.9856 22.7924 39.5224 22.8921 40.1205 22.8921Z" fill="#1D1D1D"/>
<path d="M99.0475 16.1256C98.9746 16.3106 98.7538 16.3746 98.5779 16.2819C98.4485 16.2137 98.3127 16.1432 98.2416 16.1094C98.0882 16.0327 97.908 15.9483 97.701 15.8563C97.4939 15.7566 97.2562 15.6684 96.9878 15.5917C96.7271 15.5151 96.4165 15.4767 96.0561 15.4767C95.4963 15.4767 95.0554 15.5956 94.7333 15.8333C94.4112 16.071 94.2502 16.3816 94.2502 16.765C94.2502 17.0181 94.3307 17.2328 94.4917 17.4091C94.6604 17.5778 94.879 17.7274 95.1474 17.8577C95.4235 17.9881 95.734 18.107 96.0791 18.2143C96.4242 18.314 96.7769 18.4252 97.1373 18.5479C97.4977 18.6706 97.8505 18.8125 98.1956 18.9735C98.5406 19.1269 98.8474 19.3262 99.1158 19.5716C99.3918 19.8093 99.6104 20.0969 99.7714 20.4343C99.9401 20.7717 100.024 21.1781 100.024 21.6536C100.024 22.221 99.921 22.7463 99.7139 23.2294C99.5069 23.7049 99.204 24.119 98.8052 24.4717C98.4064 24.8168 97.9118 25.089 97.3214 25.2884C96.7386 25.4801 96.0676 25.576 95.3084 25.576C94.902 25.576 94.5033 25.5376 94.1122 25.4609C93.7287 25.3919 93.3568 25.2922 92.9964 25.1619C92.8921 25.1233 92.7899 25.0818 92.6893 25.0377C91.6581 24.585 91.7087 23.453 92.1836 22.6314C92.2732 22.4764 92.4718 22.435 92.6285 22.5217C92.805 22.6193 93.0168 22.7383 93.0999 22.7923C93.261 22.892 93.445 22.9994 93.6521 23.1144C93.8591 23.2294 94.1007 23.3368 94.3767 23.4365C94.6604 23.5362 95.017 23.586 95.4465 23.586C95.7839 23.586 96.0714 23.5477 96.3091 23.471C96.5545 23.3866 96.7539 23.2793 96.9073 23.1489C97.0683 23.0186 97.1833 22.869 97.2524 22.7003C97.329 22.5239 97.3674 22.3437 97.3674 22.1597C97.3674 21.8836 97.283 21.6574 97.1143 21.481C96.9533 21.3047 96.7347 21.1513 96.4587 21.0209C96.1903 20.8906 95.8797 20.7756 95.527 20.6759C95.1819 20.5685 94.8253 20.4535 94.4572 20.3308C94.0968 20.2081 93.7402 20.0662 93.3875 19.9052C93.0424 19.7365 92.7319 19.5256 92.4558 19.2726C92.1874 19.0195 91.9689 18.7089 91.8001 18.3408C91.6391 17.9728 91.5586 17.528 91.5586 17.0065C91.5586 16.5234 91.6544 16.0633 91.8462 15.6262C92.0379 15.1891 92.3178 14.8096 92.6858 14.4875C93.0616 14.1578 93.5255 13.897 94.0777 13.7053C94.6374 13.5059 95.2816 13.4062 96.0101 13.4062C96.8229 13.4062 97.5629 13.5404 98.2301 13.8088C99.2681 14.2264 99.3952 15.2422 99.0475 16.1256Z" fill="#1D1D1D"/>
</svg>
