<svg width="96" height="33" viewBox="0 0 96 33" fill="none" xmlns="http://www.w3.org/2000/svg">
<path d="M2.94727 20.2266C2.94727 20.2266 5.43222 28.4034 11.7892 31.4666L17.3173 27.3577L19.6662 24.7249L17.6045 22.1924L12.7679 25.1979L11.1784 26.9794H9.85119L8.53193 25.9855L9.23243 23.2706L2.94727 20.2266Z" fill="white"/>
<path d="M8.93406 22.9486C8.93406 22.9486 0.261822 20.517 1.07758 11.8487C2.98522 0.181926 12.7772 1.65783 12.7772 1.65783L16.7895 2.4853L19.9685 4.30893L21.2878 6.33771L22.8818 10.2676L23.1702 13.8168L22.6752 16.6663L21.5614 17.9679L21.1493 20.2861L20.6542 23.5162L19.6234 24.2605L17.6024 22.1907L12.5297 26.4363L11.1787 26.9766C11.1787 26.9766 9.97294 26.9606 9.84919 26.9766C9.72544 26.9925 8.15866 26.4363 8.15866 26.4363L9.23043 23.2678L8.93406 22.9486Z" fill="white"/>
<path d="M12.9045 20.9423C12.7346 20.8076 12.5103 20.7259 12.3112 20.8118L12.1347 20.8881C12.0447 20.9269 11.9994 21.0298 12.0449 21.1165C12.299 21.5999 12.8588 21.9244 13.4335 21.91C14.0287 21.8957 14.5515 21.5206 14.7535 21.0987C14.7939 21.0143 14.747 20.9184 14.6607 20.8821L14.4767 20.8045C14.2743 20.7192 14.0474 20.8063 13.8752 20.9425C13.5843 21.1727 13.2125 21.1865 12.9045 20.9423Z" fill="#1D1D1D"/>
<path d="M23.6776 10.931C23.3279 8.19554 22.1585 5.8499 20.1648 3.95447C17.356 1.28286 13.9988 0.226299 10.1738 0.772247C7.60169 1.12363 5.23126 2.36181 3.46848 4.27474C0.791344 7.11846 -0.311074 10.5138 0.34856 14.3685C0.403056 14.6888 0.468906 15.0022 0.542704 15.3088C0.981626 17.4431 1.62808 19.529 2.47279 21.5365C5.0943 27.7824 8.69447 30.9521 11.2547 32.5113L11.3495 32.569C11.4881 32.6534 11.662 32.6541 11.8013 32.5709L11.8973 32.5136C12.071 32.4098 15.9981 30.038 19.6823 25.5291L19.6959 25.545C19.9048 25.308 20.1001 25.096 20.2829 24.8749C21.7089 23.1553 22.2766 21.1851 21.9859 18.964C21.9625 18.8146 21.9944 18.6618 22.0756 18.5343C23.4675 16.2614 24.0335 13.5751 23.6776 10.931ZM11.5782 31.229C7.43537 28.5643 4.97849 24.2571 3.63878 21.0737C3.5911 20.9598 3.54455 20.8458 3.49914 20.7318C4.74801 21.9776 6.31819 22.943 8.20514 23.6337C8.31867 23.677 8.44129 23.7157 8.5639 23.7579C8.55028 23.8046 8.54347 23.8365 8.53098 23.8719C8.28347 24.4999 8.03824 25.1256 7.78506 25.7559C7.53188 26.3862 7.72375 27.0096 8.25396 27.2866C9.75829 28.0651 11.7588 27.8223 13.0406 26.7019C13.7036 26.1206 14.3621 25.5325 15.0229 24.9478L17.4253 22.8267C17.9066 23.3966 18.3846 23.9722 18.866 24.5466C16.7813 27.1255 14.325 29.3778 11.5782 31.229ZM21.4239 16.9535C20.8888 15.7623 20.056 14.7316 19.0077 13.9605C18.9276 13.9016 18.8153 13.9216 18.7583 14.003C18.4 14.5146 18.5242 15.2108 18.9649 15.6535C20.0392 16.7325 20.6501 18.0677 20.7518 19.6752C20.8392 21.0544 20.4691 22.3206 19.6914 23.4923L19.4973 23.2644C15.0258 17.9945 19.6033 23.3885 15.1141 18.0984C15.0467 18.019 14.7266 18.2015 14.653 18.2752C14.2106 18.7176 14.3762 19.2622 14.7849 19.7359C15.8792 21.0043 14.3727 19.2582 16.4466 21.6619C16.4852 21.7074 16.5215 21.7553 16.5726 21.8191C16.4875 21.8966 16.4057 21.9719 16.3228 22.0471C14.9559 23.2575 13.5889 24.4668 12.222 25.675C11.3534 26.442 9.97854 26.6666 9.02372 26.189C9.17018 25.8129 9.31323 25.4345 9.46537 25.0584C9.82187 24.1716 10.1863 23.2883 10.5394 22.3993C10.7436 21.9198 10.8313 21.3985 10.7954 20.8783C10.7594 20.3582 10.6009 19.854 10.3328 19.4074C10.2992 19.36 10.2811 19.3032 10.2811 19.245C10.2811 19.1868 10.2992 19.13 10.3328 19.0826C11.1593 17.6442 11.9767 16.2001 12.8044 14.7629C12.9607 14.4751 13.1923 14.2356 13.4742 14.0703C13.7561 13.905 14.0777 13.8201 14.4041 13.8248C14.9911 13.81 15.5792 13.8248 16.1662 13.8248C17.7874 13.8248 19.1544 12.5175 19.2668 10.8614C19.3133 10.0778 19.0682 9.30471 18.5789 8.69226C18.0897 8.07981 16.9084 7.54755 16.6263 7.46424C16.4793 7.42083 16.3687 7.37632 16.2479 7.34994C16.1764 7.33432 16.1047 7.37256 16.085 7.44307C16.0443 7.58874 16.0355 7.78659 16.0419 7.98579C16.0576 8.47255 16.4614 8.81199 16.9061 9.01054C17.182 9.13374 17.4271 9.31375 17.6256 9.59301C17.8817 9.9535 18.0008 10.3942 17.9611 10.8352C17.9211 11.2663 17.7305 11.6692 17.4229 11.9727C17.1154 12.2762 16.7108 12.4607 16.2808 12.4936C15.7018 12.5289 15.1194 12.5232 14.5392 12.5118C13.8525 12.4881 13.1762 12.6854 12.6091 13.0749C12.5773 13.0965 12.5421 13.1125 12.4899 13.141C12.2799 11.2171 11.4136 9.69091 9.84457 8.58191C9.15991 8.09979 8.29531 7.74818 7.48625 7.59247C6.8777 7.47536 6.39086 7.99231 6.39086 8.61203C6.39086 8.69199 6.44717 8.76099 6.52576 8.77568C6.98162 8.86094 7.43691 8.91601 7.8668 9.05606C10.8073 10.0192 12.0676 13.3621 10.5371 16.0907C10.0588 16.9417 9.57474 17.7897 9.08503 18.6346C8.82276 19.0905 8.83866 19.5123 9.13385 19.9511C9.52327 20.5301 9.62999 21.1535 9.33821 21.8169C9.2383 22.0448 9.15542 22.2728 9.05891 22.5178C5.78231 21.663 2.35698 18.7087 1.61901 14.177C0.803833 9.17687 3.55931 4.7033 7.70785 2.84092C9.78065 1.92247 12.0933 1.69967 14.3022 2.2056C16.5112 2.71154 18.4987 3.91922 19.9696 5.6493C22.9964 9.23956 22.9839 13.8921 21.4239 16.9535Z" fill="#1D1D1D"/>
<path d="M48.5131 24.802C47.5609 24.802 46.7891 24.0302 46.7891 23.078V13.9145C46.7891 13.7241 46.9434 13.5697 47.1338 13.5697C47.4713 13.5697 47.8668 13.5697 48.2364 13.5697C48.9306 13.5697 49.4931 14.1324 49.4931 14.8265C49.7194 14.593 49.7814 14.5039 50.0296 14.3141C50.285 14.1244 50.5514 13.9602 50.8288 13.8215C51.1134 13.6828 51.4163 13.577 51.7374 13.504C52.0586 13.431 52.4089 13.3945 52.7884 13.3945C53.4015 13.3945 53.9452 13.5004 54.4196 13.712C54.894 13.9164 55.2881 14.2083 55.602 14.5878C55.9231 14.9601 56.1639 15.4089 56.3245 15.9344C56.4924 16.4526 56.5763 17.0255 56.5763 17.6532V24.4572C56.5763 24.6477 56.4219 24.802 56.2315 24.802H55.5963C54.6441 24.802 53.8722 24.0302 53.8722 23.078V17.6532C53.8722 16.9671 53.7117 16.438 53.3905 16.0658C53.0767 15.6863 52.6023 15.4965 51.9673 15.4965C51.5002 15.4965 51.0623 15.6023 50.6536 15.814C50.2449 16.0256 49.8581 16.3139 49.4931 16.6788V24.4572C49.4931 24.6477 49.3388 24.802 49.1483 24.802H48.5131Z" fill="white"/>
<path d="M59.498 13.5714C60.4502 13.5714 61.2221 14.3433 61.2221 15.2955V24.459C61.2221 24.6494 61.0677 24.8038 60.8773 24.8038H60.242C59.2899 24.8038 58.518 24.0319 58.518 23.0797V13.9162C58.518 13.7258 58.6724 13.5714 58.8628 13.5714H59.498ZM61.6274 10.6633C61.6274 10.8969 61.58 11.1158 61.4851 11.3202C61.3902 11.5245 61.2625 11.7034 61.102 11.8566C60.9487 12.0099 60.7662 12.134 60.5546 12.2289C60.3429 12.3164 60.1167 12.3602 59.8758 12.3602C59.6423 12.3602 59.4197 12.3164 59.208 12.2289C59.0036 12.134 58.8248 12.0099 58.6716 11.8566C58.5183 11.7034 58.3942 11.5245 58.2993 11.3202C58.2118 11.1158 58.168 10.8969 58.168 10.6633C58.168 10.4225 58.2118 10.1962 58.2993 9.98457C58.3942 9.77292 58.5183 9.59046 58.6716 9.43719C58.8248 9.28392 59.0036 9.1635 59.208 9.07591C59.4197 8.98103 59.6423 8.93359 59.8758 8.93359C60.1167 8.93359 60.3429 8.98103 60.5546 9.07591C60.7662 9.1635 60.9487 9.28392 61.102 9.43719C61.2625 9.59046 61.3902 9.77292 61.4851 9.98457C61.58 10.1962 61.6274 10.4225 61.6274 10.6633Z" fill="white"/>
<path d="M72.375 24.8074C71.5043 24.8074 70.7985 24.1016 70.7985 23.2309C70.528 23.6245 70.4628 23.7309 70.2073 23.9425C69.9519 24.1542 69.6746 24.3367 69.3753 24.4899C69.0834 24.6432 68.7659 24.76 68.4229 24.8403C68.0871 24.9278 67.7222 24.9716 67.3281 24.9716C66.715 24.9716 66.153 24.8439 65.6421 24.5885C65.1313 24.333 64.6897 23.9644 64.3175 23.4827C63.9526 22.9937 63.6679 22.3916 63.4636 21.6764C63.2665 20.9611 63.168 20.1437 63.168 19.2241C63.168 18.3921 63.2811 17.6184 63.5073 16.9032C63.7336 16.1879 64.0584 15.5676 64.4817 15.0421C64.905 14.5166 65.4122 14.1079 66.0034 13.8159C66.5946 13.5167 67.2588 13.3671 67.9959 13.3671C68.6236 13.3671 69.16 13.4692 69.6052 13.6736C70.0504 13.8707 70.4482 14.1371 70.7985 14.4728V9.28231C70.7985 9.09188 70.9529 8.9375 71.1433 8.9375H71.7786C72.7307 8.9375 73.5026 9.70938 73.5026 10.6615V24.4626C73.5026 24.653 73.3482 24.8074 73.1578 24.8074H72.375ZM68.2477 22.8259C68.8097 22.8259 69.2877 22.7091 69.6819 22.4756C70.076 22.242 70.4482 21.9099 70.7985 21.4793V16.4434C70.492 16.0711 70.1563 15.8084 69.7913 15.6551C69.4337 15.5019 69.0469 15.4252 68.6309 15.4252C68.2222 15.4252 67.8499 15.5019 67.5142 15.6551C67.1858 15.8084 66.9048 16.042 66.6712 16.3558C66.445 16.6623 66.2698 17.0564 66.1457 17.5381C66.0217 18.0125 65.9596 18.5745 65.9596 19.2241C65.9596 19.8809 66.0107 20.4393 66.1129 20.8991C66.2224 21.3516 66.3756 21.7238 66.5727 22.0158C66.7698 22.3004 67.0106 22.5084 67.2953 22.6398C67.5799 22.7638 67.8974 22.8259 68.2477 22.8259Z" fill="white"/>
<path d="M80.6271 13.3984C81.4664 13.3984 82.2254 13.5335 82.9042 13.8035C83.5902 14.0735 84.1741 14.4567 84.6558 14.953C85.1375 15.4493 85.5097 16.0551 85.7725 16.7703C86.0352 17.4856 86.1666 18.2848 86.1666 19.1679C86.1666 20.0583 86.0352 20.8611 85.7725 21.5764C85.5097 22.2916 85.1375 22.901 84.6558 23.4046C84.1741 23.9082 83.5902 24.295 82.9042 24.5651C82.2254 24.8351 81.4664 24.9702 80.6271 24.9702C79.7877 24.9702 79.0251 24.8351 78.339 24.5651C77.6529 24.295 77.0654 23.9082 76.5764 23.4046C76.0947 22.901 75.7188 22.2916 75.4488 21.5764C75.1861 20.8611 75.0547 20.0583 75.0547 19.1679C75.0547 18.2848 75.1861 17.4856 75.4488 16.7703C75.7188 16.0551 76.0947 15.4493 76.5764 14.953C77.0654 14.4567 77.6529 14.0735 78.339 13.8035C79.0251 13.5335 79.7877 13.3984 80.6271 13.3984ZM80.6271 22.8901C81.5613 22.8901 82.251 22.5763 82.6962 21.9486C83.1487 21.3209 83.3749 20.4013 83.3749 19.1898C83.3749 17.9782 83.1487 17.055 82.6962 16.42C82.251 15.785 81.5613 15.4676 80.6271 15.4676C79.6783 15.4676 78.9776 15.7887 78.5251 16.431C78.0726 17.0659 77.8464 17.9855 77.8464 19.1898C77.8464 20.394 78.0726 21.3136 78.5251 21.9486C78.9776 22.5763 79.6783 22.8901 80.6271 22.8901Z" fill="white"/>
<path d="M38.3467 22.4197C38.916 22.4197 39.4233 22.3249 39.8685 22.1351C40.321 21.9453 40.7005 21.6789 41.007 21.3359C41.3209 20.9929 41.5581 20.5769 41.7186 20.0879C41.8865 19.5989 41.9704 19.0515 41.9704 18.4457V9.28231C41.9704 9.09188 42.1248 8.9375 42.3152 8.9375H43.1913C44.1435 8.9375 44.9154 9.70938 44.9154 10.6615V18.4457C44.9154 19.3872 44.7621 20.2594 44.4556 21.0622C44.1563 21.8577 43.7221 22.5475 43.1528 23.1313C42.5835 23.7079 41.8938 24.1604 41.0837 24.4888C40.2735 24.81 39.3612 24.9705 38.3467 24.9705C37.3322 24.9705 36.4199 24.81 35.6098 24.4888C34.7997 24.1604 34.11 23.7079 33.5407 23.1313C32.9787 22.5475 32.5445 21.8577 32.2379 21.0622C31.9387 20.2594 31.7891 19.3872 31.7891 18.4457V9.28231C31.7891 9.09188 31.9434 8.9375 32.1339 8.9375H33.0099C33.9621 8.9375 34.734 9.70938 34.734 10.6615V18.4348C34.734 19.0405 34.8143 19.5879 34.9748 20.0769C35.1427 20.5659 35.3799 20.9856 35.6864 21.3359C35.993 21.6789 36.3689 21.9453 36.8141 22.1351C37.2666 22.3249 37.7775 22.4197 38.3467 22.4197Z" fill="white"/>
<path d="M94.4323 15.9827C94.363 16.1588 94.1529 16.2197 93.9854 16.1315C93.8622 16.0666 93.733 15.9995 93.6653 15.9672C93.5193 15.8943 93.3478 15.814 93.1508 15.7264C92.9537 15.6315 92.7275 15.5476 92.472 15.4746C92.2239 15.4016 91.9283 15.3651 91.5852 15.3651C91.0525 15.3651 90.6328 15.4782 90.3263 15.7045C90.0197 15.9307 89.8665 16.2263 89.8665 16.5913C89.8665 16.8321 89.9431 17.0365 90.0964 17.2043C90.2569 17.3649 90.4649 17.5072 90.7204 17.6313C90.9831 17.7554 91.2787 17.8685 91.6071 17.9707C91.9356 18.0656 92.2713 18.1714 92.6143 18.2882C92.9574 18.4049 93.2931 18.54 93.6215 18.6932C93.9499 18.8392 94.2419 19.0289 94.4973 19.2625C94.7601 19.4888 94.9681 19.7624 95.1213 20.0836C95.2819 20.4047 95.3622 20.7915 95.3622 21.244C95.3622 21.7841 95.2637 22.2841 95.0666 22.7439C94.8696 23.1964 94.5813 23.5905 94.2017 23.9262C93.8222 24.2547 93.3515 24.5137 92.7895 24.7035C92.2348 24.886 91.5962 24.9772 90.8736 24.9772C90.4868 24.9772 90.1073 24.9407 89.7351 24.8677C89.3702 24.802 89.0162 24.7072 88.6732 24.5831C88.5739 24.5464 88.4766 24.5069 88.3809 24.4649C87.3994 24.034 87.4475 22.9567 87.8995 22.1747C87.9848 22.0271 88.1739 21.9877 88.323 22.0703C88.491 22.1632 88.6926 22.2764 88.7717 22.3279C88.9249 22.4227 89.1001 22.5249 89.2972 22.6344C89.4942 22.7439 89.7241 22.846 89.9869 22.9409C90.2569 23.0358 90.5963 23.0832 91.005 23.0832C91.3261 23.0832 91.5998 23.0468 91.8261 22.9738C92.0596 22.8935 92.2494 22.7913 92.3954 22.6672C92.5486 22.5432 92.6581 22.4008 92.7238 22.2403C92.7968 22.0724 92.8333 21.9009 92.8333 21.7257C92.8333 21.463 92.753 21.2477 92.5924 21.0798C92.4392 20.912 92.2312 20.766 91.9684 20.6419C91.713 20.5178 91.4174 20.4084 91.0816 20.3135C90.7532 20.2113 90.4138 20.1018 90.0635 19.985C89.7205 19.8683 89.3811 19.7333 89.0454 19.58C88.7169 19.4194 88.4214 19.2187 88.1586 18.9779C87.9032 18.737 87.6952 18.4414 87.5346 18.0911C87.3813 17.7408 87.3047 17.3175 87.3047 16.8212C87.3047 16.3614 87.3959 15.9235 87.5784 15.5074C87.7608 15.0914 88.0272 14.7302 88.3776 14.4236C88.7352 14.1098 89.1767 13.8616 89.7022 13.6792C90.235 13.4894 90.8481 13.3945 91.5414 13.3945C92.3151 13.3945 93.0194 13.5223 93.6544 13.7777C94.6423 14.1751 94.7632 15.142 94.4323 15.9827Z" fill="white"/>
</svg>
