<svg width="500" height="500" viewBox="0 0 500 500" fill="none" xmlns="http://www.w3.org/2000/svg">
<path d="M87.3796 402.18C177.81 448.65 324.38 448.65 414.83 402.18C505.28 355.71 505.26 280.36 414.83 233.88C324.4 187.4 177.83 187.41 87.3796 233.88C-3.07039 280.35 -3.00039 355.71 87.3796 402.18Z" fill="#F5F5F5"/>
<path d="M85.7905 340.611L194.921 403.611C196.262 404.292 197.746 404.647 199.251 404.647C200.755 404.647 202.239 404.292 203.581 403.611L410.211 284.301C412.601 282.921 412.601 280.681 410.211 279.301L301.071 216.301C299.729 215.62 298.245 215.266 296.741 215.266C295.236 215.266 293.752 215.62 292.411 216.301L85.7905 335.611C83.4005 337.001 83.4005 339.231 85.7905 340.611Z" fill="#37474F"/>
<path d="M144.771 369.881C146.631 370.822 148.687 371.313 150.771 371.313C152.856 371.313 154.911 370.822 156.771 369.881C160.091 367.961 160.091 364.881 156.771 362.941C154.911 361.999 152.856 361.508 150.771 361.508C148.687 361.508 146.631 361.999 144.771 362.941C141.451 364.861 141.451 368.001 144.771 369.881Z" fill="#263238"/>
<path d="M194.921 403.62L85.7909 340.62C83.6509 339.39 83.4309 337.47 85.1109 336.09C84.0444 336.934 83.168 337.994 82.5391 339.2C81.9101 340.407 81.5427 341.732 81.4609 343.09V347.16C81.5414 348.663 81.9756 350.125 82.728 351.428C83.4804 352.732 84.5298 353.839 85.7909 354.66L194.921 417.66C196.256 418.354 197.746 418.698 199.251 418.66V404.65C197.744 404.68 196.253 404.325 194.921 403.62Z" fill="#455A64"/>
<path d="M410.21 298.371C411.47 297.549 412.519 296.441 413.271 295.138C414.023 293.835 414.458 292.373 414.54 290.871V286.801C414.456 285.442 414.086 284.117 413.456 282.911C412.825 281.705 411.947 280.645 410.88 279.801C412.57 281.181 412.35 283.101 410.21 284.341L203.58 403.621C202.246 404.318 200.755 404.662 199.25 404.621V418.701C200.755 418.742 202.246 418.398 203.58 417.701L410.21 298.371Z" fill="#263238"/>
<path d="M212.91 390.562L109.91 331.082C108.47 330.252 108.47 328.912 109.91 328.082L279.33 230.212C280.136 229.803 281.026 229.59 281.93 229.59C282.834 229.59 283.725 229.803 284.53 230.212L387.58 289.682C389.02 290.502 389.02 291.852 387.58 292.682L218.1 390.562C217.296 390.972 216.407 391.185 215.505 391.185C214.603 391.185 213.714 390.972 212.91 390.562Z" fill="#FAFAFA"/>
<path d="M186.121 310.531L247.051 345.701L208.591 367.911C207.919 368.247 207.178 368.421 206.426 368.421C205.675 368.421 204.934 368.247 204.261 367.911L147.661 335.231C147.4 335.143 147.173 334.974 147.013 334.75C146.852 334.526 146.766 334.257 146.766 333.981C146.766 333.705 146.852 333.437 147.013 333.212C147.173 332.988 147.4 332.82 147.661 332.731L186.121 310.531Z" fill="#E6E6E6"/>
<path d="M247 345.701L239.82 317.161C239.657 316.48 239.278 315.87 238.74 315.421C238.195 314.959 237.521 314.676 236.81 314.611L186.08 310.531L247 345.701Z" fill="#E0E0E0"/>
<path d="M247 345.7L192.47 343.45C191.817 343.423 191.195 343.165 190.715 342.722C190.235 342.278 189.928 341.678 189.85 341.03L186.07 310.52L247 345.7Z" fill="#E0E0E0"/>
<path d="M247 345.7L192.47 343.45C191.817 343.423 191.195 343.165 190.715 342.722C190.235 342.278 189.928 341.678 189.85 341.03L186.07 310.52L192.8 340.52C192.861 340.787 193.005 341.028 193.212 341.208C193.419 341.387 193.677 341.497 193.95 341.52L247 345.7Z" fill="#FAFAFA"/>
<path d="M198.301 343.359L206.431 369.159L208.591 367.909L198.301 343.359Z" fill="#FAFAFA"/>
<path d="M145.5 333.98L147.66 332.73L190.18 338.67L145.5 333.98Z" fill="#FAFAFA"/>
<path d="M220.781 297.702L269.251 325.702C269.922 326.042 270.663 326.219 271.416 326.219C272.168 326.219 272.91 326.042 273.581 325.702L342.371 286.002C342.632 285.913 342.859 285.745 343.019 285.521C343.18 285.296 343.266 285.027 343.266 284.752C343.266 284.476 343.18 284.207 343.019 283.983C342.859 283.758 342.632 283.59 342.371 283.502L293.901 255.502C293.23 255.162 292.488 254.984 291.736 254.984C290.983 254.984 290.242 255.162 289.571 255.502L220.781 295.202C220.519 295.29 220.293 295.458 220.132 295.683C219.971 295.907 219.885 296.176 219.885 296.452C219.885 296.727 219.971 296.996 220.132 297.221C220.293 297.445 220.519 297.613 220.781 297.702Z" fill="#E6E6E6"/>
<path d="M259.321 294.001C258.744 293.104 258.401 292.075 258.326 291.011C258.251 289.947 258.445 288.88 258.891 287.911C259.791 285.911 261.751 283.991 264.761 282.261C268.061 280.321 271.704 279.034 275.491 278.471C279.185 277.939 282.945 278.074 286.591 278.871C290.352 279.689 293.96 281.097 297.281 283.041C300.495 284.888 302.681 286.794 303.841 288.761C304.408 289.599 304.746 290.569 304.823 291.578C304.901 292.586 304.714 293.597 304.281 294.511C303.401 296.381 301.551 298.131 298.751 299.751C296.067 301.373 293.046 302.358 289.921 302.631C287.32 302.884 284.703 302.348 282.411 301.091C282 300.913 281.632 300.649 281.331 300.318C281.029 299.988 280.801 299.596 280.661 299.171C280.595 298.803 280.627 298.424 280.755 298.072C280.884 297.721 281.103 297.41 281.391 297.171C279.78 297.302 278.159 297.191 276.581 296.841C275.035 296.508 273.55 295.934 272.181 295.141C269.875 293.808 268.668 292.361 268.561 290.801C268.455 289.241 269.558 287.808 271.871 286.501C274.662 284.864 277.857 284.043 281.091 284.131C284.395 284.204 287.624 285.123 290.471 286.801C291.649 287.458 292.699 288.322 293.571 289.351C294.264 290.113 294.716 291.063 294.871 292.081L285.871 297.301C285.141 297.721 284.741 298.091 284.681 298.411C284.621 298.731 284.881 299.071 285.451 299.411C286.696 300.016 288.122 300.137 289.451 299.751C291.41 299.293 293.283 298.527 295.001 297.481C297.261 296.181 298.691 294.781 299.291 293.311C299.592 292.598 299.706 291.82 299.624 291.05C299.542 290.281 299.266 289.545 298.821 288.911C297.614 287.187 296.009 285.781 294.141 284.811C290.304 282.541 285.966 281.253 281.511 281.061C276.993 280.934 272.532 282.107 268.661 284.441C266.201 285.861 264.621 287.361 263.921 288.941C263.57 289.676 263.415 290.49 263.472 291.303C263.528 292.116 263.793 292.901 264.241 293.581C265.453 295.364 267.088 296.817 269.001 297.811C270.272 298.538 271.612 299.138 273.001 299.601C274.297 300.049 275.639 300.351 277.001 300.501C277.147 300.512 277.289 300.55 277.421 300.611C277.491 300.611 277.491 300.741 277.421 300.871L276.101 302.721C276.047 302.793 275.983 302.856 275.911 302.911C275.717 302.977 275.506 302.977 275.311 302.911C273.662 302.703 272.04 302.321 270.471 301.771C268.832 301.227 267.25 300.52 265.751 299.661C262.651 298.001 260.511 296.051 259.321 294.001ZM280.171 294.871C281.55 295.046 282.949 294.783 284.171 294.121L289.401 291.121C288.782 290.071 287.867 289.226 286.771 288.691C285.102 287.712 283.206 287.185 281.271 287.161C279.344 287.127 277.444 287.626 275.781 288.601C274.321 289.441 273.611 290.271 273.651 291.091C273.651 291.911 274.471 292.761 276.001 293.641C277.285 294.353 278.708 294.776 280.171 294.881V294.871Z" fill="#FAFAFA"/>
<path d="M347.261 252.9C347.672 253.112 348.128 253.222 348.591 253.222C349.053 253.222 349.509 253.112 349.921 252.9C350.079 252.844 350.217 252.741 350.315 252.604C350.412 252.467 350.464 252.303 350.464 252.135C350.464 251.966 350.412 251.802 350.315 251.665C350.217 251.528 350.079 251.425 349.921 251.37C349.507 251.165 349.052 251.059 348.591 251.059C348.129 251.059 347.674 251.165 347.261 251.37C347.102 251.425 346.964 251.528 346.867 251.665C346.769 251.802 346.717 251.966 346.717 252.135C346.717 252.303 346.769 252.467 346.867 252.604C346.964 252.741 347.102 252.844 347.261 252.9Z" fill="#263238"/>
<path d="M351.5 264.939C352.322 265.358 353.232 265.577 354.155 265.577C355.078 265.577 355.988 265.358 356.81 264.939C358.28 264.099 358.28 262.719 356.81 261.879C355.988 261.461 355.078 261.242 354.155 261.242C353.232 261.242 352.322 261.461 351.5 261.879C350 262.719 350 264.099 351.5 264.939Z" fill="#263238"/>
<path d="M347.761 259.611C348.761 259.041 348.691 258.101 347.641 257.501L330.181 247.411C329.62 247.111 328.995 246.948 328.359 246.938C327.722 246.928 327.092 247.069 326.521 247.351C325.521 247.911 325.601 248.861 326.641 249.461L344.101 259.541C344.664 259.838 345.287 259.999 345.923 260.011C346.559 260.023 347.188 259.886 347.761 259.611Z" fill="#263238"/>
<path d="M121.379 132.441C121.434 131.367 121.743 130.321 122.28 129.39C122.817 128.458 123.567 127.667 124.469 127.081L282.699 35.731C283.658 35.2428 284.718 34.9883 285.794 34.9883C286.87 34.9883 287.93 35.2428 288.889 35.731L292.369 37.731C293.269 38.316 294.018 39.1056 294.556 40.0354C295.093 40.9652 295.402 42.0088 295.459 43.081V164.381C295.397 165.453 295.086 166.497 294.549 167.427C294.013 168.358 293.266 169.15 292.369 169.741L134.139 261.091C133.181 261.574 132.122 261.826 131.049 261.826C129.976 261.826 128.917 261.574 127.959 261.091L124.469 259.091C123.572 258.5 122.825 257.708 122.288 256.777C121.752 255.847 121.44 254.803 121.379 253.731V132.441Z" fill="#A39CED"/>
<path opacity="0.4" d="M122.279 129.393L131.059 134.453L294.559 40.0526C294.038 39.1117 293.289 38.3172 292.379 37.7426L288.879 35.7426C287.922 35.2545 286.864 35 285.789 35C284.715 35 283.656 35.2545 282.699 35.7426L124.479 127.083C123.557 127.648 122.799 128.444 122.279 129.393Z" fill="white"/>
<path opacity="0.1" d="M121.379 132.431V253.711C121.436 254.786 121.747 255.832 122.286 256.763C122.824 257.695 123.576 258.486 124.479 259.071L127.959 261.071C128.228 261.228 128.513 261.355 128.809 261.451C129.222 261.587 129.647 261.684 130.079 261.741C130.892 261.846 131.716 261.816 132.519 261.651C132.722 261.61 132.922 261.556 133.119 261.491C133.247 261.457 133.371 261.41 133.489 261.351C133.255 261.451 133.003 261.503 132.749 261.503C132.495 261.503 132.243 261.451 132.009 261.351C131.685 261.134 131.425 260.834 131.258 260.482C131.091 260.13 131.022 259.739 131.059 259.351V138.001C131.028 137.451 131.166 136.905 131.453 136.435C131.741 135.965 132.165 135.594 132.669 135.371L131.059 134.431L122.279 129.371C121.725 130.298 121.415 131.351 121.379 132.431Z" fill="black"/>
<path opacity="0.2" d="M131.059 134.45L204.339 161.83C206.873 162.773 209.653 162.825 212.221 161.978C214.789 161.131 216.992 159.436 218.469 157.17L230.239 139.17L295.139 39.7305L232.579 139.82L295.459 164.43C295.395 165.529 295.051 166.593 294.459 167.52L232.409 140.1L218.729 162C217.211 164.431 214.868 166.232 212.129 167.074C209.39 167.915 206.439 167.74 203.819 166.58L194.089 162.28L131.999 261.34C131.675 261.124 131.415 260.824 131.248 260.471C131.081 260.119 131.012 259.729 131.049 259.34V257.34L193.779 162.2L131.059 134.45Z" fill="black"/>
<path d="M149.189 106.129L138.369 99.899L138.269 99.839C133.469 97.129 126.889 97.539 119.599 101.739C104.929 110.209 93.0391 130.809 93.0391 147.739C93.0391 156.189 96.0391 162.139 100.789 164.919L110.629 170.529L112.979 166.599C115.656 165.99 118.225 164.979 120.599 163.599C135.269 155.129 147.159 134.529 147.159 117.599C147.158 115.314 146.879 113.037 146.329 110.819L149.189 106.129Z" fill="#37474F"/>
<path d="M129.859 107.651C115.179 116.121 103.289 136.721 103.289 153.651C103.289 170.581 115.179 177.461 129.849 168.991C144.519 160.521 156.419 139.911 156.419 122.991C156.419 106.071 144.529 99.1714 129.859 107.651Z" fill="#455A64"/>
<path d="M121.599 140.341C121.505 140.243 121.436 140.123 121.4 139.992C121.363 139.861 121.359 139.723 121.389 139.591C121.44 139.23 121.577 138.887 121.789 138.591L129.999 126.401C130.209 126.111 130.409 125.821 130.629 125.541C130.812 125.279 131.047 125.058 131.319 124.891L134.319 123.191C134.419 123.117 134.538 123.074 134.662 123.067C134.785 123.061 134.908 123.091 135.015 123.154C135.122 123.217 135.208 123.31 135.262 123.421C135.316 123.533 135.336 123.658 135.319 123.781V151.921C135.303 152.275 135.197 152.619 135.009 152.921C134.844 153.232 134.599 153.494 134.299 153.681L131.239 155.441C131.137 155.518 131.016 155.565 130.889 155.578C130.762 155.59 130.634 155.567 130.519 155.511C130.415 155.438 130.331 155.338 130.279 155.222C130.226 155.106 130.205 154.977 130.219 154.851V133.341L124.869 141.271C124.692 141.561 124.435 141.793 124.129 141.941C124.018 141.996 123.894 142.02 123.771 142.01C123.647 141.999 123.529 141.954 123.429 141.881L121.599 140.341Z" fill="#FAFAFA"/>
</svg>
