<svg width="355" height="275" viewBox="0 0 355 275" fill="none" xmlns="http://www.w3.org/2000/svg">
<path d="M177.298 274.997C275.218 274.997 354.597 240.241 354.597 197.366C354.597 154.491 275.218 119.734 177.298 119.734C79.3792 119.734 0 154.491 0 197.366C0 240.241 79.3792 274.997 177.298 274.997Z" fill="#F5F5F5"/>
<path d="M87.6729 232.027C111.099 232.027 130.09 221.248 130.09 207.951C130.09 194.654 111.099 183.875 87.6729 183.875C64.2466 183.875 45.2559 194.654 45.2559 207.951C45.2559 221.248 64.2466 232.027 87.6729 232.027Z" fill="#E0E0E0"/>
<path d="M263.907 227.412C278.348 227.412 290.055 220.767 290.055 212.571C290.055 204.375 278.348 197.73 263.907 197.73C249.465 197.73 237.758 204.375 237.758 212.571C237.758 220.767 249.465 227.412 263.907 227.412Z" fill="#E0E0E0"/>
<path d="M250.131 127.269C250.623 125.123 249.324 122.938 246.614 121.623C243.598 120.195 238.371 119.203 235.201 121.47C233.072 123.01 230.789 128.204 234.338 127.648C237.887 127.091 241.718 124.922 244.219 125.543C246.542 126.107 246.638 127.85 246.638 127.85L250.131 127.269Z" fill="#37474F"/>
<path d="M233.887 136.512C234.048 136.746 234.363 137.181 234.274 137.536C234.185 137.891 234.532 138.012 235.016 137.915C235.5 137.818 235.226 136.899 233.887 136.512Z" fill="#263238"/>
<path d="M234.273 137.538C234.826 137.408 235.391 137.333 235.959 137.312L240.153 138.417C239.702 138.939 239.128 139.339 238.482 139.58C237.837 139.821 237.141 139.895 236.459 139.797C233.926 139.563 233.603 138.619 233.579 138.313C233.555 138.006 233.926 137.482 234.273 137.538Z" fill="#F28F8F"/>
<path d="M250.001 159.982C250.001 159.982 246.566 164.7 242.742 164.773C238.919 164.845 234.717 164.587 232.975 165.305C231.233 166.023 230.91 168.886 229.45 169.225C229.116 169.323 228.764 169.352 228.418 169.31C228.072 169.268 227.737 169.156 227.436 168.981C227.134 168.806 226.871 168.572 226.663 168.292C226.454 168.012 226.305 167.693 226.224 167.354C225.643 165.74 226.652 162.514 228.878 161.119C231.104 159.723 235.741 158.877 239.089 157.747C242.436 156.618 243.501 154.013 244.025 151.609C244.589 147.802 252.582 155.892 250.001 159.982Z" fill="#A39CED"/>
<path opacity="0.45" d="M250.001 159.982C250.001 159.982 246.566 164.7 242.742 164.773C238.919 164.845 234.717 164.587 232.975 165.305C231.233 166.023 230.91 168.886 229.45 169.225C229.116 169.323 228.764 169.352 228.418 169.31C228.072 169.268 227.737 169.156 227.436 168.981C227.134 168.806 226.871 168.572 226.663 168.292C226.454 168.012 226.305 167.693 226.224 167.354C225.643 165.74 226.652 162.514 228.878 161.119C231.104 159.723 235.741 158.877 239.089 157.747C242.436 156.618 243.501 154.013 244.025 151.609C244.589 147.802 252.582 155.892 250.001 159.982Z" fill="black"/>
<path d="M274.352 181.536C275.424 183.391 280.094 184.157 283.385 182.261C286.676 180.366 288.644 175.486 287.829 171.647C287.015 167.808 284.958 166.388 285.7 165.84C286.442 165.291 289.144 167.832 289.967 171.816C290.789 175.801 289.967 181.971 283.756 184.931C278.312 187.544 276.037 186.141 274.352 189.908V181.536Z" fill="#37474F"/>
<path d="M253.018 127.897C248.695 125.397 245.581 126.107 243.178 127.897C241.718 128.994 240.984 130.22 239.145 130.632C238.335 130.831 237.503 130.924 236.669 130.906C235.515 130.906 233.572 130.906 232.862 132.027C232.593 132.499 232.451 133.032 232.45 133.575C232.413 134.162 232.473 134.751 232.628 135.318C232.69 135.553 232.819 135.766 232.999 135.931C233.089 136.01 233.198 136.065 233.315 136.09C233.432 136.116 233.554 136.111 233.668 136.076C234.149 137.057 234.99 137.814 236.015 138.189C237.283 138.691 238.673 138.792 240 138.479C239.567 138.858 239.063 139.147 238.517 139.33C237.972 139.512 237.396 139.585 236.822 139.544C236.003 139.55 235.194 139.356 234.467 138.979C234.325 138.916 234.198 138.825 234.093 138.712C233.987 138.598 233.906 138.464 233.854 138.318C233.809 138.157 233.826 137.984 233.903 137.835C233.979 137.685 234.108 137.57 234.265 137.512C234.117 137.457 233.959 137.436 233.802 137.448C233.644 137.461 233.492 137.507 233.354 137.584C233.248 137.645 233.159 137.732 233.096 137.836C233.032 137.94 232.996 138.059 232.991 138.181C232.987 138.412 233.028 138.643 233.112 138.858C233.394 139.982 234.062 140.97 234.999 141.649C236.141 142.198 237.394 142.474 238.661 142.456C239.908 142.675 241.134 143.004 242.323 143.44C242.718 143.579 243.088 143.78 243.42 144.037C243.814 144.36 244.11 144.788 244.275 145.271C244.398 145.785 244.441 146.316 244.404 146.843C244.48 148.152 244.383 149.465 244.113 150.747C244.113 150.917 244.041 151.086 244 151.255C243.073 155.288 240.323 160.378 243.452 166.83C246.581 173.283 250.55 173.444 250.84 180.63C251.13 187.817 249.783 188.204 250.13 192.261C250.477 196.318 255.244 199.52 256.244 200.77C257.244 202.02 256.897 202.843 257.212 206.198C257.424 207.902 257.424 209.625 257.212 211.328C257.212 211.328 252.373 212.941 253.3 214.506C254.228 216.071 258.672 215.393 260.204 214.958C261.737 214.522 263.681 201.319 263.681 201.319C263.997 202.665 264.704 203.888 265.713 204.835C266.296 205.35 266.928 205.807 267.6 206.198C268.23 206.561 269.076 207.053 269.214 209.739C269.356 211.664 269.356 213.597 269.214 215.522C269.214 215.522 264.858 216.837 265.455 218.676C266.052 220.515 271.73 219.7 272.787 218.74C273.843 217.78 276.424 204.375 275.65 202.262C274.876 200.149 271.996 198.778 272.48 195.632C272.964 192.487 275.561 189.922 274.9 184.34C274.15 178.227 271.867 177.598 268.972 172.057C266.076 166.515 266.616 161.265 265.479 158.127C263.059 151.368 260.64 150.546 259.43 146.214C258.301 142.117 258.357 140.762 258.583 136.665C258.809 132.567 255.841 129.527 253.018 127.897Z" fill="#A39CED"/>
<path opacity="0.3" d="M253.018 127.897C248.695 125.397 245.581 126.107 243.178 127.897C241.718 128.994 240.984 130.22 239.145 130.632C238.335 130.831 237.503 130.924 236.669 130.906C235.515 130.906 233.572 130.906 232.862 132.027C232.593 132.499 232.451 133.032 232.45 133.575C232.413 134.162 232.473 134.751 232.628 135.318C232.69 135.553 232.819 135.766 232.999 135.931C233.089 136.01 233.198 136.065 233.315 136.09C233.432 136.116 233.554 136.111 233.668 136.076C234.149 137.057 234.99 137.814 236.015 138.189C237.283 138.691 238.673 138.792 240 138.479C239.567 138.858 239.063 139.147 238.517 139.33C237.972 139.512 237.396 139.585 236.822 139.544C236.003 139.55 235.194 139.356 234.467 138.979C234.325 138.916 234.198 138.825 234.093 138.712C233.987 138.598 233.906 138.464 233.854 138.318C233.809 138.157 233.826 137.984 233.903 137.835C233.979 137.685 234.108 137.57 234.265 137.512C234.117 137.457 233.959 137.436 233.802 137.448C233.644 137.461 233.492 137.507 233.354 137.584C233.248 137.645 233.159 137.732 233.096 137.836C233.032 137.94 232.996 138.059 232.991 138.181C232.987 138.412 233.028 138.643 233.112 138.858C233.394 139.982 234.062 140.97 234.999 141.649C236.141 142.198 237.394 142.474 238.661 142.456C239.908 142.675 241.134 143.004 242.323 143.44C242.718 143.579 243.088 143.78 243.42 144.037C243.814 144.36 244.11 144.788 244.275 145.271C244.398 145.785 244.441 146.316 244.404 146.843C244.48 148.152 244.383 149.465 244.113 150.747C244.113 150.917 244.041 151.086 244 151.255C243.073 155.288 240.323 160.378 243.452 166.83C246.581 173.283 250.55 173.444 250.84 180.63C251.13 187.817 249.783 188.204 250.13 192.261C250.477 196.318 255.244 199.52 256.244 200.77C257.244 202.02 256.897 202.843 257.212 206.198C257.424 207.902 257.424 209.625 257.212 211.328C257.212 211.328 252.373 212.941 253.3 214.506C254.228 216.071 258.672 215.393 260.204 214.958C261.737 214.522 263.681 201.319 263.681 201.319C263.997 202.665 264.704 203.888 265.713 204.835C266.296 205.35 266.928 205.807 267.6 206.198C268.23 206.561 269.076 207.053 269.214 209.739C269.356 211.664 269.356 213.597 269.214 215.522C269.214 215.522 264.858 216.837 265.455 218.676C266.052 220.515 271.73 219.7 272.787 218.74C273.843 217.78 276.424 204.375 275.65 202.262C274.876 200.149 271.996 198.778 272.48 195.632C272.964 192.487 275.561 189.922 274.9 184.34C274.15 178.227 271.867 177.598 268.972 172.057C266.076 166.515 266.616 161.265 265.479 158.127C263.059 151.368 260.64 150.546 259.43 146.214C258.301 142.117 258.357 140.762 258.583 136.665C258.809 132.567 255.841 129.527 253.018 127.897Z" fill="black"/>
<path opacity="0.25" d="M263.011 192.851C262.505 193.784 262.229 194.823 262.205 195.884C260.331 195.616 258.525 194.998 256.881 194.061C255.953 193.582 255.156 192.882 254.561 192.022C253.966 191.163 253.591 190.171 253.47 189.133C253.425 190.082 253.602 191.028 253.985 191.897C254.369 192.766 254.949 193.535 255.68 194.142C256.647 194.859 257.652 195.527 258.688 196.142C259.683 196.734 260.533 197.541 261.177 198.504C261.82 199.467 262.24 200.561 262.406 201.707V201.844C262.672 203.457 262.092 209.789 262.092 209.789C262.963 205.942 263.632 201.368 263.632 201.368C262.524 198.668 262.306 195.684 263.011 192.851Z" fill="black"/>
<path d="M263.269 185.324C261.938 182.154 257.422 176.565 255.938 173.427C254.453 170.29 254.462 162.136 254.47 159.571C254.478 157.006 252.897 154.893 251.187 153.118C249.477 151.344 245.646 150.239 243.46 153.32C242.355 157.014 240.823 161.466 243.46 166.894C245.88 171.887 248.808 173.113 250.138 176.75C251.223 178.775 252.086 180.912 252.711 183.122C253.284 185.252 253.163 188.768 253.849 190.51C255.099 193.664 256.639 193.809 259.64 195.697C262.64 197.584 262.729 198.116 262.729 198.116C262.445 196.374 262.542 194.591 263.011 192.89C263.777 189.817 264.592 188.494 263.269 185.324Z" fill="#E0E0E0"/>
<path d="M253.203 170.783C250.904 170.912 248.186 170.88 246.17 171.098C245.101 169.805 244.191 168.389 243.46 166.88C242.505 164.96 242.005 162.846 242 160.701C242.114 158.177 242.607 155.684 243.46 153.305C245.654 150.216 249.469 151.313 251.187 153.104C252.905 154.894 254.477 156.999 254.469 159.556C254.406 163.148 254.614 166.739 255.09 170.299C254.495 170.571 253.856 170.735 253.203 170.783Z" fill="#F5F5F5"/>
<path d="M263.125 192.697C262.672 194.543 262.573 196.459 262.835 198.343C262.77 198.206 262.238 197.294 259.609 195.665C256.6 193.786 255.06 193.64 253.809 190.487C253.124 188.753 253.245 185.236 252.672 183.099C252.044 180.89 251.184 178.755 250.107 176.727C249.428 175.086 248.436 173.594 247.188 172.331C248.868 172.113 250.559 171.992 252.253 171.968C253.284 172.001 254.308 171.794 255.245 171.363C255.388 172.07 255.607 172.76 255.898 173.42C257.382 176.558 261.899 182.147 263.222 185.317C264.545 188.487 263.899 189.672 263.125 192.697Z" fill="#F5F5F5"/>
<path d="M260.277 165.767C260.277 165.767 257.01 170.606 253.203 170.792C250.784 170.913 248.211 170.913 246.211 171.098C245.271 171.141 244.344 171.326 243.46 171.647C241.742 172.453 241.516 175.292 240.065 175.679C239.732 175.792 239.381 175.835 239.031 175.807C238.681 175.778 238.341 175.679 238.032 175.514C237.722 175.349 237.449 175.123 237.23 174.849C237.011 174.575 236.85 174.259 236.758 173.921C236.129 172.308 237.024 169.082 239.177 167.606C241.331 166.13 245.961 165.13 249.267 163.896C252.574 162.661 253.558 160.016 254.002 157.596C254.47 153.765 262.729 161.597 260.277 165.767Z" fill="#A39CED"/>
<path opacity="0.3" d="M260.277 165.767C260.277 165.767 257.01 170.606 253.203 170.792C250.784 170.913 248.211 170.913 246.211 171.098C245.271 171.141 244.344 171.326 243.46 171.647C241.742 172.453 241.516 175.292 240.065 175.679C239.732 175.792 239.381 175.835 239.031 175.807C238.681 175.778 238.341 175.679 238.032 175.514C237.722 175.349 237.449 175.123 237.23 174.849C237.011 174.575 236.85 174.259 236.758 173.921C236.129 172.308 237.024 169.082 239.177 167.606C241.331 166.13 245.961 165.13 249.267 163.896C252.574 162.661 253.558 160.016 254.002 157.596C254.47 153.765 262.729 161.597 260.277 165.767Z" fill="black"/>
<path opacity="0.5" d="M270.569 179.904C270.285 179.889 270.003 179.963 269.762 180.114C269.593 180.239 269.452 180.399 269.349 180.582C269.247 180.766 269.184 180.969 269.165 181.179C269.131 181.598 269.192 182.02 269.343 182.413C269.649 183.324 270.15 184.139 270.496 185.042C270.647 185.466 270.739 185.908 270.771 186.357C270.711 186.767 270.794 187.185 271.004 187.542C271.148 187.713 271.339 187.836 271.553 187.896C271.768 187.957 271.995 187.951 272.206 187.881C272.489 187.751 272.739 187.56 272.938 187.321C273.138 187.083 273.282 186.803 273.36 186.502C274.061 184.558 273.787 181.921 272.053 180.558C271.734 180.288 271.363 180.085 270.964 179.961C270.835 179.926 270.702 179.907 270.569 179.904Z" fill="#A39CED"/>
<path opacity="0.5" d="M269.182 186.397C269.286 186.222 269.336 186.02 269.327 185.816C269.336 185.521 269.28 185.228 269.165 184.957C269.049 184.685 268.876 184.442 268.657 184.244C268.569 184.143 268.46 184.062 268.337 184.006C268.215 183.951 268.082 183.922 267.948 183.922C267.813 183.922 267.68 183.951 267.558 184.006C267.436 184.062 267.326 184.143 267.238 184.244C267.148 184.35 267.087 184.478 267.06 184.615C267.045 184.814 267.077 185.014 267.152 185.199C267.228 185.383 267.345 185.548 267.496 185.679C267.859 186.058 268.415 187.091 269.012 186.599C269.083 186.545 269.141 186.476 269.182 186.397Z" fill="#A39CED"/>
<path opacity="0.25" d="M260.269 165.789C259.667 167.241 258.784 168.559 257.672 169.669C256.954 170.352 256.138 170.926 255.252 171.37C255.188 171.04 255.115 170.693 255.059 170.322C257.882 169.144 260.051 166.087 260.269 165.789Z" fill="black"/>
<path d="M244.404 146.014C245.211 148.039 250.623 148.12 253.277 147.458C255.422 146.926 258.019 145.99 258.769 143.312C259.269 144.013 259.48 144.88 259.358 145.732C259.003 147.208 257.205 148.789 254.309 149.652C251.744 150.41 246.38 150.459 244.453 148.587C244.421 148.595 243.364 147.015 244.404 146.014Z" fill="#A39CED"/>
<path d="M233.611 134.252C234.058 134.379 234.529 134.399 234.985 134.312C235.441 134.226 235.871 134.034 236.241 133.752C236.372 133.63 236.478 133.482 236.552 133.319C236.626 133.155 236.667 132.978 236.671 132.798C236.676 132.619 236.644 132.44 236.579 132.273C236.513 132.105 236.415 131.953 236.289 131.824C235.721 131.304 235.016 130.957 234.257 130.824C233.942 130.829 233.635 130.92 233.368 131.088C233.102 131.256 232.888 131.494 232.748 131.776C232.635 132.591 232.805 133.817 233.611 134.252Z" fill="#263238"/>
<path d="M242.33 129.995C242.422 129.812 242.457 129.607 242.432 129.404C242.407 129.202 242.322 129.011 242.188 128.857C242.055 128.703 241.878 128.591 241.682 128.537C241.485 128.483 241.276 128.488 241.083 128.552C240.889 128.617 240.719 128.737 240.593 128.898C240.468 129.059 240.393 129.253 240.378 129.457C240.363 129.66 240.409 129.864 240.509 130.041C240.61 130.219 240.761 130.363 240.943 130.455C241.064 130.516 241.197 130.552 241.332 130.562C241.467 130.572 241.603 130.555 241.732 130.512C241.861 130.47 241.98 130.402 242.083 130.313C242.186 130.224 242.27 130.116 242.33 129.995Z" fill="black"/>
<path d="M248.84 132.744C248.939 132.537 248.975 132.306 248.943 132.08C248.912 131.853 248.815 131.641 248.664 131.469C248.513 131.297 248.315 131.173 248.095 131.112C247.874 131.052 247.641 131.057 247.423 131.128C247.206 131.198 247.014 131.331 246.871 131.51C246.728 131.689 246.641 131.905 246.62 132.133C246.599 132.361 246.646 132.59 246.754 132.791C246.861 132.993 247.026 133.159 247.227 133.268C247.367 133.343 247.52 133.39 247.678 133.404C247.836 133.419 247.995 133.401 248.146 133.352C248.297 133.303 248.437 133.224 248.556 133.119C248.675 133.015 248.772 132.887 248.84 132.744Z" fill="black"/>
<path d="M233.007 135.93C233.097 136.01 233.206 136.065 233.323 136.09C233.44 136.116 233.562 136.11 233.677 136.075C233.579 135.569 233.579 135.049 233.677 134.543C233.54 134.954 233.475 135.385 233.483 135.817C233.483 135.946 233.233 136.051 232.902 135.817C232.943 135.866 232.967 135.866 233.007 135.93Z" fill="#37474F"/>
<path d="M255.292 171.353C255.219 171.023 255.147 170.668 255.09 170.305C254.494 170.57 253.855 170.729 253.203 170.772C250.896 170.893 248.186 170.869 246.178 171.079C246.533 171.515 246.888 171.926 247.226 172.321C248.906 172.104 250.598 171.982 252.291 171.958C253.324 171.985 254.35 171.779 255.292 171.353Z" fill="#E0E0E0"/>
<path d="M254.122 133.922C254.74 133.525 255.432 133.26 256.156 133.142C256.881 133.024 257.621 133.056 258.333 133.236C258.333 133.236 257.316 131.179 255.856 131.26C254.397 131.341 253.485 133.18 254.122 133.922Z" fill="black"/>
<path d="M253.38 133.488C253.201 132.804 253.288 132.078 253.622 131.455C254.356 130.261 257.018 129.326 258.381 129.398C259.744 129.471 265.309 129.931 267.18 135.851C268.576 140.239 267.898 142.634 265.019 144.288C260.986 146.627 261.22 141.392 260.252 138.464C258.639 133.625 257.211 132.246 256.034 132.125C254.05 132.762 254.122 133.939 254.122 133.939C254.122 133.939 253.695 134.109 253.38 133.488Z" fill="#37474F"/>
<path opacity="0.25" d="M240.009 138.48C239.576 138.858 239.072 139.147 238.527 139.33C237.981 139.513 237.405 139.586 236.831 139.544C236.012 139.55 235.204 139.356 234.476 138.98C234.334 138.917 234.207 138.826 234.102 138.712C233.996 138.598 233.915 138.465 233.863 138.319C233.818 138.157 233.835 137.984 233.912 137.835C233.988 137.686 234.117 137.57 234.274 137.512C234.126 137.458 233.968 137.436 233.811 137.449C233.653 137.461 233.501 137.508 233.363 137.585C233.256 137.644 233.167 137.731 233.103 137.835C233.039 137.94 233.004 138.059 233 138.181C233.001 138.384 233.033 138.586 233.097 138.778C233.851 139.537 234.867 139.978 235.936 140.012C238.985 140.408 240.009 138.48 240.009 138.48Z" fill="black"/>
<path d="M106.45 52.0576C110.676 59.1957 114.741 65.4062 117.597 68.3744C123.009 70.8989 135.744 74.7704 140.721 75.4237C141.598 75.5307 142.484 75.322 143.221 74.8349C145.181 73.5444 146.697 73.3428 148.762 72.625C150.375 72.0684 151.061 71.2941 151.367 71.5845C151.678 71.9503 151.834 72.4225 151.802 72.9012C151.771 73.3799 151.554 73.8275 151.198 74.1494C150.426 74.8876 149.568 75.5295 148.641 76.0609C150.849 76.6057 153.15 76.647 155.376 76.1819C159.683 75.0446 161.724 77.1175 158.804 81.8278C157.763 83.5055 153.65 86.1833 145.318 85.4654C142.342 85.2941 139.38 84.9439 136.446 84.4169C128.453 82.707 119.565 81.0535 114.104 79.4243C112.076 78.6269 110.262 77.3676 108.805 75.7464C99.6104 65.2611 96.5697 57.8165 92.5449 51.0333L92.8917 39.9512C99.433 39.7253 102.95 46.081 106.45 52.0576Z" fill="#FFA8A7"/>
<path d="M91.8028 39.7249C93.6923 39.4622 95.6176 39.7199 97.3714 40.4704C99.1253 41.2208 100.641 42.4355 101.756 43.9835C106.232 49.7101 114.137 63.4539 114.137 63.4539C114.137 63.4539 111.539 70.342 104.563 71.4712L93.3514 56.332C93.3514 56.332 88.0443 45.8467 91.8028 39.7249Z" fill="#455A64"/>
<path d="M74.8641 194.184H67.5566V207.218H74.8641V194.184Z" fill="#FFA8A7"/>
<path d="M92.8984 193.48L100.206 193.746L100.569 179.954L92.8984 179.688V193.48Z" fill="#FFA8A7"/>
<path d="M66.5237 81.3463C66.5237 88.6053 67.5964 147.121 67.5964 147.121C67.427 149.21 65.5477 153.066 65.9833 161.099C66.5398 172.02 67.2738 200.701 67.2738 200.701C68.5291 201.344 69.9143 201.693 71.3243 201.72C72.7343 201.748 74.1322 201.455 75.412 200.863C75.412 200.863 81.3402 160.672 82.671 149.856C83.8164 140.419 86.7038 109.1 86.7038 109.1L90.6641 146.057C89.8179 150.03 89.514 154.1 89.7607 158.155C90.0995 163.156 92.4546 189.216 92.4546 189.216C93.7183 189.959 95.1344 190.406 96.5959 190.521C98.0574 190.637 99.5261 190.42 100.891 189.885C100.891 189.885 105.053 150.646 105.134 146.057C105.231 140.822 102.714 81.2656 102.714 81.2656L66.5237 81.3463Z" fill="#37474F"/>
<path d="M74.8638 203.459V202.37C75.5655 202.685 77.1948 209.145 80.0903 211.896C82.3971 214.089 85.5427 216.614 86.3412 219.058C87.1397 221.502 81.9615 223.002 79.808 222.607C77.3077 222.139 72.9684 220.308 71.8795 218.574C70.7907 216.84 70.2664 214.364 69.3953 213.114C68.5242 211.863 66.4675 210.476 65.9916 209.032C65.7255 208.226 66.04 206.5 66.411 205C66.7821 203.499 67.1128 202.177 67.5564 202.306V203.112C68.5839 203.96 69.8781 204.417 71.2101 204.403C72.2989 204.524 74.8719 204.306 74.8638 203.459Z" fill="#263238"/>
<path d="M100.286 191.399C100.665 191.399 100.972 191.972 101.81 192.915C103.049 194.227 104.503 195.319 106.109 196.142C108.844 197.569 114.175 199.763 116.595 200.892C118.103 201.602 118.03 203.497 116.474 204.57C114.917 205.643 111.167 206.425 106.658 205.377C104.238 204.804 101.012 202.441 98.9795 202.57C96.9469 202.699 93.1722 202.667 91.6801 201.594C90.1879 200.521 90.7848 198.231 91.2042 196.262C91.664 194.109 92.2447 190.762 92.9222 190.907V191.649C93.8013 193.036 98.3342 193.601 100.27 192.577L100.286 191.399Z" fill="#263238"/>
<path d="M86.6875 109.097C90.4921 107.859 93.9705 105.784 96.8663 103.023C96.8663 103.023 94.9064 106.855 89.0588 110.42L90.309 143.416L86.6875 109.097Z" fill="#263238"/>
<path d="M70.6207 40.8235C70.6207 40.8235 64.6118 42.2108 64.9748 53.1074L66.2411 70.4646V96.5165C71.6128 102.606 95.4386 102.162 103.601 96.0245C103.601 96.0245 102.673 65.1978 102.125 53.3413C101.73 44.9047 99.794 40.6622 91.5026 39.7266L81.3077 40.1782L70.6207 40.8235Z" fill="#A39CED"/>
<path d="M76.5823 19.7782C77.6793 25.7226 83.1881 29.6908 88.8905 28.6504C94.5929 27.6099 97.6336 22.1979 97.811 16.1487C98.1498 5.10685 90.6407 6.09085 84.9061 7.13938C79.1714 8.18791 75.5257 13.8419 76.5823 19.7782Z" fill="#263238"/>
<path d="M72.1133 25.1016C72.1133 25.1016 75.1218 32.5623 75.9928 33.7156C76.5467 34.4193 77.3549 34.877 78.2432 34.99L77.1382 29.5618L72.1133 25.1016Z" fill="#263238"/>
<path d="M72.0654 13.6332C72.0654 13.6332 70.8797 13.5526 70.0167 15.6658C69.2747 17.4725 69.7102 21.1423 72.1138 25.1025L75.1626 24.9089L72.0654 13.6332Z" fill="#263238"/>
<path d="M71.2503 15.4001L67.6047 16.1422C67.5321 15.9086 67.509 15.6624 67.5369 15.4193C67.5648 15.1763 67.6432 14.9418 67.7669 14.7307C67.8906 14.5197 68.057 14.3368 68.2555 14.1937C68.4539 14.0507 68.6801 13.9506 68.9194 13.8999C69.425 13.8144 69.9443 13.9208 70.3756 14.1983C70.8068 14.4759 71.1188 14.9045 71.2503 15.4001Z" fill="#263238"/>
<path d="M70.6852 14.6187L67.459 12.5136C67.5806 12.2999 67.7456 12.1139 67.9432 11.9677C68.1409 11.8214 68.3669 11.718 68.6068 11.6641C68.8467 11.6102 69.0953 11.6069 69.3365 11.6546C69.5777 11.7023 69.8063 11.7998 70.0077 11.9409C70.4387 12.2185 70.7483 12.6493 70.8741 13.1463C70.9998 13.6433 70.9323 14.1695 70.6852 14.6187Z" fill="#263238"/>
<path d="M76.0568 24.7478C75.5325 25.2317 74.4436 24.1913 73.5725 23.5218C72.7015 22.8524 70.2253 22.5217 69.5397 25.3769C68.8542 28.2321 71.3545 30.4663 73.2338 31.0228C76.5891 31.9826 77.1617 29.5791 77.1617 29.5791V40.4919C80.388 45.67 93.5833 46.0733 88.8004 39.9353V35.7977C88.8004 35.7977 92.5509 35.7251 93.9544 35.225C96.2853 34.4185 97.4387 32.1439 97.6726 29.2968C98.0436 24.7316 97.842 21.1344 95.2529 12.7623C92.4622 3.59167 81.9769 5.39031 76.9924 10.141C72.0078 14.8916 76.0568 24.7478 76.0568 24.7478Z" fill="#FFA8A7"/>
<path d="M87.3423 12.6902C84.7936 12.9 82.2287 12.8435 79.6881 13.1177C79.133 13.1538 78.5879 13.2819 78.0749 13.4968C76.2521 14.3679 76.9135 16.5537 76.8893 18.1749C76.8893 20.9575 77.2603 25.5872 76.2521 25.7969C75.9537 25.8614 74.4454 24.087 73.5743 23.5224C73.0017 23.1514 72.7678 22.1835 72.5258 21.5947C72.1306 20.5139 71.8241 19.4008 71.5256 18.2958C71.2837 17.3522 71.0094 16.4004 70.832 15.4487C70.5935 14.3902 70.4798 13.3074 70.4932 12.2224C70.5711 11.2782 70.8784 10.3672 71.3885 9.56886C71.445 9.4882 71.4934 9.39948 71.5418 9.31883C72.5631 7.77429 73.9023 6.4654 75.4697 5.47959C77.7319 4.12486 80.1764 3.1009 82.7288 2.43886C85.2864 1.78614 87.8089 1.00274 90.2863 0.0917636C90.4226 0.0204766 90.5766 -0.0103089 90.7299 0.00304133C90.9638 0.0433694 91.109 0.285329 91.1977 0.511167C91.4107 1.08458 91.4563 1.70675 91.3292 2.30511C91.2022 2.90346 90.9076 3.45335 90.4798 3.89066C92.2301 3.71322 94.0529 2.44692 95.6338 1.68875C95.7591 1.60804 95.8992 1.55294 96.0459 1.52664C96.1927 1.50034 96.3432 1.50335 96.4887 1.5355C96.6751 1.62337 96.8238 1.77499 96.9081 1.96298C97.1118 2.39126 97.2166 2.85988 97.2146 3.33413C97.3021 4.73872 97.0242 6.14202 96.4081 7.40727C95.4273 9.31876 93.8261 10.8403 91.8671 11.7224C90.4165 12.2722 88.8909 12.5985 87.3423 12.6902Z" fill="#263238"/>
<path d="M88.8004 35.7819C88.8004 35.7819 83.9611 35.6448 81.8721 34.9754C80.6466 34.5688 79.5726 33.8012 78.791 32.7734C79.2788 33.8605 79.9748 34.8415 80.8397 35.6609C82.5496 37.2741 88.8004 37.2741 88.8004 37.2741V35.7819Z" fill="#F28F8F"/>
<path d="M87.2683 20.7884C87.2898 21.0005 87.2491 21.2142 87.1511 21.4035C87.0532 21.5928 86.9021 21.7494 86.7166 21.8543C86.531 21.9591 86.3189 22.0076 86.1062 21.9938C85.8935 21.9801 85.6894 21.9046 85.5189 21.7767C85.3483 21.6489 85.2188 21.474 85.146 21.2737C85.0732 21.0734 85.0604 20.8562 85.1091 20.6486C85.1578 20.4411 85.2659 20.2523 85.4201 20.1052C85.5744 19.9582 85.7682 19.8592 85.9778 19.8205C86.1262 19.7989 86.2773 19.8068 86.4226 19.8438C86.5679 19.8807 86.7044 19.9461 86.8244 20.036C86.9443 20.126 87.0453 20.2388 87.1215 20.3679C87.1976 20.497 87.2476 20.6399 87.2683 20.7884Z" fill="#263238"/>
<path d="M85.5341 17.3919L83.4693 19.1341C83.2466 18.8365 83.143 18.4665 83.1788 18.0965C83.2146 17.7265 83.3872 17.3832 83.6628 17.1338C83.7997 17.0207 83.9586 16.9372 84.1294 16.8887C84.3002 16.8401 84.4792 16.8276 84.6551 16.8519C84.831 16.8761 85 16.9367 85.1513 17.0296C85.3026 17.1226 85.4329 17.246 85.5341 17.3919Z" fill="#263238"/>
<path d="M87.7848 29.1445L90.4142 29.6527C90.3979 29.8304 90.345 30.0027 90.2587 30.1589C90.1724 30.3151 90.0547 30.4517 89.913 30.5601C89.7712 30.6685 89.6085 30.7463 89.4352 30.7886C89.2619 30.831 89.0816 30.8369 88.9059 30.8061C88.5442 30.7211 88.2279 30.5028 88.0201 30.1948C87.8123 29.8868 87.7282 29.5117 87.7848 29.1445Z" fill="#F28F8F"/>
<path d="M95.6905 16.3577L92.9805 16.0028C92.9845 15.8257 93.0259 15.6515 93.102 15.4915C93.178 15.3315 93.287 15.1894 93.4218 15.0744C93.5565 14.9595 93.714 14.8743 93.884 14.8244C94.054 14.7745 94.2326 14.761 94.4081 14.7849C94.7784 14.8423 95.1144 15.0347 95.3512 15.3252C95.588 15.6156 95.7089 15.9834 95.6905 16.3577Z" fill="#263238"/>
<path d="M95.8187 19.216C95.855 19.3614 95.8611 19.5128 95.8366 19.6606C95.8122 19.8085 95.7577 19.9498 95.6765 20.0758C95.5953 20.2017 95.4892 20.3098 95.3647 20.3931C95.2401 20.4765 95.0998 20.5335 94.9524 20.5606C94.805 20.5876 94.6536 20.5842 94.5076 20.5504C94.3615 20.5167 94.224 20.4534 94.1033 20.3645C93.9827 20.2755 93.8816 20.1628 93.8062 20.0332C93.7309 19.9037 93.6829 19.7601 93.6652 19.6112C93.6318 19.4651 93.6278 19.3137 93.6531 19.1659C93.6785 19.0182 93.7329 18.8769 93.8131 18.7502C93.8933 18.6235 93.9978 18.5139 94.1205 18.4278C94.2432 18.3416 94.3818 18.2806 94.5282 18.2482C94.8271 18.2088 95.1296 18.2881 95.3708 18.469C95.612 18.6499 95.7728 18.918 95.8187 19.216Z" fill="#263238"/>
<path d="M90.584 19.8438L92.0923 26.5785L95.746 24.917L90.584 19.8438Z" fill="#F28F8F"/>
<path d="M71.1059 80.8465C68.1619 75.2813 64.8147 62.7876 63.1371 56.4884C60.7658 47.5275 64.605 41.8977 68.9685 41.6719C71.7027 42.0832 80.6798 74.7409 80.6798 74.7409C81.6718 75.5475 95.335 82.4597 99.7227 84.2018C100.503 84.4945 101.362 84.4945 102.142 84.2018C104.256 83.3953 105.683 83.5808 107.788 83.3953C109.401 83.234 110.208 82.6613 110.426 83.0001C110.628 83.4297 110.657 83.9209 110.507 84.3715C110.357 84.8221 110.039 85.1975 109.619 85.4198C108.732 85.937 107.787 86.3485 106.804 86.6457C108.568 87.1825 110.406 87.433 112.249 87.3878C116.467 87.291 117.991 89.1219 114.717 93.4047C112.668 96.0825 109.369 96.9294 101.941 94.3565C99.8033 93.6225 96.9078 92.1787 94.2058 91.2028C88.6325 89.1703 87.1968 88.9525 82.9139 87.5168C76.7196 85.3956 72.4125 83.3146 71.1059 80.8465Z" fill="#FFA8A7"/>
<path d="M70.6215 40.8242C68.0567 41.171 65.5644 41.7518 64.0723 43.8246C62.5801 45.8975 61.338 48.8253 62.8302 56.8587C63.9663 62.48 65.4917 68.0156 67.3953 73.4254C67.3953 73.4254 73.3638 75.9822 79.7115 69.5055L75.356 52.6323C75.356 52.6323 74.6059 41.6711 70.6215 40.8242Z" fill="#455A64"/>
</svg>
