<svg width="500" height="500" viewBox="0 0 500 500" fill="none" xmlns="http://www.w3.org/2000/svg">
<path d="M91.0009 410.149C178.281 455.749 319.801 455.749 407.081 410.149C494.361 364.549 494.371 290.619 407.081 245.019C319.791 199.419 178.291 199.429 91.0009 244.999C3.71086 290.569 3.72086 364.559 91.0009 410.149Z" fill="#F5F5F5"/>
<path d="M382.151 334.921C396.792 334.921 408.661 329.261 408.661 322.281C408.661 315.3 396.792 309.641 382.151 309.641C367.51 309.641 355.641 315.3 355.641 322.281C355.641 329.261 367.51 334.921 382.151 334.921Z" fill="#E6E6E6"/>
<path d="M227.631 361.891V362.301C227.65 362.649 227.75 362.987 227.924 363.289C228.098 363.592 228.34 363.849 228.631 364.041L288.071 398.351C288.38 398.512 288.723 398.596 289.071 398.596C289.419 398.596 289.762 398.512 290.071 398.351L377.861 347.671C378.153 347.478 378.396 347.219 378.57 346.915C378.744 346.611 378.843 346.27 378.861 345.921V345.521C378.842 345.171 378.741 344.831 378.568 344.527C378.394 344.224 378.152 343.964 377.861 343.771L318.431 309.461C318.121 309.304 317.778 309.223 317.431 309.223C317.083 309.223 316.741 309.304 316.431 309.461L228.631 360.151C228.34 360.342 228.098 360.6 227.924 360.902C227.75 361.204 227.65 361.543 227.631 361.891Z" fill="#E0E0E0"/>
<path d="M227.631 361.89V362.3C227.65 362.648 227.75 362.987 227.924 363.289C228.098 363.591 228.34 363.848 228.631 364.04L288.071 398.35C288.378 398.516 288.722 398.599 289.071 398.59V390.75L232.351 358L228.631 360.15C228.34 360.342 228.098 360.599 227.924 360.901C227.75 361.203 227.65 361.542 227.631 361.89Z" fill="#E6E6E6"/>
<path d="M228.63 361.311L288.07 395.621C288.379 395.782 288.722 395.866 289.07 395.866C289.418 395.866 289.761 395.782 290.07 395.621L377.86 344.941C378.42 344.621 378.42 344.101 377.86 343.771L318.43 309.461C318.12 309.304 317.777 309.223 317.43 309.223C317.083 309.223 316.74 309.304 316.43 309.461L228.63 360.151C228.508 360.191 228.401 360.268 228.325 360.372C228.25 360.476 228.209 360.602 228.209 360.731C228.209 360.859 228.25 360.985 228.325 361.089C228.401 361.193 228.508 361.271 228.63 361.311Z" fill="white"/>
<path d="M304.362 375.002L264.362 351.892C263.662 351.492 263.632 350.892 264.282 350.482C264.664 350.301 265.084 350.211 265.507 350.219C265.931 350.228 266.347 350.335 266.722 350.532L306.722 373.632C307.422 374.042 307.452 374.632 306.802 375.042C306.42 375.228 306.001 375.322 305.577 375.315C305.153 375.308 304.736 375.201 304.362 375.002Z" fill="#EBEBEB"/>
<path d="M276 377.702L256.26 366.312C255.56 365.912 255.53 365.312 256.18 364.902C256.558 364.71 256.976 364.609 257.4 364.609C257.824 364.609 258.242 364.71 258.62 364.902L278.36 376.302C279.06 376.702 279.09 377.302 278.44 377.712C278.062 377.905 277.643 378.005 277.219 378.003C276.794 378.001 276.376 377.898 276 377.702Z" fill="#E0E0E0"/>
<path d="M281.611 374.67L267.731 366.67C267.241 366.38 267.221 365.94 267.671 365.67C267.937 365.533 268.231 365.461 268.531 365.461C268.83 365.461 269.125 365.533 269.391 365.67L283.281 373.67C283.771 373.96 283.791 374.4 283.331 374.67C283.064 374.806 282.77 374.876 282.471 374.876C282.172 374.876 281.877 374.806 281.611 374.67Z" fill="#EBEBEB"/>
<path d="M311.461 370.869L271.461 347.769C270.761 347.359 270.731 346.769 271.381 346.359C271.759 346.167 272.177 346.066 272.601 346.066C273.025 346.066 273.443 346.167 273.821 346.359L313.821 369.469C314.521 369.869 314.551 370.469 313.901 370.879C313.522 371.067 313.103 371.163 312.68 371.162C312.257 371.16 311.839 371.06 311.461 370.869Z" fill="#EBEBEB"/>
<path d="M318.561 366.789L278.561 343.679C277.861 343.279 277.831 342.679 278.481 342.269C278.859 342.077 279.277 341.977 279.701 341.977C280.125 341.977 280.543 342.077 280.921 342.269L320.921 365.379C321.611 365.779 321.651 366.379 320.991 366.789C320.614 366.98 320.198 367.079 319.776 367.079C319.354 367.079 318.937 366.98 318.561 366.789Z" fill="#EBEBEB"/>
<path d="M325.661 362.702L304.531 350.462C303.831 350.062 303.801 349.462 304.451 349.052C304.834 348.871 305.254 348.781 305.677 348.79C306.101 348.798 306.517 348.905 306.891 349.102L328.001 361.332C328.691 361.742 328.731 362.332 328.081 362.742C327.703 362.924 327.287 363.015 326.867 363.008C326.447 363.001 326.034 362.896 325.661 362.702Z" fill="#EBEBEB"/>
<path d="M345.711 351.08L305.711 327.98C305.021 327.58 304.981 326.98 305.631 326.57C306.011 326.378 306.431 326.277 306.856 326.277C307.282 326.277 307.702 326.378 308.081 326.57L348.081 349.68C348.771 350.08 348.811 350.68 348.151 351.09C347.773 351.283 347.355 351.383 346.93 351.381C346.506 351.38 346.088 351.276 345.711 351.08Z" fill="#EBEBEB"/>
<path d="M352.821 347L312.821 323.89C312.131 323.49 312.091 322.89 312.751 322.48C313.129 322.285 313.547 322.184 313.971 322.184C314.396 322.184 314.814 322.285 315.191 322.48L355.191 345.58C355.881 345.98 355.921 346.58 355.271 346.99C354.893 347.185 354.474 347.288 354.048 347.29C353.622 347.292 353.201 347.192 352.821 347Z" fill="#EBEBEB"/>
<path d="M338.612 355.17L298.612 332.06C297.912 331.66 297.882 331.06 298.532 330.65C298.914 330.469 299.334 330.379 299.757 330.387C300.181 330.396 300.597 330.503 300.972 330.7L340.972 353.81C341.672 354.21 341.712 354.81 341.052 355.21C340.67 355.396 340.251 355.49 339.827 355.483C339.403 355.476 338.986 355.369 338.612 355.17Z" fill="#EBEBEB"/>
<path d="M359.92 342.912L319.92 319.802C319.22 319.402 319.19 318.802 319.84 318.402C320.218 318.21 320.636 318.109 321.06 318.109C321.484 318.109 321.902 318.21 322.28 318.402L362.28 341.512C362.98 341.912 363.01 342.512 362.36 342.922C361.98 343.11 361.562 343.206 361.139 343.205C360.715 343.203 360.298 343.103 359.92 342.912Z" fill="#EBEBEB"/>
<path d="M291.46 378.429C289.993 377.69 288.373 377.305 286.73 377.305C285.088 377.305 283.468 377.69 282 378.429C279.39 379.939 279.39 382.429 282 383.889C283.466 384.634 285.087 385.022 286.73 385.022C288.374 385.022 289.995 384.634 291.46 383.889C294.07 382.389 294.07 379.939 291.46 378.429Z" fill="#E0E0E0"/>
<path d="M134.131 235.071L132.241 234.001C131.507 233.523 130.897 232.88 130.459 232.122C130.021 231.365 129.768 230.514 129.721 229.641V202.691C129.768 201.817 130.021 200.967 130.459 200.209C130.897 199.451 131.507 198.808 132.241 198.331L202.831 157.571C203.607 157.183 204.463 156.98 205.331 156.98C206.199 156.98 207.054 157.183 207.831 157.571L209.711 158.661C210.444 159.138 211.054 159.782 211.492 160.54C211.929 161.297 212.183 162.147 212.231 163.021V190.001C212.183 190.876 211.929 191.727 211.492 192.486C211.054 193.245 210.444 193.891 209.711 194.371L139.121 235.121C138.344 235.506 137.487 235.702 136.62 235.693C135.753 235.684 134.9 235.471 134.131 235.071Z" fill="#A39CED"/>
<path opacity="0.4" d="M134.131 235.071L132.241 234.001C131.507 233.523 130.897 232.88 130.459 232.122C130.021 231.365 129.768 230.514 129.721 229.641V202.691C129.768 201.817 130.021 200.967 130.459 200.209C130.897 199.451 131.507 198.808 132.241 198.331L202.831 157.571C203.607 157.183 204.463 156.98 205.331 156.98C206.199 156.98 207.054 157.183 207.831 157.571L209.711 158.661C210.444 159.138 211.054 159.782 211.492 160.54C211.929 161.297 212.183 162.147 212.231 163.021V190.001C212.183 190.876 211.929 191.727 211.492 192.486C211.054 193.245 210.444 193.891 209.711 194.371L139.121 235.121C138.344 235.506 137.487 235.702 136.62 235.693C135.753 235.684 134.9 235.471 134.131 235.071Z" fill="#A39CED"/>
<path opacity="0.3" d="M134.131 235.071L132.241 234.001C131.507 233.523 130.897 232.88 130.459 232.122C130.021 231.365 129.768 230.514 129.721 229.641V202.691C129.768 201.817 130.021 200.967 130.459 200.209C130.897 199.451 131.507 198.808 132.241 198.331L202.831 157.571C203.607 157.183 204.463 156.98 205.331 156.98C206.199 156.98 207.054 157.183 207.831 157.571L209.711 158.661C210.444 159.138 211.054 159.782 211.492 160.54C211.929 161.297 212.183 162.147 212.231 163.021V190.001C212.183 190.876 211.929 191.727 211.492 192.486C211.054 193.245 210.444 193.891 209.711 194.371L139.121 235.121C138.344 235.506 137.487 235.702 136.62 235.693C135.753 235.684 134.9 235.471 134.131 235.071Z" fill="white"/>
<path d="M141.371 206.511L130.461 200.211C130.01 200.962 129.755 201.815 129.721 202.691V229.621C129.768 230.495 130.021 231.345 130.459 232.103C130.897 232.86 131.507 233.504 132.241 233.981L134.131 235.071C134.905 235.465 135.762 235.671 136.631 235.671C137.5 235.671 138.356 235.465 139.131 235.071L141.341 233.801L141.371 206.511Z" fill="#A39CED"/>
<path opacity="0.2" d="M141.371 206.511L130.461 200.211C130.01 200.962 129.755 201.815 129.721 202.691V229.621C129.768 230.495 130.021 231.345 130.459 232.103C130.897 232.86 131.507 233.504 132.241 233.981L134.131 235.071C134.905 235.465 135.762 235.671 136.631 235.671C137.5 235.671 138.356 235.465 139.131 235.071L141.341 233.801L141.371 206.511Z" fill="black"/>
<path d="M136.641 206.689V233.619C136.641 235.219 137.771 235.879 139.161 235.069L209.751 194.319C210.484 193.839 211.094 193.194 211.532 192.435C211.969 191.676 212.222 190.824 212.271 189.949V162.999C212.271 161.399 211.141 160.749 209.751 161.549L139.161 202.299C138.425 202.781 137.813 203.43 137.375 204.193C136.937 204.956 136.686 205.811 136.641 206.689Z" fill="#A39CED"/>
<path d="M166.8 191.832L191.21 177.732C192.21 177.162 193 177.422 193 178.312C192.927 178.862 192.728 179.388 192.417 179.848C192.107 180.308 191.693 180.689 191.21 180.962L166.8 195.062C165.8 195.632 165 195.372 165 194.482C165.074 193.931 165.275 193.404 165.587 192.944C165.899 192.484 166.315 192.104 166.8 191.832Z" fill="white"/>
<path d="M166.521 200.18L206.001 177.36C206.841 176.88 207.521 177.1 207.521 177.85C207.461 178.316 207.292 178.762 207.028 179.151C206.764 179.54 206.412 179.862 206.001 180.09L166.491 202.91C165.651 203.39 164.971 203.17 164.971 202.42C165.034 201.95 165.207 201.503 165.477 201.114C165.746 200.724 166.104 200.404 166.521 200.18Z" fill="white"/>
<path d="M166.521 205.641L206.001 182.821C206.841 182.341 207.521 182.561 207.521 183.311C207.461 183.777 207.292 184.223 207.028 184.612C206.764 185.001 206.412 185.322 206.001 185.551L166.491 208.361C165.651 208.851 164.971 208.631 164.971 207.871C165.035 207.403 165.21 206.958 165.479 206.57C165.748 206.183 166.105 205.864 166.521 205.641Z" fill="white"/>
<path d="M166.521 211.092L206.001 188.282C206.841 187.802 207.521 188.022 207.521 188.772C207.459 189.236 207.29 189.68 207.026 190.067C206.762 190.454 206.411 190.774 206.001 191.002L166.491 213.812C165.651 214.292 164.971 214.072 164.971 213.322C165.035 212.854 165.21 212.409 165.479 212.021C165.748 211.634 166.105 211.315 166.521 211.092Z" fill="white"/>
<path d="M143.391 205.341L158.261 196.761C159.381 196.111 160.261 196.631 160.261 197.921V215.101C160.225 215.799 160.026 216.479 159.679 217.085C159.331 217.691 158.845 218.207 158.261 218.591L143.391 227.181C142.271 227.821 141.391 227.301 141.391 226.011V208.841C141.426 208.141 141.625 207.46 141.973 206.852C142.32 206.244 142.806 205.726 143.391 205.341Z" fill="#A39CED"/>
<path opacity="0.3" d="M143.391 205.341L158.261 196.761C159.381 196.111 160.261 196.631 160.261 197.921V215.101C160.225 215.799 160.026 216.479 159.679 217.085C159.331 217.691 158.845 218.207 158.261 218.591L143.391 227.181C142.271 227.821 141.391 227.301 141.391 226.011V208.841C141.426 208.141 141.625 207.46 141.973 206.852C142.32 206.244 142.806 205.726 143.391 205.341Z" fill="white"/>
<path d="M144.661 212.87C144.346 212.871 144.036 212.792 143.761 212.64C143.431 212.426 143.165 212.127 142.989 211.776C142.813 211.424 142.735 211.032 142.761 210.64C142.805 209.717 143.069 208.817 143.532 208.017C143.995 207.217 144.642 206.539 145.421 206.04C145.735 205.787 146.119 205.634 146.522 205.604C146.925 205.573 147.328 205.664 147.677 205.867C148.027 206.069 148.307 206.373 148.481 206.737C148.655 207.102 148.714 207.511 148.651 207.91C148.609 208.833 148.346 209.732 147.885 210.532C147.424 211.333 146.778 212.011 146.001 212.51C145.593 212.746 145.131 212.87 144.661 212.87ZM146.001 207C145.403 207.399 144.906 207.931 144.547 208.553C144.188 209.176 143.977 209.873 143.931 210.59C143.869 210.782 143.875 210.988 143.948 211.176C144.02 211.364 144.154 211.521 144.329 211.621C144.503 211.722 144.706 211.76 144.905 211.729C145.104 211.697 145.286 211.599 145.421 211.45C146.019 211.052 146.518 210.521 146.877 209.898C147.236 209.275 147.446 208.578 147.491 207.86C147.552 207.669 147.546 207.462 147.474 207.274C147.402 207.086 147.267 206.929 147.093 206.829C146.919 206.728 146.715 206.69 146.517 206.722C146.318 206.753 146.136 206.851 146.001 207Z" fill="white"/>
<path d="M160.281 209L157.441 206C157.301 205.858 157.129 205.753 156.94 205.692C156.75 205.631 156.549 205.617 156.353 205.65C156.157 205.684 155.971 205.764 155.813 205.884C155.654 206.004 155.527 206.16 155.441 206.34L151.361 215.34L149.361 213.54C149.226 213.42 149.067 213.33 148.895 213.277C148.722 213.223 148.54 213.207 148.361 213.23C148.183 213.254 148.012 213.317 147.86 213.413C147.708 213.51 147.579 213.638 147.481 213.79L141.371 223.28V225.44L148.571 214.44L155.141 220.39L156.191 219.78L152.241 216.2L156.471 206.85H156.601L160.281 210.76V209Z" fill="white"/>
<path d="M134.131 280.071L132.241 279.001C131.507 278.523 130.897 277.88 130.459 277.122C130.021 276.365 129.768 275.514 129.721 274.641V247.691C129.768 246.817 130.021 245.967 130.459 245.209C130.897 244.451 131.507 243.808 132.241 243.331L202.831 202.571C203.607 202.183 204.463 201.98 205.331 201.98C206.199 201.98 207.054 202.183 207.831 202.571L209.711 203.661C210.444 204.138 211.054 204.782 211.492 205.54C211.929 206.297 212.183 207.147 212.231 208.021V235.001C212.183 235.876 211.929 236.727 211.492 237.486C211.054 238.245 210.444 238.891 209.711 239.371L139.121 280.121C138.344 280.506 137.487 280.702 136.62 280.693C135.753 280.684 134.9 280.471 134.131 280.071Z" fill="#A39CED"/>
<path opacity="0.4" d="M134.131 280.071L132.241 279.001C131.507 278.523 130.897 277.88 130.459 277.122C130.021 276.365 129.768 275.514 129.721 274.641V247.691C129.768 246.817 130.021 245.967 130.459 245.209C130.897 244.451 131.507 243.808 132.241 243.331L202.831 202.571C203.607 202.183 204.463 201.98 205.331 201.98C206.199 201.98 207.054 202.183 207.831 202.571L209.711 203.661C210.444 204.138 211.054 204.782 211.492 205.54C211.929 206.297 212.183 207.147 212.231 208.021V235.001C212.183 235.876 211.929 236.727 211.492 237.486C211.054 238.245 210.444 238.891 209.711 239.371L139.121 280.121C138.344 280.506 137.487 280.702 136.62 280.693C135.753 280.684 134.9 280.471 134.131 280.071Z" fill="#A39CED"/>
<path opacity="0.3" d="M134.131 280.071L132.241 279.001C131.507 278.523 130.897 277.88 130.459 277.122C130.021 276.365 129.768 275.514 129.721 274.641V247.691C129.768 246.817 130.021 245.967 130.459 245.209C130.897 244.451 131.507 243.808 132.241 243.331L202.831 202.571C203.607 202.183 204.463 201.98 205.331 201.98C206.199 201.98 207.054 202.183 207.831 202.571L209.711 203.661C210.444 204.138 211.054 204.782 211.492 205.54C211.929 206.297 212.183 207.147 212.231 208.021V235.001C212.183 235.876 211.929 236.727 211.492 237.486C211.054 238.245 210.444 238.891 209.711 239.371L139.121 280.121C138.344 280.506 137.487 280.702 136.62 280.693C135.753 280.684 134.9 280.471 134.131 280.071Z" fill="white"/>
<path d="M141.371 251.511L130.461 245.211C130.01 245.962 129.755 246.815 129.721 247.691V274.621C129.768 275.495 130.021 276.345 130.459 277.103C130.897 277.86 131.507 278.504 132.241 278.981L134.131 280.071C134.905 280.465 135.762 280.671 136.631 280.671C137.5 280.671 138.356 280.465 139.131 280.071L141.341 278.801L141.371 251.511Z" fill="#A39CED"/>
<path opacity="0.2" d="M141.371 251.511L130.461 245.211C130.01 245.962 129.755 246.815 129.721 247.691V274.621C129.768 275.495 130.021 276.345 130.459 277.103C130.897 277.86 131.507 278.504 132.241 278.981L134.131 280.071C134.905 280.465 135.762 280.671 136.631 280.671C137.5 280.671 138.356 280.465 139.131 280.071L141.341 278.801L141.371 251.511Z" fill="black"/>
<path d="M136.641 251.689V278.619C136.641 280.219 137.771 280.879 139.161 280.069L209.751 239.319C210.484 238.839 211.094 238.194 211.532 237.435C211.969 236.676 212.222 235.824 212.271 234.949V207.999C212.271 206.399 211.141 205.749 209.751 206.549L139.161 247.299C138.425 247.781 137.813 248.43 137.375 249.193C136.937 249.956 136.686 250.811 136.641 251.689Z" fill="#A39CED"/>
<path d="M166.8 236.832L191.21 222.732C192.21 222.162 193 222.422 193 223.312C192.927 223.862 192.728 224.388 192.417 224.848C192.107 225.308 191.693 225.689 191.21 225.962L166.8 240.062C165.8 240.632 165 240.372 165 239.482C165.074 238.931 165.275 238.404 165.587 237.944C165.899 237.484 166.315 237.104 166.8 236.832Z" fill="white"/>
<path d="M166.521 245.18L206.001 222.36C206.841 221.88 207.521 222.1 207.521 222.85C207.461 223.316 207.292 223.762 207.028 224.151C206.764 224.54 206.412 224.862 206.001 225.09L166.491 247.91C165.651 248.39 164.971 248.17 164.971 247.42C165.034 246.95 165.207 246.503 165.477 246.114C165.746 245.724 166.104 245.404 166.521 245.18Z" fill="white"/>
<path d="M166.521 250.641L206.001 227.821C206.841 227.341 207.521 227.561 207.521 228.311C207.461 228.777 207.292 229.223 207.028 229.612C206.764 230.001 206.412 230.322 206.001 230.551L166.491 253.361C165.651 253.851 164.971 253.631 164.971 252.871C165.035 252.403 165.21 251.958 165.479 251.57C165.748 251.183 166.105 250.864 166.521 250.641Z" fill="white"/>
<path d="M166.521 256.092L206.001 233.282C206.841 232.802 207.521 233.022 207.521 233.772C207.459 234.236 207.29 234.68 207.026 235.067C206.762 235.454 206.411 235.774 206.001 236.002L166.491 258.812C165.651 259.292 164.971 259.072 164.971 258.322C165.035 257.854 165.21 257.409 165.479 257.021C165.748 256.634 166.105 256.315 166.521 256.092Z" fill="white"/>
<path d="M143.391 250.341L158.261 241.761C159.381 241.111 160.261 241.631 160.261 242.921V260.101C160.225 260.799 160.026 261.479 159.679 262.085C159.331 262.691 158.845 263.207 158.261 263.591L143.391 272.181C142.271 272.821 141.391 272.301 141.391 271.011V253.841C141.426 253.141 141.625 252.46 141.973 251.852C142.32 251.244 142.806 250.726 143.391 250.341Z" fill="#A39CED"/>
<path opacity="0.3" d="M143.391 250.341L158.261 241.761C159.381 241.111 160.261 241.631 160.261 242.921V260.101C160.225 260.799 160.026 261.479 159.679 262.085C159.331 262.691 158.845 263.207 158.261 263.591L143.391 272.181C142.271 272.821 141.391 272.301 141.391 271.011V253.841C141.426 253.141 141.625 252.46 141.973 251.852C142.32 251.244 142.806 250.726 143.391 250.341Z" fill="white"/>
<path d="M144.661 257.87C144.346 257.871 144.036 257.792 143.761 257.64C143.431 257.426 143.165 257.127 142.989 256.776C142.813 256.424 142.735 256.032 142.761 255.64C142.805 254.717 143.069 253.817 143.532 253.017C143.995 252.217 144.642 251.539 145.421 251.04C145.735 250.787 146.119 250.634 146.522 250.604C146.925 250.573 147.328 250.664 147.677 250.867C148.027 251.069 148.307 251.373 148.481 251.737C148.655 252.102 148.714 252.511 148.651 252.91C148.609 253.833 148.346 254.732 147.885 255.532C147.424 256.333 146.778 257.011 146.001 257.51C145.593 257.746 145.131 257.87 144.661 257.87ZM146.001 252C145.403 252.399 144.906 252.931 144.547 253.553C144.188 254.176 143.977 254.873 143.931 255.59C143.869 255.782 143.875 255.988 143.948 256.176C144.02 256.364 144.154 256.521 144.329 256.621C144.503 256.722 144.706 256.76 144.905 256.729C145.104 256.697 145.286 256.599 145.421 256.45C146.019 256.052 146.518 255.521 146.877 254.898C147.236 254.275 147.446 253.578 147.491 252.86C147.552 252.669 147.546 252.462 147.474 252.274C147.402 252.086 147.267 251.929 147.093 251.829C146.919 251.728 146.715 251.69 146.517 251.722C146.318 251.753 146.136 251.851 146.001 252Z" fill="white"/>
<path d="M160.281 254L157.441 251C157.301 250.858 157.129 250.753 156.94 250.692C156.75 250.631 156.549 250.617 156.353 250.65C156.157 250.684 155.971 250.764 155.813 250.884C155.654 251.004 155.527 251.16 155.441 251.34L151.361 260.34L149.361 258.54C149.226 258.42 149.067 258.33 148.895 258.277C148.722 258.223 148.54 258.207 148.361 258.23C148.183 258.254 148.012 258.317 147.86 258.413C147.708 258.51 147.579 258.638 147.481 258.79L141.371 268.28V270.45L148.571 259.4L155.141 265.35L156.191 264.74L152.241 261.16L156.471 251.81H156.601L160.281 255.72V254Z" fill="white"/>
<path d="M134.131 324.071L132.241 323.001C131.507 322.523 130.897 321.88 130.459 321.122C130.021 320.365 129.768 319.514 129.721 318.641V291.691C129.768 290.817 130.021 289.967 130.459 289.209C130.897 288.451 131.507 287.808 132.241 287.331L202.831 246.571C203.607 246.183 204.463 245.98 205.331 245.98C206.199 245.98 207.054 246.183 207.831 246.571L209.711 247.661C210.444 248.138 211.054 248.782 211.492 249.54C211.929 250.297 212.183 251.147 212.231 252.021V279.001C212.183 279.876 211.929 280.727 211.492 281.486C211.054 282.245 210.444 282.891 209.711 283.371L139.121 324.121C138.344 324.506 137.487 324.702 136.62 324.693C135.753 324.684 134.9 324.471 134.131 324.071Z" fill="#A39CED"/>
<path opacity="0.4" d="M134.131 324.071L132.241 323.001C131.507 322.523 130.897 321.88 130.459 321.122C130.021 320.365 129.768 319.514 129.721 318.641V291.691C129.768 290.817 130.021 289.967 130.459 289.209C130.897 288.451 131.507 287.808 132.241 287.331L202.831 246.571C203.607 246.183 204.463 245.98 205.331 245.98C206.199 245.98 207.054 246.183 207.831 246.571L209.711 247.661C210.444 248.138 211.054 248.782 211.492 249.54C211.929 250.297 212.183 251.147 212.231 252.021V279.001C212.183 279.876 211.929 280.727 211.492 281.486C211.054 282.245 210.444 282.891 209.711 283.371L139.121 324.121C138.344 324.506 137.487 324.702 136.62 324.693C135.753 324.684 134.9 324.471 134.131 324.071Z" fill="#A39CED"/>
<path opacity="0.3" d="M134.131 324.071L132.241 323.001C131.507 322.523 130.897 321.88 130.459 321.122C130.021 320.365 129.768 319.514 129.721 318.641V291.691C129.768 290.817 130.021 289.967 130.459 289.209C130.897 288.451 131.507 287.808 132.241 287.331L202.831 246.571C203.607 246.183 204.463 245.98 205.331 245.98C206.199 245.98 207.054 246.183 207.831 246.571L209.711 247.661C210.444 248.138 211.054 248.782 211.492 249.54C211.929 250.297 212.183 251.147 212.231 252.021V279.001C212.183 279.876 211.929 280.727 211.492 281.486C211.054 282.245 210.444 282.891 209.711 283.371L139.121 324.121C138.344 324.506 137.487 324.702 136.62 324.693C135.753 324.684 134.9 324.471 134.131 324.071Z" fill="white"/>
<path d="M141.371 295.511L130.461 289.211C130.01 289.962 129.755 290.815 129.721 291.691V318.621C129.768 319.495 130.021 320.345 130.459 321.103C130.897 321.86 131.507 322.504 132.241 322.981L134.131 324.071C134.905 324.465 135.762 324.671 136.631 324.671C137.5 324.671 138.356 324.465 139.131 324.071L141.341 322.801L141.371 295.511Z" fill="#A39CED"/>
<path opacity="0.2" d="M141.371 295.511L130.461 289.211C130.01 289.962 129.755 290.815 129.721 291.691V318.621C129.768 319.495 130.021 320.345 130.459 321.103C130.897 321.86 131.507 322.504 132.241 322.981L134.131 324.071C134.905 324.465 135.762 324.671 136.631 324.671C137.5 324.671 138.356 324.465 139.131 324.071L141.341 322.801L141.371 295.511Z" fill="black"/>
<path d="M136.641 295.689V322.619C136.641 324.219 137.771 324.879 139.161 324.069L209.751 283.319C210.484 282.839 211.094 282.194 211.532 281.435C211.969 280.676 212.222 279.824 212.271 278.949V251.999C212.271 250.399 211.141 249.749 209.751 250.549L139.161 291.299C138.425 291.781 137.813 292.43 137.375 293.193C136.937 293.956 136.686 294.811 136.641 295.689Z" fill="#A39CED"/>
<path d="M166.8 280.832L191.21 266.732C192.21 266.162 193 266.422 193 267.312C192.927 267.862 192.728 268.388 192.417 268.848C192.107 269.308 191.693 269.689 191.21 269.962L166.8 284.062C165.8 284.632 165 284.372 165 283.482C165.074 282.931 165.275 282.404 165.587 281.944C165.899 281.484 166.315 281.103 166.8 280.832Z" fill="white"/>
<path d="M166.521 289.18L206.001 266.36C206.841 265.88 207.521 266.1 207.521 266.85C207.461 267.316 207.292 267.762 207.028 268.151C206.764 268.54 206.412 268.862 206.001 269.09L166.491 291.91C165.651 292.39 164.971 292.17 164.971 291.42C165.034 290.95 165.207 290.503 165.477 290.114C165.746 289.724 166.104 289.404 166.521 289.18Z" fill="white"/>
<path d="M166.521 294.641L206.001 271.821C206.841 271.341 207.521 271.561 207.521 272.311C207.461 272.777 207.292 273.223 207.028 273.612C206.764 274.001 206.412 274.322 206.001 274.551L166.491 297.361C165.651 297.851 164.971 297.631 164.971 296.871C165.035 296.403 165.21 295.958 165.479 295.57C165.748 295.183 166.105 294.864 166.521 294.641Z" fill="white"/>
<path d="M166.521 300.092L206.001 277.282C206.841 276.802 207.521 277.022 207.521 277.772C207.459 278.236 207.29 278.68 207.026 279.067C206.762 279.454 206.411 279.774 206.001 280.002L166.491 302.812C165.651 303.292 164.971 303.072 164.971 302.322C165.035 301.854 165.21 301.409 165.479 301.021C165.748 300.634 166.105 300.315 166.521 300.092Z" fill="white"/>
<path d="M143.391 294.341L158.261 285.761C159.381 285.111 160.261 285.631 160.261 286.921V304.101C160.225 304.799 160.026 305.479 159.679 306.085C159.331 306.691 158.845 307.207 158.261 307.591L143.391 316.181C142.271 316.821 141.391 316.301 141.391 315.011V297.841C141.426 297.141 141.625 296.46 141.973 295.852C142.32 295.244 142.806 294.726 143.391 294.341Z" fill="#A39CED"/>
<path opacity="0.3" d="M143.391 294.341L158.261 285.761C159.381 285.111 160.261 285.631 160.261 286.921V304.101C160.225 304.799 160.026 305.479 159.679 306.085C159.331 306.691 158.845 307.207 158.261 307.591L143.391 316.181C142.271 316.821 141.391 316.301 141.391 315.011V297.841C141.426 297.141 141.625 296.46 141.973 295.852C142.32 295.244 142.806 294.726 143.391 294.341Z" fill="white"/>
<path d="M144.661 301.87C144.346 301.871 144.036 301.792 143.761 301.64C143.431 301.426 143.165 301.127 142.989 300.776C142.813 300.424 142.735 300.032 142.761 299.64C142.805 298.717 143.069 297.817 143.532 297.017C143.995 296.217 144.642 295.539 145.421 295.04C145.735 294.787 146.119 294.634 146.522 294.604C146.925 294.573 147.328 294.664 147.677 294.867C148.027 295.069 148.307 295.373 148.481 295.737C148.655 296.102 148.714 296.511 148.651 296.91C148.609 297.833 148.346 298.732 147.885 299.532C147.424 300.333 146.778 301.011 146.001 301.51C145.593 301.746 145.131 301.87 144.661 301.87ZM146.001 296C145.403 296.399 144.906 296.931 144.547 297.553C144.188 298.176 143.977 298.873 143.931 299.59C143.869 299.782 143.875 299.988 143.948 300.176C144.02 300.364 144.154 300.521 144.329 300.621C144.503 300.722 144.706 300.76 144.905 300.729C145.104 300.697 145.286 300.599 145.421 300.45C146.019 300.052 146.518 299.521 146.877 298.898C147.236 298.275 147.446 297.578 147.491 296.86C147.552 296.669 147.546 296.462 147.474 296.274C147.402 296.086 147.267 295.929 147.093 295.829C146.919 295.728 146.715 295.69 146.517 295.722C146.318 295.753 146.136 295.851 146.001 296Z" fill="white"/>
<path d="M160.281 298L157.441 295C157.301 294.858 157.129 294.753 156.94 294.692C156.75 294.631 156.549 294.617 156.353 294.65C156.157 294.684 155.971 294.764 155.813 294.884C155.654 295.004 155.527 295.16 155.441 295.34L151.361 304.34L149.361 302.54C149.226 302.42 149.067 302.33 148.895 302.277C148.722 302.223 148.54 302.207 148.361 302.23C148.183 302.254 148.012 302.317 147.86 302.413C147.708 302.51 147.579 302.638 147.481 302.79L141.371 312.28V314.45L148.571 303.4L155.141 309.35L156.191 308.74L152.241 305.16L156.471 295.81H156.601L160.281 299.72V298Z" fill="white"/>
<path d="M223.931 270.54L222.051 269.45C221.318 268.973 220.707 268.33 220.269 267.572C219.831 266.814 219.579 265.964 219.531 265.09V150.84C219.579 149.967 219.833 149.117 220.27 148.359C220.708 147.602 221.318 146.958 222.051 146.48L330.451 83.8903C331.226 83.4976 332.083 83.293 332.951 83.293C333.82 83.293 334.676 83.4976 335.451 83.8903L337.371 85.0003C338.104 85.4803 338.714 86.1258 339.152 86.8849C339.59 87.644 339.843 88.4954 339.891 89.3703V203.59C339.843 204.464 339.59 205.314 339.152 206.071C338.714 206.829 338.104 207.473 337.371 207.95L229.001 270.54C228.217 270.945 227.348 271.156 226.466 271.156C225.584 271.156 224.715 270.945 223.931 270.54Z" fill="#A39CED"/>
<path d="M231.181 154.659L220.271 148.359C219.816 149.109 219.561 149.963 219.531 150.839V265.089C219.579 265.963 219.831 266.813 220.269 267.571C220.707 268.329 221.318 268.972 222.051 269.449L223.931 270.539C224.706 270.932 225.563 271.137 226.431 271.137C227.3 271.137 228.156 270.932 228.931 270.539L231.141 269.269L231.181 154.659Z" fill="#E6E6E6"/>
<path d="M231.181 154.659L220.271 148.359C219.816 149.109 219.561 149.963 219.531 150.839V156.119L226.451 160.119L231.181 154.659Z" fill="#A39CED"/>
<g opacity="0.2">
<path opacity="0.2" d="M231.181 154.659L220.271 148.359C219.816 149.109 219.561 149.963 219.531 150.839V156.119L226.451 160.119L231.181 154.659Z" fill="black"/>
</g>
<path d="M226.451 154.841V269.091C226.451 270.691 227.581 271.351 228.971 270.541L337.371 208.001C338.104 207.523 338.714 206.88 339.152 206.122C339.59 205.365 339.843 204.515 339.891 203.641V89.3412C339.891 87.7312 338.761 87.0812 337.371 87.8812L229.001 150.481C228.262 150.955 227.646 151.597 227.202 152.355C226.759 153.113 226.502 153.965 226.451 154.841Z" fill="#F5F5F5"/>
<path d="M238.272 159.152C242.182 156.892 245.362 158.722 245.362 163.242C245.228 165.702 244.517 168.096 243.285 170.23C242.053 172.364 240.336 174.177 238.272 175.522C234.352 177.792 231.182 175.952 231.182 171.432C231.314 168.972 232.025 166.577 233.257 164.444C234.489 162.31 236.207 160.497 238.272 159.152Z" fill="#A39CED"/>
<path d="M252.61 153.439L275.93 139.999C277.32 139.199 278.45 139.769 278.45 141.269C278.387 142.116 278.127 142.936 277.689 143.664C277.251 144.392 276.649 145.007 275.93 145.459L252.61 158.899C251.21 159.699 250.09 159.129 250.09 157.629C250.151 156.781 250.411 155.96 250.848 155.232C251.286 154.504 251.89 153.89 252.61 153.439Z" fill="#A39CED"/>
<path d="M251.35 163.13L267.73 153.67C268.43 153.27 268.99 153.55 268.99 154.31C268.959 154.733 268.829 155.143 268.611 155.506C268.392 155.87 268.09 156.176 267.73 156.4L251.35 165.86C250.65 166.26 250.09 165.98 250.09 165.22C250.12 164.797 250.25 164.387 250.469 164.024C250.688 163.661 250.99 163.355 251.35 163.13Z" fill="#A39CED"/>
<path d="M233.702 183.621L332.652 126.491C334.042 125.691 335.172 126.341 335.172 127.951V198.541C335.124 199.414 334.871 200.265 334.434 201.022C333.996 201.78 333.385 202.423 332.652 202.901L233.652 260.061C232.262 260.861 231.182 260.211 231.182 258.611V188.001C231.227 187.124 231.478 186.27 231.916 185.508C232.354 184.747 232.966 184.1 233.702 183.621Z" fill="#A39CED"/>
<path d="M257.38 230.269C257.047 230.273 256.719 230.187 256.43 230.019C256.088 229.784 255.815 229.462 255.639 229.085C255.463 228.709 255.391 228.293 255.43 227.879V189.999C255.478 189.023 255.757 188.071 256.246 187.224C256.735 186.377 257.418 185.659 258.24 185.129L307.54 156.669C307.881 156.429 308.281 156.286 308.697 156.256C309.113 156.226 309.529 156.31 309.9 156.499C310.242 156.733 310.515 157.054 310.69 157.428C310.866 157.803 310.939 158.217 310.9 158.629V196.479C310.855 197.455 310.577 198.406 310.088 199.252C309.599 200.098 308.914 200.813 308.09 201.339L258.79 229.799C258.371 230.081 257.884 230.243 257.38 230.269ZM308.92 157.449C308.625 157.465 308.338 157.558 308.09 157.719L258.79 186.179C258.147 186.607 257.612 187.179 257.227 187.849C256.842 188.518 256.617 189.268 256.57 190.039V227.879C256.514 228.088 256.526 228.31 256.606 228.511C256.686 228.713 256.83 228.883 257.015 228.995C257.2 229.108 257.416 229.158 257.632 229.137C257.847 229.116 258.05 229.026 258.21 228.879L307.51 200.409C308.154 199.983 308.69 199.414 309.077 198.746C309.464 198.078 309.691 197.33 309.74 196.559V158.669C309.765 158.458 309.737 158.245 309.658 158.047C309.58 157.85 309.453 157.676 309.29 157.539C309.177 157.478 309.049 157.447 308.92 157.449Z" fill="white"/>
<path d="M264.16 198.491C263.627 198.495 263.102 198.357 262.64 198.091C262.067 197.702 261.609 197.167 261.313 196.541C261.018 195.915 260.896 195.221 260.96 194.531C261.039 192.789 261.534 191.09 262.404 189.578C263.274 188.067 264.493 186.785 265.96 185.841C266.502 185.393 267.168 185.122 267.869 185.063C268.57 185.004 269.272 185.161 269.881 185.512C270.49 185.864 270.978 186.393 271.278 187.029C271.578 187.665 271.676 188.378 271.56 189.071C271.475 190.812 270.977 192.508 270.108 194.019C269.238 195.53 268.022 196.812 266.56 197.761C265.837 198.209 265.01 198.46 264.16 198.491ZM266.56 186.841C265.268 187.685 264.193 188.82 263.422 190.156C262.651 191.492 262.205 192.991 262.12 194.531C262.002 195.019 262.046 195.531 262.244 195.992C262.442 196.453 262.784 196.837 263.218 197.087C263.653 197.337 264.157 197.439 264.655 197.379C265.153 197.318 265.618 197.098 265.98 196.751C267.268 195.908 268.34 194.773 269.11 193.439C269.879 192.105 270.325 190.609 270.41 189.071C270.528 188.585 270.485 188.073 270.288 187.613C270.091 187.153 269.751 186.769 269.318 186.518C268.885 186.268 268.382 186.163 267.885 186.222C267.388 186.28 266.923 186.497 266.56 186.841Z" fill="white"/>
<path d="M256.471 224.218L255.471 223.578L272.601 197.718C272.847 197.35 273.229 197.094 273.663 197.004C274.096 196.914 274.548 196.998 274.921 197.238L292.921 209.148L292.271 210.148L274.271 198.248C274.215 198.211 274.152 198.184 274.086 198.171C274.02 198.158 273.953 198.158 273.887 198.171C273.821 198.184 273.758 198.21 273.702 198.247C273.646 198.284 273.598 198.332 273.561 198.388L256.471 224.218Z" fill="white"/>
<path d="M283.24 203.358L282.24 202.818L295.66 177.648C295.789 177.407 295.975 177.201 296.201 177.047C296.428 176.894 296.688 176.798 296.96 176.768C297.233 176.744 297.507 176.785 297.761 176.888C298.015 176.99 298.241 177.152 298.42 177.358L310.78 192.188L309.89 192.928L297.5 178.108C297.448 178.044 297.381 177.994 297.305 177.962C297.229 177.93 297.146 177.918 297.064 177.926C296.982 177.933 296.903 177.962 296.834 178.007C296.765 178.053 296.709 178.116 296.67 178.188L283.24 203.358Z" fill="white"/>
<path d="M339.89 89.3412C339.89 87.7312 338.76 87.0812 337.37 87.8812L229 150.481C228.267 150.958 227.656 151.602 227.219 152.36C226.781 153.117 226.528 153.967 226.48 154.841V160.111L339.89 94.6212V89.3412Z" fill="#A39CED"/>
<path opacity="0.1" d="M339.89 89.3412C339.89 87.7312 338.76 87.0812 337.37 87.8812L229 150.481C228.267 150.958 227.656 151.602 227.219 152.36C226.781 153.117 226.528 153.967 226.48 154.841V160.111L339.89 94.6212V89.3412Z" fill="black"/>
<path d="M373.47 212.389C370.54 215.889 365.2 222.569 362.47 226.009C361.017 227.809 360.232 230.056 360.25 232.369C360.25 234.089 360.74 235.519 362.41 234.789C363.842 234.084 365.118 233.098 366.16 231.889C367.75 230.319 373.38 223.549 373.38 223.549C373.38 223.549 377.7 212.189 380.08 211.469C381.369 211.045 382.726 210.866 384.08 210.939C381.22 209.999 377.18 207.999 373.47 212.389Z" fill="#F28F8F"/>
<path d="M385.511 208.66C382.571 206.45 377.611 207.03 374.861 210.35C372.861 212.78 368.061 218.72 368.061 218.72C368.645 220.022 369.497 221.186 370.559 222.139C371.622 223.091 372.873 223.81 374.231 224.25L385.511 208.66Z" fill="#A39CED"/>
<path opacity="0.1" d="M385.511 208.66C382.571 206.45 377.611 207.03 374.861 210.35C372.861 212.78 368.061 218.72 368.061 218.72C368.645 220.022 369.497 221.186 370.559 222.139C371.622 223.091 372.873 223.81 374.231 224.25L385.511 208.66Z" fill="black"/>
<path d="M340.38 299.16L322.89 319.16C322.779 319.287 322.631 319.377 322.466 319.416C322.302 319.456 322.129 319.442 321.972 319.378C321.816 319.314 321.683 319.203 321.593 319.06C321.503 318.916 321.46 318.749 321.47 318.58L323.22 291.93L340.38 299.16Z" fill="#455A64"/>
<path d="M321.47 318.549C321.46 318.718 321.503 318.886 321.593 319.029C321.683 319.173 321.816 319.284 321.972 319.348C322.129 319.412 322.302 319.425 322.466 319.386C322.631 319.347 322.779 319.257 322.89 319.129L326.3 315.239C325.484 315.322 324.661 315.18 323.92 314.827C323.18 314.475 322.55 313.925 322.1 313.239L321.85 312.859L321.47 318.549Z" fill="#263238"/>
<path d="M366.001 188.41L365.061 190.68L363.921 193.41L323.221 291.9C324.291 294.698 326.386 296.983 329.081 298.29C333.081 300.44 337.901 300.82 340.371 299.16L380.791 201.4L382.961 196.16C381.371 199.47 364.471 191.75 366.001 188.41Z" fill="#37474F"/>
<path d="M362.42 197L360.33 202.07C359.68 203.53 362.42 205.76 365.91 207.58C370.52 210.01 376.44 211.69 377.31 209.77L378.84 206.03L379.39 204.69C378.52 206.61 372.6 204.93 367.98 202.5C364.64 200.75 361.98 198.61 362.37 197.16C362.371 197.103 362.389 197.047 362.42 197Z" fill="#455A64"/>
<path d="M361.91 198.308C360.38 201.678 377.35 209.368 378.91 205.998L381.02 200.928C379.49 204.298 362.52 196.608 364.02 193.238L361.91 198.308Z" fill="#37474F"/>
<path d="M366 188.41L363.92 193.41C362.4 196.71 378.71 204.29 380.77 201.41C380.815 201.355 380.852 201.295 380.88 201.23L382.94 196.17C381.37 199.47 364.47 191.75 366 188.41Z" fill="#455A64"/>
<path d="M374.839 167.15L365.999 188.41C365.339 189.84 367.999 192.07 371.489 193.89C376.099 196.33 382.029 198.06 382.939 196.16L391.419 175.71C393.789 171.11 385.619 165.31 379.739 164.97C377.579 164.81 375.719 165.43 374.839 167.15Z" fill="#263238"/>
<path d="M381.36 198.431C385.292 198.431 388.48 195.244 388.48 191.311C388.48 187.379 385.292 184.191 381.36 184.191C377.428 184.191 374.24 187.379 374.24 191.311C374.24 195.244 377.428 198.431 381.36 198.431Z" fill="#263238"/>
<path d="M398.401 311.758H393.391V320.338H398.401V311.758Z" fill="#FFA8A7"/>
<path d="M381.02 311.309L376.01 311.479L375.76 302.389L380.77 302.219L381.02 311.309Z" fill="#FFA8A7"/>
<path d="M398.081 243.719C398.081 248.509 398.701 277.519 398.701 277.519C398.811 278.899 400.111 281.439 399.831 286.729C399.451 293.919 398.831 312.609 398.831 312.609C398.831 312.609 396.471 314.939 393.151 312.609C393.151 312.609 388.611 286.759 387.721 279.609C386.931 273.399 385.601 256.509 385.601 256.509L381.001 276.409C381.001 276.409 381.821 281.079 382.001 284.409C382.181 287.739 381.151 304.969 381.151 304.969C380.339 305.479 379.407 305.767 378.449 305.804C377.491 305.841 376.54 305.625 375.691 305.179C375.691 305.179 371.691 279.179 371.151 276.179C370.611 273.179 374.671 243.779 374.671 243.779L398.081 243.719Z" fill="#37474F"/>
<path d="M393.261 209.082C394.33 209.268 395.32 209.767 396.106 210.517C396.891 211.266 397.436 212.232 397.671 213.292C397.942 214.543 398.079 215.821 398.081 217.102V243.722C394.561 247.542 382.301 249.322 374.621 243.722C374.621 243.722 374.781 220.202 375.351 216.342C376.351 209.632 379.561 207.232 382.791 207.492L390.531 208.592L393.261 209.082Z" fill="#A39CED"/>
<path d="M393.671 196.371C393.241 198.501 392.7 200.607 392.051 202.681C391.742 203.23 391.234 203.639 390.631 203.821L390.711 200.011L393.671 196.371Z" fill="#263238"/>
<path d="M392.22 188.61C392.623 188.56 393.032 188.604 393.415 188.737C393.798 188.871 394.145 189.091 394.43 189.38C395.38 190.38 394.85 193.38 393.67 196.38L391.49 196.63L392.22 188.61Z" fill="#263238"/>
<path d="M390.841 196.62C391.281 196.88 391.901 196.05 392.441 195.48C392.651 195.238 392.92 195.053 393.222 194.944C393.524 194.835 393.849 194.805 394.166 194.857C394.483 194.909 394.781 195.042 395.032 195.242C395.283 195.442 395.479 195.703 395.601 196C396.491 197.88 394.831 200.36 393.451 200.79C391.071 201.54 390.711 200.01 390.711 200.01L390.531 208.6C390.004 209.751 389.201 210.753 388.192 211.518C387.183 212.282 386.001 212.784 384.751 212.98C380.531 213.55 381.401 210.07 382.751 208.37V205.76C381.693 205.926 380.62 205.98 379.551 205.92C377.791 205.65 376.691 204.27 376.161 202.38C375.311 199.38 374.991 196.88 375.711 190.89C376.501 184.33 384.131 184.26 388.251 186.89C392.371 189.52 390.841 196.62 390.841 196.62Z" fill="#FFA8A7"/>
<path d="M390.839 197.351C391.059 197.351 391.889 195.981 392.439 195.481C393.189 194.801 392.219 188.611 392.219 188.611C392.409 188.072 392.441 187.49 392.312 186.934C392.183 186.378 391.897 185.87 391.489 185.471C390.489 184.341 388.739 184.221 385.799 183.751C384.259 183.511 381.929 183.081 380.389 182.751C378.549 182.411 377.029 182.051 375.729 183.181C375.222 183.623 374.864 184.21 374.703 184.863C374.541 185.517 374.586 186.204 374.829 186.831C374.961 187.116 375.136 187.379 375.349 187.611C375.699 188.028 376.155 188.343 376.669 188.521C376.669 188.521 377.479 189.231 380.259 189.571C382.835 189.768 385.424 189.718 387.989 189.421C388.799 189.311 388.989 190.101 389.399 192.241C389.789 194.161 390.099 197.341 390.839 197.351Z" fill="#263238"/>
<path d="M392.211 189.089L394.851 187.669C394.766 187.492 394.646 187.334 394.498 187.204C394.351 187.074 394.178 186.975 393.991 186.913C393.805 186.852 393.607 186.828 393.411 186.845C393.215 186.862 393.025 186.917 392.851 187.009C392.5 187.21 392.238 187.536 392.119 187.923C392 188.309 392.033 188.726 392.211 189.089Z" fill="#263238"/>
<path d="M382.791 205.759C384.594 205.415 386.361 204.906 388.071 204.239C388.872 203.824 389.527 203.175 389.951 202.379C389.747 203.177 389.383 203.925 388.881 204.579C387.881 205.859 382.791 206.799 382.791 206.799V205.759Z" fill="#F28F8F"/>
<path d="M383.73 195.65C383.717 195.76 383.728 195.872 383.762 195.978C383.796 196.084 383.851 196.182 383.925 196.265C384 196.348 384.09 196.414 384.192 196.46C384.293 196.505 384.403 196.529 384.515 196.529C384.626 196.529 384.736 196.505 384.837 196.46C384.939 196.414 385.03 196.348 385.104 196.265C385.178 196.182 385.234 196.084 385.267 195.978C385.301 195.872 385.312 195.76 385.3 195.65C385.302 195.545 385.284 195.441 385.246 195.344C385.208 195.246 385.151 195.157 385.079 195.082C385.006 195.006 384.92 194.946 384.824 194.905C384.728 194.863 384.624 194.841 384.52 194.84C384.415 194.841 384.311 194.863 384.214 194.905C384.118 194.946 384.03 195.006 383.957 195.081C383.883 195.156 383.826 195.245 383.787 195.343C383.748 195.44 383.728 195.545 383.73 195.65Z" fill="#263238"/>
<path d="M384.561 192.691L386.241 193.611C386.36 193.382 386.386 193.116 386.313 192.868C386.241 192.62 386.075 192.41 385.851 192.281C385.739 192.221 385.617 192.184 385.492 192.172C385.366 192.16 385.239 192.174 385.118 192.212C384.998 192.25 384.887 192.313 384.791 192.395C384.695 192.477 384.617 192.578 384.561 192.691Z" fill="#263238"/>
<path d="M383.149 201.051L381.359 201.721C381.398 201.841 381.46 201.952 381.542 202.047C381.624 202.143 381.724 202.221 381.837 202.277C381.95 202.333 382.073 202.366 382.199 202.373C382.325 202.381 382.451 202.363 382.569 202.321C382.813 202.227 383.009 202.041 383.118 201.804C383.226 201.567 383.237 201.296 383.149 201.051Z" fill="#F28F8F"/>
<path d="M376.749 193.338L378.279 192.158C378.127 191.973 377.909 191.853 377.671 191.824C377.433 191.794 377.193 191.856 376.999 191.998C376.796 192.148 376.657 192.37 376.611 192.619C376.564 192.867 376.614 193.124 376.749 193.338Z" fill="#263238"/>
<path d="M377.221 195.419C377.225 195.575 377.275 195.726 377.364 195.854C377.454 195.981 377.579 196.079 377.725 196.136C377.87 196.192 378.029 196.204 378.181 196.171C378.333 196.137 378.472 196.06 378.58 195.947C378.688 195.835 378.76 195.693 378.788 195.54C378.816 195.387 378.798 195.229 378.736 195.086C378.674 194.943 378.571 194.821 378.44 194.736C378.31 194.652 378.157 194.608 378.001 194.609C377.896 194.611 377.793 194.633 377.697 194.674C377.601 194.716 377.514 194.776 377.442 194.851C377.369 194.927 377.312 195.016 377.274 195.113C377.236 195.211 377.218 195.315 377.221 195.419Z" fill="#263238"/>
<path d="M381.21 194.68L380.95 199.39L378.49 198.55L381.21 194.68Z" fill="#F28F8F"/>
<path d="M393.39 317.869V317.149C392.91 317.359 391.8 321.619 389.81 323.429C388.23 324.869 386.07 326.539 385.52 328.149C384.97 329.759 388.52 330.749 390 330.479C391.72 330.179 394.7 328.969 395.44 327.849C396.18 326.729 396.54 325.079 397.15 324.249C397.76 323.419 399.15 322.519 399.48 321.569C399.582 320.679 399.483 319.776 399.19 318.929C398.96 318.049 398.71 317.069 398.41 317.149V317.699C397.694 318.259 396.809 318.559 395.9 318.549C395.17 318.579 393.39 318.429 393.39 317.869Z" fill="#263238"/>
<path d="M376 309.928C375.74 309.928 375.52 310.308 375 310.928C374.127 311.799 373.113 312.516 372 313.048C370.12 313.988 366.47 315.438 364.82 316.178C363.82 316.648 363.82 317.888 364.9 318.598C365.98 319.308 368.55 319.818 371.64 319.128C373.32 318.748 375.52 317.198 376.91 317.278C378.3 317.358 380.91 317.348 381.91 316.638C382.91 315.928 382.52 314.428 382.23 313.128C381.94 311.828 381.46 309.548 380.99 309.648V310.088C380.39 310.998 377.32 311.378 375.99 310.698L376 309.928Z" fill="#263238"/>
<path d="M385.6 256.531C383.001 255.728 380.611 254.363 378.6 252.531C379.94 254.583 381.781 256.259 383.95 257.401L382.45 270.221L385.6 256.531Z" fill="#263238"/>
<path d="M357.531 237.82C358.774 237.988 360.006 238.228 361.221 238.54C362.234 238.981 363.339 239.17 364.441 239.09C365.871 239 369.611 237.23 372.921 235.22C376.547 232.852 379.743 229.883 382.371 226.44C385.371 222.19 388.691 215.49 390.281 212.93C391.871 210.37 393.371 210.1 395.131 210.18C397.211 210.26 398.531 212.18 396.711 216.11C394.102 221.486 390.905 226.557 387.181 231.23C384.317 234.617 380.915 237.509 377.111 239.79C373.812 241.71 370.293 243.225 366.631 244.3C365.571 244.65 364.871 245.18 362.931 246.09C362.15 246.516 361.311 246.826 360.441 247.01C359.35 247.17 358.242 247.17 357.151 247.01C355.767 246.821 354.461 246.262 353.371 245.39C352.768 244.917 352.288 244.307 351.971 243.61C351.656 242.905 351.596 242.113 351.801 241.37C351.842 241.221 351.918 241.084 352.021 240.97C352.254 240.808 352.541 240.743 352.821 240.79C354.381 240.79 356.051 241.13 357.601 241.02C358.911 240.93 359.831 240.68 359.601 240.49C359.371 240.3 358.601 240.42 357.601 239.97C356.601 239.52 355.871 238.51 356.151 237.97C356.431 237.43 356.431 237.54 357.531 237.82Z" fill="#FFA8A7"/>
<path d="M394.461 209.441C394.952 209.431 395.439 209.524 395.892 209.712C396.346 209.9 396.755 210.18 397.095 210.534C397.435 210.888 397.698 211.309 397.868 211.769C398.037 212.23 398.11 212.721 398.081 213.211C398.081 215.941 393.861 223.851 390.631 228.361C390.631 228.361 385.631 228.041 382.961 224.251C382.961 224.251 387.661 216.771 388.961 214.391C390.081 212.251 392.131 209.331 394.461 209.441Z" fill="#A39CED"/>
<path d="M352.6 220.849C354.116 220.19 355.789 219.982 357.42 220.249C358.74 220.459 358.74 224.849 354.51 226.249C351.76 227.149 350.11 226.749 349.22 229.009C349.22 229.009 347.44 228.779 347.85 226.249C348.294 223.65 349.454 221.225 351.2 219.249C352.41 217.819 352.49 216.619 353.09 217.019C353.69 217.419 353.45 218.819 353.45 218.819L352.6 220.849Z" fill="#FFA8A7"/>
</svg>
