<svg width="32" height="32" viewBox="0 0 32 32" fill="none" xmlns="http://www.w3.org/2000/svg">
<path d="M26.1767 10.6634C26.194 10.8967 26.194 11.1287 26.194 11.3607C26.194 18.4607 20.79 26.642 10.914 26.642C7.87135 26.642 5.04468 25.7607 2.66602 24.23C3.09802 24.2794 3.51402 24.2967 3.96335 24.2967C6.38067 24.3025 8.72954 23.4942 10.6313 22.002C9.51058 21.9818 8.42412 21.612 7.52367 20.9444C6.62322 20.2767 5.95373 19.3446 5.60868 18.278C5.94068 18.3274 6.27402 18.3607 6.62335 18.3607C7.10468 18.3607 7.58868 18.294 8.03802 18.178C6.8217 17.9325 5.72798 17.2732 4.94284 16.3123C4.1577 15.3514 3.72961 14.1482 3.73135 12.9074V12.8407C4.44735 13.2394 5.27802 13.4887 6.15802 13.522C5.4208 13.0322 4.81631 12.3674 4.39847 11.5871C3.98063 10.8068 3.76243 9.93518 3.76335 9.05004C3.76335 8.05271 4.02868 7.13804 4.49402 6.34071C5.84353 8.00074 7.52669 9.35879 9.43446 10.3269C11.3422 11.295 13.4321 11.8517 15.5687 11.9607C15.486 11.5607 15.4353 11.146 15.4353 10.73C15.435 10.0247 15.5737 9.32612 15.8435 8.67436C16.1132 8.0226 16.5088 7.43041 17.0076 6.93163C17.5064 6.43284 18.0986 6.03726 18.7503 5.76748C19.4021 5.4977 20.1006 5.35903 20.806 5.35938C22.3527 5.35938 23.7487 6.00738 24.73 7.05538C25.9324 6.82287 27.0854 6.38394 28.138 5.75804C27.7372 6.99913 26.8977 8.05151 25.7767 8.71804C26.8431 8.59641 27.8853 8.31598 28.8687 7.88604C28.1342 8.95684 27.224 9.89584 26.1767 10.6634Z" fill="white"/>
</svg>
